<svg width="136" height="136" viewBox="0 0 136 136" fill="none" xmlns="http://www.w3.org/2000/svg">
<g filter="url(#filter0_d_933_9425)">
<circle cx="68" cy="53" r="35" fill="#1D925D"/>
<path d="M67.7406 34.145C57.5269 34.8556 49.8123 43.724 50.5228 53.9376C50.7641 57.405 51.9721 60.6157 53.8244 63.2893C53.5698 65.6172 52.5401 69.3244 49.0996 71.0408C49.0996 71.0408 55.8957 71.2875 60.1234 68.9105C63.1539 70.5553 66.6596 71.4097 70.3154 71.1554C80.5291 70.4448 88.2437 61.5764 87.5332 51.3628C86.8226 41.1491 77.9542 33.4344 67.7406 34.145Z" fill="white"/>
<path d="M66.2764 60V57.6006H69.0273V60H66.2764ZM66.6455 56.3877V55.1836C66.6455 54.873 66.7012 54.5713 66.8125 54.2783C66.9297 53.9854 67.0762 53.7217 67.252 53.4873C67.4336 53.2529 67.6328 53.0244 67.8496 52.8018C68.0723 52.5732 68.292 52.3564 68.5088 52.1514C68.7314 51.9404 68.9307 51.7354 69.1064 51.5361C69.2881 51.3311 69.4346 51.1143 69.5459 50.8857C69.6631 50.6514 69.7217 50.417 69.7217 50.1826C69.7217 49.7256 69.5576 49.3916 69.2295 49.1807C68.9072 48.9639 68.4766 48.8555 67.9375 48.8555C67.4805 48.8555 66.9971 48.9199 66.4873 49.0488C65.9834 49.1777 65.582 49.3066 65.2832 49.4355V47.5811C66.0742 47.1592 67.0264 46.9482 68.1396 46.9482C68.8369 46.9482 69.4697 47.0625 70.0381 47.291C70.6064 47.5137 71.0723 47.8711 71.4355 48.3633C71.7988 48.8496 71.9805 49.4355 71.9805 50.1211C71.9805 50.4785 71.9131 50.8184 71.7783 51.1406C71.6494 51.4629 71.4795 51.7471 71.2686 51.9932C71.0576 52.2393 70.8232 52.4795 70.5654 52.7139C70.3135 52.9424 70.0586 53.1709 69.8008 53.3994C69.5488 53.6221 69.3174 53.8506 69.1064 54.085C68.8955 54.3193 68.7227 54.5859 68.5879 54.8848C68.459 55.1777 68.3945 55.4883 68.3945 55.8164V56.3877H66.6455Z" fill="#1D925D"/>
</g>
<defs>
<filter id="filter0_d_933_9425" x="0" y="0" width="136" height="136" filterUnits="userSpaceOnUse" color-interpolation-filters="sRGB">
<feFlood flood-opacity="0" result="BackgroundImageFix"/>
<feColorMatrix in="SourceAlpha" type="matrix" values="0 0 0 0 0 0 0 0 0 0 0 0 0 0 0 0 0 0 127 0" result="hardAlpha"/>
<feOffset dy="15"/>
<feGaussianBlur stdDeviation="16.5"/>
<feColorMatrix type="matrix" values="0 0 0 0 0.690196 0 0 0 0 0.717647 0 0 0 0 0.764706 0 0 0 0.08 0"/>
<feBlend mode="normal" in2="BackgroundImageFix" result="effect1_dropShadow_933_9425"/>
<feBlend mode="normal" in="SourceGraphic" in2="effect1_dropShadow_933_9425" result="shape"/>
</filter>
</defs>
</svg>
