<svg width="27" height="27" viewBox="0 0 27 27" fill="none" xmlns="http://www.w3.org/2000/svg">
<path opacity="0.4" d="M23.1182 8.35763L13.5923 13.8687L4.06641 8.35763C4.48791 7.57786 5.09908 6.89292 5.78402 6.51357L11.411 3.39447C12.6123 2.72007 14.5723 2.72007 15.7736 3.39447L21.4006 6.51357C22.0855 6.89292 22.6967 7.57786 23.1182 8.35763Z" fill="#38CB89"/>
<path opacity="0.6" d="M13.5924 13.869V23.9639C12.802 23.9639 12.0117 23.7953 11.4111 23.4581L5.78407 20.339C4.50903 19.633 3.46582 17.8627 3.46582 16.4086V10.4443C3.46582 9.76994 3.69765 9.03231 4.06646 8.35791L13.5924 13.869Z" fill="#38CB89"/>
<path d="M23.7183 10.4443V16.4086C23.7183 17.8627 22.6751 19.633 21.4001 20.339L15.7731 23.4581C15.1724 23.7953 14.3821 23.9639 13.5918 23.9639V13.869L23.1177 8.35791C23.4865 9.03231 23.7183 9.76994 23.7183 10.4443Z" fill="#38CB89"/>
</svg>
