<svg width="305" height="288" viewBox="0 0 305 288" fill="none" xmlns="http://www.w3.org/2000/svg">
<path d="M269.486 144.281C269.486 208.66 217.297 260.849 152.918 260.849C88.5389 260.849 36.3494 208.66 36.3494 144.281C36.3494 79.9018 88.5389 27.7123 152.918 27.7123C217.297 27.7123 269.486 79.9018 269.486 144.281Z" stroke="#D0D5DD" stroke-width="0.835616"/>
<path d="M261.171 99.8475C266.755 113.437 269.854 128.311 269.904 143.902L194.699 144.14L194.699 144.281L194.699 144.421L269.904 144.659C269.854 160.251 266.755 175.124 261.171 188.714L191.609 160.131C191.575 160.213 191.541 160.295 191.507 160.377L260.883 189.409C255.007 203.45 246.471 216.103 235.906 226.736L182.557 173.728C182.494 173.792 182.429 173.856 182.365 173.92L235.373 227.268C224.74 237.834 212.088 246.369 198.046 252.246L169.014 182.87C168.988 182.881 168.962 182.891 168.936 182.902C168.887 182.923 168.838 182.943 168.789 182.963C168.782 182.966 168.775 182.969 168.768 182.972L197.351 252.534C183.761 258.118 168.888 261.217 153.297 261.266L153.058 186.061L152.918 186.062L152.778 186.061L152.539 261.266C136.948 261.217 122.075 258.118 108.485 252.534L137.067 182.971C136.986 182.938 136.904 182.904 136.822 182.87L107.79 252.246C93.7482 246.369 81.096 237.834 70.4628 227.268L123.471 173.92C123.442 173.892 123.414 173.863 123.385 173.835C123.349 173.799 123.314 173.764 123.278 173.728L69.9303 226.736C59.365 216.103 50.8293 203.45 44.9532 189.409L114.329 160.376C114.295 160.295 114.261 160.213 114.227 160.131L44.6651 188.714C39.0811 175.124 35.9816 160.251 35.9322 144.659L111.137 144.421L111.137 144.281L111.137 144.14L35.9322 143.902C35.9816 128.311 39.0811 113.437 44.6651 99.8475L114.227 128.43C114.235 128.411 114.243 128.391 114.252 128.371C114.277 128.309 114.303 128.247 114.329 128.185L44.9532 99.1528C50.8294 85.1111 59.365 72.4588 69.9303 61.8257L123.278 114.834C123.342 114.769 123.406 114.705 123.471 114.641L70.4629 61.2931C81.096 50.7278 93.7483 42.1922 107.79 36.3161L136.822 105.692C136.904 105.658 136.986 105.624 137.067 105.59L108.485 36.028C122.075 30.4439 136.948 27.3445 152.539 27.2951L152.778 102.5L152.918 102.5L153.058 102.5L153.297 27.2951C168.888 27.3445 183.761 30.4439 197.351 36.028L168.768 105.59C168.85 105.624 168.932 105.658 169.014 105.692L198.046 36.3161C212.088 42.1922 224.74 50.7278 235.373 61.2931L182.365 114.641C182.429 114.705 182.494 114.769 182.557 114.834L235.906 61.8257C246.471 72.4588 255.007 85.1111 260.883 99.1528L191.507 128.185C191.541 128.267 191.575 128.348 191.609 128.43L261.171 99.8475Z" stroke="#D0D5DD" stroke-width="150.411" stroke-dasharray="0.84 50.14"/>
<path d="M216.979 27.1521C216.642 27.1521 216.317 27.0949 216.004 26.9807C215.694 26.8637 215.419 26.6897 215.18 26.4584L215.551 25.8791C215.75 26.0858 215.973 26.2395 216.22 26.3401C216.468 26.4408 216.718 26.4911 216.971 26.4911C217.352 26.4911 217.658 26.37 217.889 26.128C218.12 25.8831 218.236 25.5554 218.236 25.1446C218.236 24.791 218.138 24.4959 217.942 24.2592C217.749 24.0226 217.485 23.9043 217.151 23.9043C216.957 23.9043 216.774 23.941 216.6 24.0144C216.428 24.0852 216.302 24.1844 216.22 24.3123L215.486 24.2429L215.502 21.1175H218.689V21.7826H216.216L216.151 23.635C216.271 23.499 216.427 23.397 216.62 23.329C216.816 23.2582 217.023 23.2229 217.24 23.2229C217.768 23.2229 218.199 23.4065 218.534 23.7737C218.868 24.1382 219.036 24.6006 219.036 25.161C219.036 25.7675 218.841 26.2517 218.452 26.6135C218.066 26.9725 217.575 27.1521 216.979 27.1521ZM222.075 27.148C221.64 27.148 221.269 27.0201 220.961 26.7645C220.657 26.5088 220.428 26.1524 220.276 25.6955C220.126 25.2358 220.052 24.6945 220.052 24.0716C220.052 23.095 220.224 22.3416 220.57 21.8111C220.915 21.278 221.418 21.0114 222.079 21.0114C222.732 21.0114 223.226 21.2794 223.56 21.8152C223.895 22.3511 224.062 23.1032 224.062 24.0716C224.062 25.0263 223.894 25.7784 223.556 26.3279C223.219 26.8746 222.725 27.148 222.075 27.148ZM222.088 26.4911C222.865 26.4911 223.254 25.6846 223.254 24.0716C223.254 23.7152 223.233 23.3956 223.189 23.1127C223.148 22.8298 223.083 22.5782 222.993 22.3579C222.904 22.1376 222.781 21.9676 222.626 21.8479C222.474 21.7282 222.293 21.6683 222.083 21.6683C221.866 21.6683 221.677 21.7282 221.516 21.8479C221.356 21.9676 221.228 22.1376 221.133 22.3579C221.038 22.5755 220.967 22.8271 220.921 23.1127C220.874 23.3983 220.851 23.7179 220.851 24.0716C220.851 24.5666 220.891 24.9896 220.97 25.3405C221.051 25.6914 221.186 25.9715 221.374 26.181C221.561 26.3877 221.799 26.4911 222.088 26.4911Z" fill="#47494E"/>
<path d="M273.522 81.1644V80.5523H274.669V76.0642C274.397 76.2138 273.993 76.3879 273.457 76.5864V75.8806C273.658 75.8098 273.891 75.7119 274.155 75.5868C274.421 75.4589 274.65 75.3379 274.84 75.2237H275.452V80.5523H276.529V81.1644H273.522ZM279.928 81.2541C279.493 81.2541 279.121 81.1263 278.814 80.8706C278.509 80.6149 278.281 80.2586 278.129 79.8016C277.979 79.3419 277.904 78.8006 277.904 78.1777C277.904 77.2012 278.077 76.4477 278.422 75.9173C278.768 75.3841 279.271 75.1176 279.932 75.1176C280.585 75.1176 281.079 75.3855 281.413 75.9214C281.748 76.4572 281.915 77.2093 281.915 78.1777C281.915 79.1324 281.746 79.8846 281.409 80.434C281.072 80.9808 280.578 81.2541 279.928 81.2541ZM279.94 80.5972C280.718 80.5972 281.107 79.7907 281.107 78.1777C281.107 77.8214 281.085 77.5017 281.042 77.2189C281.001 76.936 280.936 76.6844 280.846 76.464C280.756 76.2437 280.634 76.0737 280.479 75.954C280.326 75.8343 280.146 75.7745 279.936 75.7745C279.719 75.7745 279.529 75.8343 279.369 75.954C279.209 76.0737 279.081 76.2437 278.985 76.464C278.89 76.6816 278.82 76.9332 278.773 77.2189C278.727 77.5045 278.704 77.8241 278.704 78.1777C278.704 78.6728 278.743 79.0957 278.822 79.4466C278.904 79.7975 279.039 80.0777 279.226 80.2871C279.414 80.4939 279.652 80.5972 279.94 80.5972ZM284.955 81.2541C284.52 81.2541 284.148 81.1263 283.841 80.8706C283.536 80.6149 283.308 80.2586 283.155 79.8016C283.006 79.3419 282.931 78.8006 282.931 78.1777C282.931 77.2012 283.104 76.4477 283.449 75.9173C283.795 75.3841 284.298 75.1176 284.959 75.1176C285.612 75.1176 286.105 75.3855 286.44 75.9214C286.774 76.4572 286.942 77.2093 286.942 78.1777C286.942 79.1324 286.773 79.8846 286.436 80.434C286.099 80.9808 285.605 81.2541 284.955 81.2541ZM284.967 80.5972C285.745 80.5972 286.134 79.7907 286.134 78.1777C286.134 77.8214 286.112 77.5017 286.069 77.2189C286.028 76.936 285.963 76.6844 285.873 76.464C285.783 76.2437 285.661 76.0737 285.506 75.954C285.353 75.8343 285.172 75.7745 284.963 75.7745C284.745 75.7745 284.556 75.8343 284.396 75.954C284.235 76.0737 284.107 76.2437 284.012 76.464C283.917 76.6816 283.846 76.9332 283.8 77.2189C283.754 77.5045 283.731 77.8241 283.731 78.1777C283.731 78.6728 283.77 79.0957 283.849 79.4466C283.931 79.7975 284.065 80.0777 284.253 80.2871C284.441 80.4939 284.679 80.5972 284.967 80.5972Z" fill="#47494E"/>
<path d="M277.716 205.265C277.936 205.265 278.143 205.293 278.336 205.351C278.529 205.405 278.699 205.485 278.846 205.591C278.996 205.697 279.124 205.824 279.23 205.971C279.336 206.115 279.416 206.278 279.47 206.46C279.525 206.643 279.552 206.837 279.552 207.044C279.552 207.245 279.526 207.44 279.474 207.627C279.423 207.812 279.342 207.997 279.234 208.182C279.128 208.364 279.008 208.54 278.875 208.709C278.741 208.874 278.577 209.061 278.381 209.267L277.059 210.667H279.527V211.312H276.125V210.7L277.932 208.782C278.242 208.453 278.463 208.159 278.593 207.901C278.726 207.642 278.793 207.377 278.793 207.105C278.793 206.743 278.695 206.456 278.499 206.244C278.306 206.032 278.03 205.926 277.671 205.926C277.554 205.926 277.433 205.938 277.308 205.963C277.185 205.984 277.077 206.012 276.981 206.044C276.886 206.074 276.788 206.112 276.688 206.158C276.587 206.202 276.508 206.24 276.451 206.273C276.397 206.303 276.34 206.335 276.28 206.371C276.223 206.406 276.193 206.424 276.19 206.424L275.937 205.816C275.94 205.816 275.965 205.801 276.014 205.771C276.063 205.738 276.112 205.708 276.161 205.681C276.213 205.654 276.281 205.62 276.365 205.579C276.45 205.536 276.539 205.497 276.635 205.465C276.73 205.429 276.833 205.397 276.945 205.367C277.059 205.334 277.181 205.31 277.312 205.293C277.445 205.274 277.58 205.265 277.716 205.265ZM282.853 211.401C282.418 211.401 282.046 211.274 281.739 211.018C281.434 210.762 281.206 210.406 281.053 209.949C280.904 209.489 280.829 208.948 280.829 208.325C280.829 207.348 281.002 206.595 281.347 206.065C281.693 205.531 282.196 205.265 282.857 205.265C283.51 205.265 284.003 205.533 284.338 206.069C284.673 206.605 284.84 207.357 284.84 208.325C284.84 209.28 284.671 210.032 284.334 210.581C283.997 211.128 283.503 211.401 282.853 211.401ZM282.865 210.745C283.643 210.745 284.032 209.938 284.032 208.325C284.032 207.969 284.01 207.649 283.967 207.366C283.926 207.083 283.861 206.832 283.771 206.611C283.681 206.391 283.559 206.221 283.404 206.101C283.251 205.982 283.07 205.922 282.861 205.922C282.643 205.922 282.454 205.982 282.294 206.101C282.133 206.221 282.005 206.391 281.91 206.611C281.815 206.829 281.744 207.081 281.698 207.366C281.652 207.652 281.629 207.971 281.629 208.325C281.629 208.82 281.668 209.243 281.747 209.594C281.829 209.945 281.963 210.225 282.151 210.434C282.339 210.641 282.577 210.745 282.865 210.745ZM287.88 211.401C287.444 211.401 287.073 211.274 286.766 211.018C286.461 210.762 286.233 210.406 286.08 209.949C285.931 209.489 285.856 208.948 285.856 208.325C285.856 207.348 286.029 206.595 286.374 206.065C286.719 205.531 287.223 205.265 287.884 205.265C288.536 205.265 289.03 205.533 289.365 206.069C289.699 206.605 289.867 207.357 289.867 208.325C289.867 209.28 289.698 210.032 289.361 210.581C289.023 211.128 288.53 211.401 287.88 211.401ZM287.892 210.745C288.67 210.745 289.059 209.938 289.059 208.325C289.059 207.969 289.037 207.649 288.993 207.366C288.953 207.083 288.887 206.832 288.798 206.611C288.708 206.391 288.585 206.221 288.43 206.101C288.278 205.982 288.097 205.922 287.888 205.922C287.67 205.922 287.481 205.982 287.321 206.101C287.16 206.221 287.032 206.391 286.937 206.611C286.842 206.829 286.771 207.081 286.725 207.366C286.679 207.652 286.656 207.971 286.656 208.325C286.656 208.82 286.695 209.243 286.774 209.594C286.855 209.945 286.99 210.225 287.178 210.434C287.365 210.641 287.603 210.745 287.892 210.745Z" fill="#47494E"/>
<path d="M216.298 262.296C216.518 262.296 216.725 262.324 216.918 262.381C217.111 262.436 217.281 262.516 217.428 262.622C217.578 262.728 217.706 262.855 217.812 263.002C217.918 263.146 217.998 263.309 218.052 263.491C218.107 263.673 218.134 263.868 218.134 264.075C218.134 264.276 218.108 264.47 218.056 264.658C218.005 264.843 217.925 265.028 217.816 265.213C217.71 265.395 217.59 265.571 217.457 265.739C217.323 265.905 217.159 266.092 216.963 266.298L215.641 267.698H218.109V268.342H214.707V267.73L216.514 265.813C216.824 265.484 217.045 265.19 217.175 264.931C217.308 264.673 217.375 264.408 217.375 264.136C217.375 263.774 217.277 263.487 217.081 263.275C216.888 263.063 216.612 262.957 216.253 262.957C216.136 262.957 216.015 262.969 215.89 262.993C215.767 263.015 215.659 263.042 215.563 263.075C215.468 263.105 215.37 263.143 215.27 263.189C215.169 263.233 215.09 263.271 215.033 263.303C214.979 263.333 214.922 263.366 214.862 263.401C214.805 263.437 214.775 263.454 214.772 263.454L214.519 262.846C214.522 262.846 214.548 262.832 214.596 262.802C214.645 262.769 214.694 262.739 214.743 262.712C214.795 262.685 214.863 262.651 214.947 262.61C215.032 262.566 215.121 262.528 215.217 262.496C215.312 262.46 215.415 262.428 215.527 262.398C215.641 262.365 215.763 262.341 215.894 262.324C216.027 262.305 216.162 262.296 216.298 262.296ZM221.365 268.436C221.028 268.436 220.703 268.379 220.39 268.265C220.08 268.148 219.805 267.974 219.566 267.743L219.937 267.163C220.136 267.37 220.359 267.524 220.607 267.624C220.854 267.725 221.104 267.775 221.357 267.775C221.738 267.775 222.044 267.654 222.275 267.412C222.507 267.167 222.622 266.84 222.622 266.429C222.622 266.075 222.524 265.78 222.328 265.543C222.135 265.307 221.871 265.188 221.537 265.188C221.344 265.188 221.16 265.225 220.986 265.299C220.815 265.369 220.688 265.469 220.607 265.596L219.872 265.527L219.888 262.402H223.075V263.067H220.602L220.537 264.919C220.657 264.783 220.813 264.681 221.006 264.613C221.202 264.542 221.409 264.507 221.627 264.507C222.154 264.507 222.585 264.691 222.92 265.058C223.255 265.422 223.422 265.885 223.422 266.445C223.422 267.052 223.227 267.536 222.838 267.898C222.452 268.257 221.961 268.436 221.365 268.436ZM226.462 268.432C226.026 268.432 225.655 268.304 225.348 268.049C225.043 267.793 224.815 267.437 224.662 266.98C224.513 266.52 224.438 265.979 224.438 265.356C224.438 264.379 224.611 263.626 224.956 263.095C225.301 262.562 225.805 262.296 226.466 262.296C227.118 262.296 227.612 262.564 227.947 263.099C228.281 263.635 228.449 264.387 228.449 265.356C228.449 266.311 228.28 267.063 227.943 267.612C227.605 268.159 227.112 268.432 226.462 268.432ZM226.474 267.775C227.252 267.775 227.641 266.969 227.641 265.356C227.641 264.999 227.619 264.68 227.575 264.397C227.535 264.114 227.469 263.862 227.38 263.642C227.29 263.422 227.167 263.252 227.012 263.132C226.86 263.012 226.679 262.953 226.47 262.953C226.252 262.953 226.063 263.012 225.903 263.132C225.742 263.252 225.614 263.422 225.519 263.642C225.424 263.86 225.353 264.111 225.307 264.397C225.261 264.683 225.238 265.002 225.238 265.356C225.238 265.851 225.277 266.274 225.356 266.625C225.437 266.976 225.572 267.256 225.76 267.465C225.947 267.672 226.185 267.775 226.474 267.775Z" fill="#47494E"/>
<path d="M85.2706 268.432C85.0584 268.432 84.8517 268.413 84.6504 268.375C84.4491 268.34 84.275 268.295 84.1282 268.24C83.984 268.183 83.8752 268.138 83.8017 268.106C83.731 268.07 83.6725 268.039 83.6263 268.012L83.8425 267.416C84.3322 267.656 84.7851 267.775 85.2012 267.775C85.6011 267.775 85.918 267.676 86.1519 267.477C86.3886 267.279 86.5069 267.01 86.5069 266.67C86.5069 266.485 86.4715 266.321 86.4008 266.18C86.3301 266.036 86.2267 265.919 86.0907 265.829C85.9547 265.739 85.7915 265.671 85.6011 265.625C85.4107 265.579 85.1944 265.556 84.9524 265.556C84.9415 265.556 84.9306 265.556 84.9197 265.556L84.6055 265.56L84.5974 264.895H84.9034C85.4012 264.895 85.7684 264.813 86.005 264.65C86.2444 264.484 86.3641 264.209 86.3641 263.826C86.3641 263.551 86.2498 263.337 86.0214 263.185C85.7956 263.03 85.5168 262.953 85.1849 262.953C84.6382 262.953 84.1771 263.132 83.8017 263.491L83.4427 262.969C83.6712 262.74 83.9323 262.572 84.2261 262.463C84.5199 262.351 84.8694 262.296 85.2747 262.296C85.6065 262.296 85.9112 262.353 86.1886 262.467C86.4661 262.579 86.6919 262.753 86.8659 262.989C87.0428 263.223 87.1312 263.499 87.1312 263.818C87.1312 264.158 87.036 264.457 86.8455 264.715C86.6551 264.971 86.3831 265.137 86.0295 265.213C86.4185 265.286 86.7231 265.458 86.9435 265.727C87.1665 265.994 87.278 266.317 87.278 266.698C87.278 267.049 87.1883 267.358 87.0087 267.624C86.8319 267.891 86.5926 268.092 86.2906 268.228C85.9887 268.364 85.6487 268.432 85.2706 268.432ZM90.383 268.436C90.0457 268.436 89.7207 268.379 89.4079 268.265C89.0978 268.148 88.8231 267.974 88.5837 267.743L88.955 267.163C89.1536 267.37 89.3766 267.524 89.6241 267.624C89.8717 267.725 90.1219 267.775 90.3749 267.775C90.7557 267.775 91.0617 267.654 91.2929 267.412C91.5241 267.167 91.6397 266.84 91.6397 266.429C91.6397 266.075 91.5418 265.78 91.346 265.543C91.1528 265.307 90.889 265.188 90.5544 265.188C90.3613 265.188 90.1777 265.225 90.0036 265.299C89.8322 265.369 89.7057 265.469 89.6241 265.596L88.8897 265.527L88.906 262.402H92.0926V263.067H89.6201L89.5548 264.919C89.6745 264.783 89.8309 264.681 90.024 264.613C90.2198 264.542 90.4266 264.507 90.6442 264.507C91.1719 264.507 91.603 264.691 91.9376 265.058C92.2722 265.422 92.4394 265.885 92.4394 266.445C92.4394 267.052 92.245 267.536 91.856 267.898C91.4697 268.257 90.9787 268.436 90.383 268.436ZM95.4792 268.432C95.0439 268.432 94.6726 268.304 94.3653 268.049C94.0606 267.793 93.8321 267.437 93.6798 266.98C93.5302 266.52 93.4554 265.979 93.4554 265.356C93.4554 264.379 93.6281 263.626 93.9736 263.095C94.319 262.562 94.8223 262.296 95.4832 262.296C96.1361 262.296 96.6298 262.564 96.9643 263.099C97.2989 263.635 97.4662 264.387 97.4662 265.356C97.4662 266.311 97.2975 267.063 96.9603 267.612C96.623 268.159 96.1293 268.432 95.4792 268.432ZM95.4914 267.775C96.2693 267.775 96.6583 266.969 96.6583 265.356C96.6583 264.999 96.6366 264.68 96.593 264.397C96.5522 264.114 96.487 263.862 96.3972 263.642C96.3074 263.422 96.185 263.252 96.03 263.132C95.8777 263.012 95.6968 262.953 95.4873 262.953C95.2697 262.953 95.0807 263.012 94.9202 263.132C94.7597 263.252 94.6318 263.422 94.5366 263.642C94.4414 263.86 94.3707 264.111 94.3245 264.397C94.2782 264.683 94.2551 265.002 94.2551 265.356C94.2551 265.851 94.2946 266.274 94.3734 266.625C94.455 266.976 94.5897 267.256 94.7774 267.465C94.9651 267.672 95.2031 267.775 95.4914 267.775Z" fill="#47494E"/>
<path d="M31.4968 209.161H33.3166V206.122C33.1398 206.432 32.9562 206.747 32.7658 207.068C32.5754 207.387 32.3401 207.776 32.0599 208.235C31.7825 208.692 31.5948 209.001 31.4968 209.161ZM33.3207 211.312V209.741H30.6808V209.219L33.1167 205.371H34.0714V209.161H34.9568V209.741H34.0673V211.312H33.3207ZM37.8088 211.401C37.3736 211.401 37.0023 211.274 36.695 211.018C36.3903 210.762 36.1618 210.406 36.0095 209.949C35.8599 209.489 35.7851 208.948 35.7851 208.325C35.7851 207.348 35.9578 206.595 36.3033 206.065C36.6487 205.531 37.1519 205.265 37.8129 205.265C38.4658 205.265 38.9595 205.533 39.294 206.069C39.6286 206.605 39.7959 207.357 39.7959 208.325C39.7959 209.28 39.6272 210.032 39.2899 210.581C38.9527 211.128 38.459 211.401 37.8088 211.401ZM37.8211 210.745C38.599 210.745 38.988 209.938 38.988 208.325C38.988 207.969 38.9663 207.649 38.9227 207.366C38.8819 207.083 38.8166 206.832 38.7269 206.611C38.6371 206.391 38.5147 206.221 38.3597 206.101C38.2073 205.982 38.0265 205.922 37.817 205.922C37.5994 205.922 37.4104 205.982 37.2499 206.101C37.0894 206.221 36.9615 206.391 36.8663 206.611C36.7711 206.829 36.7004 207.081 36.6542 207.366C36.6079 207.652 36.5848 207.971 36.5848 208.325C36.5848 208.82 36.6242 209.243 36.7031 209.594C36.7847 209.945 36.9194 210.225 37.1071 210.434C37.2947 210.641 37.5328 210.745 37.8211 210.745ZM42.8356 211.401C42.4004 211.401 42.0291 211.274 41.7217 211.018C41.4171 210.762 41.1886 210.406 41.0363 209.949C40.8866 209.489 40.8118 208.948 40.8118 208.325C40.8118 207.348 40.9846 206.595 41.33 206.065C41.6755 205.531 42.1787 205.265 42.8397 205.265C43.4925 205.265 43.9862 205.533 44.3208 206.069C44.6554 206.605 44.8226 207.357 44.8226 208.325C44.8226 209.28 44.654 210.032 44.3167 210.581C43.9794 211.128 43.4857 211.401 42.8356 211.401ZM42.8478 210.745C43.6258 210.745 44.0148 209.938 44.0148 208.325C44.0148 207.969 43.993 207.649 43.9495 207.366C43.9087 207.083 43.8434 206.832 43.7536 206.611C43.6639 206.391 43.5415 206.221 43.3864 206.101C43.2341 205.982 43.0532 205.922 42.8438 205.922C42.6262 205.922 42.4371 205.982 42.2766 206.101C42.1161 206.221 41.9883 206.391 41.8931 206.611C41.7979 206.829 41.7272 207.081 41.6809 207.366C41.6347 207.652 41.6116 207.971 41.6116 208.325C41.6116 208.82 41.651 209.243 41.7299 209.594C41.8115 209.945 41.9461 210.225 42.1338 210.434C42.3215 210.641 42.5595 210.745 42.8478 210.745Z" fill="#47494E"/>
<path d="M147.524 283.055C147.311 283.055 147.105 283.036 146.903 282.998C146.702 282.963 146.528 282.918 146.381 282.864C146.237 282.807 146.128 282.762 146.055 282.729C145.984 282.694 145.925 282.662 145.879 282.635L146.095 282.04C146.585 282.279 147.038 282.399 147.454 282.399C147.854 282.399 148.171 282.299 148.405 282.101C148.641 281.902 148.76 281.633 148.76 281.293C148.76 281.108 148.724 280.945 148.654 280.803C148.583 280.659 148.48 280.542 148.344 280.452C148.208 280.363 148.044 280.295 147.854 280.248C147.664 280.202 147.447 280.179 147.205 280.179C147.194 280.179 147.184 280.179 147.173 280.179L146.858 280.183L146.85 279.518H147.156C147.654 279.518 148.021 279.436 148.258 279.273C148.497 279.107 148.617 278.833 148.617 278.449C148.617 278.174 148.503 277.961 148.274 277.808C148.049 277.653 147.77 277.576 147.438 277.576C146.891 277.576 146.43 277.755 146.055 278.114L145.696 277.592C145.924 277.364 146.185 277.195 146.479 277.086C146.773 276.975 147.122 276.919 147.528 276.919C147.859 276.919 148.164 276.976 148.442 277.09C148.719 277.202 148.945 277.376 149.119 277.613C149.296 277.846 149.384 278.123 149.384 278.441C149.384 278.781 149.289 279.08 149.098 279.338C148.908 279.594 148.636 279.76 148.282 279.836C148.671 279.91 148.976 280.081 149.196 280.35C149.419 280.617 149.531 280.941 149.531 281.321C149.531 281.672 149.441 281.981 149.262 282.248C149.085 282.514 148.846 282.715 148.544 282.851C148.242 282.987 147.902 283.055 147.524 283.055ZM152.705 283.055C152.27 283.055 151.899 282.928 151.591 282.672C151.287 282.416 151.058 282.06 150.906 281.603C150.756 281.143 150.682 280.602 150.682 279.979C150.682 279.003 150.854 278.249 151.2 277.719C151.545 277.186 152.048 276.919 152.709 276.919C153.362 276.919 153.856 277.187 154.191 277.723C154.525 278.259 154.692 279.011 154.692 279.979C154.692 280.934 154.524 281.686 154.186 282.235C153.849 282.782 153.355 283.055 152.705 283.055ZM152.718 282.399C153.496 282.399 153.884 281.592 153.884 279.979C153.884 279.623 153.863 279.303 153.819 279.02C153.778 278.737 153.713 278.486 153.623 278.265C153.534 278.045 153.411 277.875 153.256 277.755C153.104 277.636 152.923 277.576 152.713 277.576C152.496 277.576 152.307 277.636 152.146 277.755C151.986 277.875 151.858 278.045 151.763 278.265C151.668 278.483 151.597 278.735 151.551 279.02C151.504 279.306 151.481 279.625 151.481 279.979C151.481 280.474 151.521 280.897 151.6 281.248C151.681 281.599 151.816 281.879 152.004 282.088C152.191 282.295 152.429 282.399 152.718 282.399ZM157.732 283.055C157.297 283.055 156.926 282.928 156.618 282.672C156.314 282.416 156.085 282.06 155.933 281.603C155.783 281.143 155.708 280.602 155.708 279.979C155.708 279.003 155.881 278.249 156.227 277.719C156.572 277.186 157.075 276.919 157.736 276.919C158.389 276.919 158.883 277.187 159.217 277.723C159.552 278.259 159.719 279.011 159.719 279.979C159.719 280.934 159.55 281.686 159.213 282.235C158.876 282.782 158.382 283.055 157.732 283.055ZM157.744 282.399C158.522 282.399 158.911 281.592 158.911 279.979C158.911 279.623 158.889 279.303 158.846 279.02C158.805 278.737 158.74 278.486 158.65 278.265C158.56 278.045 158.438 277.875 158.283 277.755C158.131 277.636 157.95 277.576 157.74 277.576C157.523 277.576 157.334 277.636 157.173 277.755C157.013 277.875 156.885 278.045 156.79 278.265C156.694 278.483 156.624 278.735 156.577 279.02C156.531 279.306 156.508 279.625 156.508 279.979C156.508 280.474 156.547 280.897 156.626 281.248C156.708 281.599 156.843 281.879 157.03 282.088C157.218 282.295 157.456 282.399 157.744 282.399Z" fill="#47494E"/>
<path d="M12.4861 144.819H14.3059V141.779C14.129 142.089 13.9454 142.405 13.755 142.726C13.5646 143.044 13.3293 143.433 13.0492 143.893C12.7717 144.35 12.584 144.658 12.4861 144.819ZM14.3099 146.969V145.398H11.6701V144.876L14.1059 141.028H15.0607V144.819H15.9461V145.398H15.0566V146.969H14.3099ZM18.7287 147.063C18.3915 147.063 18.0664 147.006 17.7536 146.892C17.4435 146.775 17.1688 146.601 16.9294 146.369L17.3007 145.79C17.4993 145.997 17.7223 146.15 17.9698 146.251C18.2174 146.352 18.4676 146.402 18.7206 146.402C19.1014 146.402 19.4074 146.281 19.6386 146.039C19.8698 145.794 19.9854 145.466 19.9854 145.056C19.9854 144.702 19.8875 144.407 19.6917 144.17C19.4985 143.934 19.2347 143.815 18.9001 143.815C18.707 143.815 18.5234 143.852 18.3493 143.925C18.1779 143.996 18.0514 144.095 17.9698 144.223L17.2354 144.154L17.2517 141.028H20.4383V141.694H17.9658L17.9005 143.546C18.0202 143.41 18.1766 143.308 18.3697 143.24C18.5655 143.169 18.7723 143.134 18.9899 143.134C19.5176 143.134 19.9487 143.317 20.2833 143.685C20.6179 144.049 20.7851 144.512 20.7851 145.072C20.7851 145.678 20.5907 146.163 20.2017 146.524C19.8154 146.883 19.3244 147.063 18.7287 147.063ZM23.8249 147.059C23.3896 147.059 23.0183 146.931 22.711 146.675C22.4063 146.42 22.1778 146.063 22.0255 145.606C21.8759 145.147 21.8011 144.605 21.8011 143.983C21.8011 143.006 21.9738 142.253 22.3193 141.722C22.6647 141.189 23.168 140.922 23.8289 140.922C24.4818 140.922 24.9755 141.19 25.31 141.726C25.6446 142.262 25.8119 143.014 25.8119 143.983C25.8119 144.937 25.6433 145.689 25.306 146.239C24.9687 146.786 24.475 147.059 23.8249 147.059ZM23.8371 146.402C24.6151 146.402 25.004 145.596 25.004 143.983C25.004 143.626 24.9823 143.307 24.9387 143.024C24.8979 142.741 24.8327 142.489 24.7429 142.269C24.6531 142.049 24.5307 141.878 24.3757 141.759C24.2234 141.639 24.0425 141.579 23.833 141.579C23.6154 141.579 23.4264 141.639 23.2659 141.759C23.1054 141.878 22.9775 142.049 22.8823 142.269C22.7871 142.486 22.7164 142.738 22.6702 143.024C22.6239 143.309 22.6008 143.629 22.6008 143.983C22.6008 144.478 22.6403 144.901 22.7191 145.251C22.8007 145.602 22.9354 145.882 23.1231 146.092C23.3108 146.299 23.5488 146.402 23.8371 146.402Z" fill="#47494E"/>
<path d="M28.325 81.2582C27.9877 81.2582 27.6627 81.2011 27.3499 81.0868C27.0398 80.9699 26.7651 80.7958 26.5257 80.5646L26.897 79.9852C27.0955 80.1919 27.3186 80.3456 27.5661 80.4463C27.8137 80.5469 28.0639 80.5972 28.3169 80.5972C28.6977 80.5972 29.0037 80.4762 29.2349 80.2341C29.4661 79.9893 29.5817 79.6615 29.5817 79.2508C29.5817 78.8972 29.4838 78.602 29.288 78.3654C29.0948 78.1287 28.831 78.0104 28.4964 78.0104C28.3033 78.0104 28.1197 78.0471 27.9456 78.1206C27.7742 78.1913 27.6477 78.2906 27.5661 78.4184L26.8317 78.3491L26.848 75.2237H30.0346V75.8887H27.562L27.4968 77.7411C27.6164 77.6051 27.7729 77.5031 27.966 77.4351C28.1618 77.3644 28.3686 77.329 28.5862 77.329C29.1139 77.329 29.545 77.5126 29.8796 77.8798C30.2141 78.2443 30.3814 78.7068 30.3814 79.2671C30.3814 79.8737 30.1869 80.3579 29.798 80.7196C29.4117 81.0787 28.9207 81.2582 28.325 81.2582ZM33.4212 81.2541C32.9859 81.2541 32.6146 81.1263 32.3073 80.8706C32.0026 80.6149 31.7741 80.2586 31.6218 79.8016C31.4722 79.3419 31.3974 78.8006 31.3974 78.1777C31.3974 77.2012 31.5701 76.4477 31.9156 75.9173C32.261 75.3841 32.7642 75.1176 33.4252 75.1176C34.0781 75.1176 34.5718 75.3855 34.9063 75.9214C35.2409 76.4572 35.4082 77.2093 35.4082 78.1777C35.4082 79.1324 35.2395 79.8846 34.9023 80.434C34.565 80.9808 34.0713 81.2541 33.4212 81.2541ZM33.4334 80.5972C34.2113 80.5972 34.6003 79.7907 34.6003 78.1777C34.6003 77.8214 34.5786 77.5017 34.535 77.2189C34.4942 76.936 34.429 76.6844 34.3392 76.464C34.2494 76.2437 34.127 76.0737 33.972 75.954C33.8196 75.8343 33.6388 75.7745 33.4293 75.7745C33.2117 75.7745 33.0227 75.8343 32.8622 75.954C32.7017 76.0737 32.5738 76.2437 32.4786 76.464C32.3834 76.6816 32.3127 76.9332 32.2665 77.2189C32.2202 77.5045 32.1971 77.8241 32.1971 78.1777C32.1971 78.6728 32.2365 79.0957 32.3154 79.4466C32.397 79.7975 32.5317 80.0777 32.7194 80.2871C32.9071 80.4939 33.1451 80.5972 33.4334 80.5972ZM38.4479 81.2541C38.0127 81.2541 37.6414 81.1263 37.334 80.8706C37.0294 80.6149 36.8009 80.2586 36.6486 79.8016C36.499 79.3419 36.4241 78.8006 36.4241 78.1777C36.4241 77.2012 36.5969 76.4477 36.9423 75.9173C37.2878 75.3841 37.791 75.1176 38.452 75.1176C39.1048 75.1176 39.5985 75.3855 39.9331 75.9214C40.2677 76.4572 40.4349 77.2093 40.4349 78.1777C40.4349 79.1324 40.2663 79.8846 39.929 80.434C39.5917 80.9808 39.098 81.2541 38.4479 81.2541ZM38.4601 80.5972C39.2381 80.5972 39.6271 79.7907 39.6271 78.1777C39.6271 77.8214 39.6053 77.5017 39.5618 77.2189C39.521 76.936 39.4557 76.6844 39.3659 76.464C39.2762 76.2437 39.1538 76.0737 38.9987 75.954C38.8464 75.8343 38.6655 75.7745 38.4561 75.7745C38.2385 75.7745 38.0494 75.8343 37.8889 75.954C37.7284 76.0737 37.6006 76.2437 37.5054 76.464C37.4102 76.6816 37.3395 76.9332 37.2932 77.2189C37.247 77.5045 37.2239 77.8241 37.2239 78.1777C37.2239 78.6728 37.2633 79.0957 37.3422 79.4466C37.4238 79.7975 37.5584 80.0777 37.7461 80.2871C37.9338 80.4939 38.1718 80.5972 38.4601 80.5972Z" fill="#47494E"/>
<path d="M81.8045 30.0767C81.4672 30.0767 81.1422 30.0196 80.8294 29.9053C80.5193 29.7884 80.2445 29.6143 80.0052 29.3831L80.3765 28.8037C80.575 29.0104 80.7981 29.1641 81.0456 29.2647C81.2931 29.3654 81.5434 29.4157 81.7964 29.4157C82.1772 29.4157 82.4832 29.2947 82.7144 29.0526C82.9456 28.8078 83.0612 28.48 83.0612 28.0693C83.0612 27.7156 82.9633 27.4205 82.7674 27.1839C82.5743 26.9472 82.3105 26.8289 81.9759 26.8289C81.7828 26.8289 81.5992 26.8656 81.4251 26.9391C81.2537 27.0098 81.1272 27.1091 81.0456 27.2369L80.3112 27.1675L80.3275 24.0421H83.5141V24.7072H81.0415L80.9763 26.5596C81.0959 26.4236 81.2523 26.3216 81.4455 26.2536C81.6413 26.1829 81.848 26.1475 82.0657 26.1475C82.5934 26.1475 83.0245 26.3311 83.3591 26.6983C83.6936 27.0628 83.8609 27.5252 83.8609 28.0856C83.8609 28.6922 83.6664 29.1763 83.2775 29.5381C82.8912 29.8972 82.4002 30.0767 81.8045 30.0767ZM86.8313 30.0767C86.494 30.0767 86.1689 30.0196 85.8561 29.9053C85.546 29.7884 85.2713 29.6143 85.0319 29.3831L85.4032 28.8037C85.6018 29.0104 85.8248 29.1641 86.0724 29.2647C86.3199 29.3654 86.5702 29.4157 86.8231 29.4157C87.2039 29.4157 87.5099 29.2947 87.7412 29.0526C87.9724 28.8078 88.088 28.48 88.088 28.0693C88.088 27.7156 87.99 27.4205 87.7942 27.1839C87.6011 26.9472 87.3372 26.8289 87.0026 26.8289C86.8095 26.8289 86.6259 26.8656 86.4518 26.9391C86.2805 27.0098 86.154 27.1091 86.0724 27.2369L85.3379 27.1675L85.3543 24.0421H88.5409V24.7072H86.0683L86.003 26.5596C86.1227 26.4236 86.2791 26.3216 86.4722 26.2536C86.6681 26.1829 86.8748 26.1475 87.0924 26.1475C87.6201 26.1475 88.0512 26.3311 88.3858 26.6983C88.7204 27.0628 88.8877 27.5252 88.8877 28.0856C88.8877 28.6922 88.6932 29.1763 88.3042 29.5381C87.918 29.8972 87.427 30.0767 86.8313 30.0767ZM91.9274 30.0726C91.4922 30.0726 91.1209 29.9448 90.8135 29.6891C90.5089 29.4334 90.2804 29.0771 90.128 28.6201C89.9784 28.1604 89.9036 27.6191 89.9036 26.9962C89.9036 26.0197 90.0764 25.2662 90.4218 24.7358C90.7673 24.2026 91.2705 23.9361 91.9315 23.9361C92.5843 23.9361 93.078 24.204 93.4126 24.7398C93.7471 25.2757 93.9144 26.0278 93.9144 26.9962C93.9144 27.9509 93.7458 28.703 93.4085 29.2525C93.0712 29.7992 92.5775 30.0726 91.9274 30.0726ZM91.9396 29.4157C92.7176 29.4157 93.1066 28.6092 93.1066 26.9962C93.1066 26.6398 93.0848 26.3202 93.0413 26.0373C93.0005 25.7544 92.9352 25.5028 92.8454 25.2825C92.7557 25.0622 92.6333 24.8922 92.4782 24.7725C92.3259 24.6528 92.145 24.593 91.9356 24.593C91.718 24.593 91.5289 24.6528 91.3684 24.7725C91.2079 24.8922 91.0801 25.0622 90.9849 25.2825C90.8897 25.5001 90.819 25.7517 90.7727 26.0373C90.7265 26.3229 90.7034 26.6426 90.7034 26.9962C90.7034 27.4912 90.7428 27.9142 90.8217 28.2651C90.9033 28.616 91.0379 28.8962 91.2256 29.1056C91.4133 29.3123 91.6513 29.4157 91.9396 29.4157Z" fill="#47494E"/>
<path d="M291.07 146.969V146.357H292.217V141.869C291.945 142.019 291.541 142.193 291.005 142.391V141.685C291.206 141.615 291.439 141.517 291.702 141.392C291.969 141.264 292.197 141.143 292.388 141.028H293V146.357H294.077V146.969H291.07ZM297.406 147.063C297.069 147.063 296.744 147.006 296.431 146.892C296.121 146.775 295.846 146.601 295.607 146.369L295.978 145.79C296.177 145.997 296.4 146.15 296.648 146.251C296.895 146.352 297.145 146.402 297.398 146.402C297.779 146.402 298.085 146.281 298.316 146.039C298.548 145.794 298.663 145.466 298.663 145.056C298.663 144.702 298.565 144.407 298.369 144.17C298.176 143.934 297.912 143.815 297.578 143.815C297.385 143.815 297.201 143.852 297.027 143.925C296.856 143.996 296.729 144.095 296.648 144.223L295.913 144.154L295.929 141.028H299.116V141.694H296.643L296.578 143.546C296.698 143.41 296.854 143.308 297.047 143.24C297.243 143.169 297.45 143.134 297.668 143.134C298.195 143.134 298.626 143.317 298.961 143.685C299.296 144.049 299.463 144.512 299.463 145.072C299.463 145.678 299.268 146.163 298.879 146.524C298.493 146.883 298.002 147.063 297.406 147.063ZM302.503 147.059C302.067 147.059 301.696 146.931 301.389 146.675C301.084 146.42 300.856 146.063 300.703 145.606C300.554 145.147 300.479 144.605 300.479 143.983C300.479 143.006 300.652 142.253 300.997 141.722C301.342 141.189 301.846 140.922 302.507 140.922C303.16 140.922 303.653 141.19 303.988 141.726C304.322 142.262 304.49 143.014 304.49 143.983C304.49 144.937 304.321 145.689 303.984 146.239C303.646 146.786 303.153 147.059 302.503 147.059ZM302.515 146.402C303.293 146.402 303.682 145.596 303.682 143.983C303.682 143.626 303.66 143.307 303.616 143.024C303.576 142.741 303.51 142.489 303.421 142.269C303.331 142.049 303.208 141.878 303.053 141.759C302.901 141.639 302.72 141.579 302.511 141.579C302.293 141.579 302.104 141.639 301.944 141.759C301.783 141.878 301.655 142.049 301.56 142.269C301.465 142.486 301.394 142.738 301.348 143.024C301.302 143.309 301.279 143.629 301.279 143.983C301.279 144.478 301.318 144.901 301.397 145.251C301.478 145.602 301.613 145.882 301.801 146.092C301.988 146.299 302.227 146.402 302.515 146.402Z" fill="#47494E"/>
<path d="M154.808 11.0624C154.373 11.0624 154.001 10.9345 153.694 10.6788C153.389 10.4231 153.161 10.0668 153.008 9.60982C152.859 9.15012 152.784 8.60882 152.784 7.98592C152.784 7.0094 152.957 6.25593 153.302 5.72551C153.648 5.19237 154.151 4.9258 154.812 4.9258C155.465 4.9258 155.958 5.19373 156.293 5.72959C156.628 6.26545 156.795 7.01756 156.795 7.98592C156.795 8.94068 156.626 9.69279 156.289 10.2422C155.952 10.789 155.458 11.0624 154.808 11.0624ZM154.82 10.4055C155.598 10.4055 155.987 9.59894 155.987 7.98592C155.987 7.62959 155.965 7.30997 155.922 7.02708C155.881 6.74419 155.816 6.49258 155.726 6.27225C155.636 6.05192 155.514 5.88192 155.359 5.76223C155.206 5.64255 155.025 5.58271 154.816 5.58271C154.598 5.58271 154.409 5.64255 154.249 5.76223C154.088 5.88192 153.96 6.05192 153.865 6.27225C153.77 6.48986 153.699 6.74147 153.653 7.02708C153.607 7.31269 153.584 7.63231 153.584 7.98592C153.584 8.48098 153.623 8.90396 153.702 9.25485C153.784 9.60574 153.918 9.88591 154.106 10.0954C154.294 10.3021 154.532 10.4055 154.82 10.4055Z" fill="#47494E"/>
<path d="M157.72 28.0737C184.494 28.4433 210.331 37.9863 230.916 55.1093C251.502 72.2322 265.591 95.8988 270.83 122.157C276.07 148.416 272.143 175.677 259.705 199.389C247.267 223.102 227.072 241.83 202.49 252.446C177.909 263.063 150.429 264.926 124.64 257.724C98.8502 250.522 76.3118 234.691 60.7876 212.874C45.2635 191.058 37.6932 164.576 39.3408 137.85C40.9884 111.125 51.7541 85.7735 69.8405 66.0289" stroke="#003C51" stroke-width="6.68493" stroke-linecap="round" stroke-linejoin="round"/>
<path d="M158.803 45.0037C179.738 45.2927 200.082 51.9855 217.1 64.1819C234.118 76.3783 246.992 93.4934 253.992 113.225C260.993 132.957 261.783 154.36 256.256 174.554C250.73 194.748 239.152 212.766 223.08 226.184C207.008 239.602 187.212 247.776 166.356 249.608C145.499 251.439 124.582 246.84 106.417 236.429C88.2521 226.018 73.7111 210.294 64.7494 191.372C55.7878 172.45 52.8354 151.238 56.2893 130.588" stroke="#517C95" stroke-width="6.68493" stroke-linecap="round" stroke-linejoin="round"/>
<path d="M156.558 67.4879C171.033 66.4981 185.515 69.3015 198.574 75.6211C211.633 81.9407 222.818 91.558 231.023 103.523C239.228 115.488 244.169 129.386 245.36 143.845C246.55 158.304 243.947 172.824 237.809 185.969C231.671 199.115 222.209 210.431 210.359 218.801C198.509 227.171 184.68 232.305 170.239 233.695C155.798 235.085 141.244 232.684 128.015 226.728C114.785 220.772 103.339 211.469 94.8057 199.735" stroke="#026E78" stroke-width="6.68493" stroke-linecap="round" stroke-linejoin="round"/>
<path d="M162.318 111.874C162.25 110.176 163.572 108.731 165.27 108.795C170.675 109 175.991 110.32 180.88 112.685C186.694 115.497 191.725 119.699 195.528 124.92C199.33 130.141 201.786 136.219 202.678 142.615C203.57 149.012 202.871 155.53 200.643 161.592C198.414 167.654 194.725 173.073 189.902 177.369C185.079 181.664 179.271 184.704 172.993 186.219C166.715 187.734 160.159 187.677 153.908 186.054C148.652 184.689 143.747 182.251 139.496 178.907C138.161 177.856 138.089 175.899 139.241 174.649C140.393 173.4 142.332 173.334 143.683 174.366C147.178 177.034 151.179 178.987 155.455 180.097C160.727 181.466 166.255 181.514 171.549 180.237C176.844 178.959 181.742 176.396 185.809 172.773C189.876 169.15 192.987 164.581 194.867 159.469C196.746 154.357 197.335 148.86 196.583 143.466C195.831 138.071 193.759 132.946 190.553 128.543C187.346 124.14 183.104 120.596 178.2 118.225C174.223 116.301 169.91 115.198 165.519 114.967C163.821 114.878 162.387 113.572 162.318 111.874Z" fill="#38CB89"/>
<path d="M157.462 87.752C168.014 86.9292 178.616 88.5774 188.4 92.5617C198.184 96.546 206.873 102.753 213.754 110.675C220.635 118.597 225.514 128.009 227.992 138.141C230.47 148.273 230.475 158.836 228.009 168.968C225.542 179.099 220.673 188.51 213.8 196.43C206.927 204.351 198.246 210.556 188.466 214.538C178.686 218.52 168.086 220.166 157.533 219.341C146.979 218.516 136.773 215.244 127.748 209.791" stroke="#1D925D" stroke-width="6.68493" stroke-linecap="round" stroke-linejoin="round"/>
<path d="M157.409 99.8913C166.217 99.0072 175.1 100.451 183.189 104.08C191.277 107.709 198.293 113.4 203.55 120.596C208.807 127.791 212.124 136.244 213.176 145.126C214.229 154.008 212.98 163.016 209.554 171.266C206.127 179.516 200.64 186.726 193.629 192.189C186.618 197.653 178.324 201.183 169.559 202.434C160.794 203.685 151.86 202.613 143.63 199.324C135.4 196.035 128.157 190.642 122.611 183.672" stroke="#76AD94" stroke-width="6.68493" stroke-linecap="round" stroke-linejoin="round"/>
</svg>
