<svg width="24" height="18" viewBox="0 0 24 18" fill="none" xmlns="http://www.w3.org/2000/svg">
<mask id="mask0_1544_2617" style="mask-type:alpha" maskUnits="userSpaceOnUse" x="0" y="0" width="24" height="18">
<path d="M0.284668 4.56782C0.583407 2.20623 2.52075 0.500967 4.89303 0.304435C6.82062 0.144744 9.30979 0 12 0C14.6902 0 17.1794 0.144744 19.107 0.304435C21.4792 0.500966 23.4166 2.20623 23.7153 4.56782C23.876 5.83794 24 7.35201 24 9C24 10.648 23.876 12.1621 23.7153 13.4322C23.4166 15.7938 21.4792 17.499 19.107 17.6956C17.1794 17.8553 14.6902 18 12 18C9.30979 18 6.82062 17.8553 4.89303 17.6956C2.52075 17.499 0.583407 15.7938 0.284668 13.4322C0.123999 12.1621 0 10.648 0 9C0 7.35201 0.123999 5.83794 0.284668 4.56782Z" fill="#00D0BF"/>
</mask>
<g mask="url(#mask0_1544_2617)">
<rect x="24" y="18" width="24" height="18" transform="rotate(-180 24 18)" fill="#EE5757"/>
<path d="M5 2L5.67354 4.07295H7.85317L6.08981 5.3541L6.76336 7.42705L5 6.1459L3.23664 7.42705L3.91019 5.3541L2.14683 4.07295H4.32646L5 2Z" fill="#FCD95E"/>
<path d="M8.75 1L8.91839 1.51824H9.46329L9.02245 1.83853L9.19084 2.35676L8.75 2.03647L8.30916 2.35676L8.47755 1.83853L8.03671 1.51824H8.58161L8.75 1Z" fill="#FCD95E"/>
<path d="M8.75 7L8.91839 7.51824H9.46329L9.02245 7.83853L9.19084 8.35676L8.75 8.03647L8.30916 8.35676L8.47755 7.83853L8.03671 7.51824H8.58161L8.75 7Z" fill="#FCD95E"/>
<path d="M8.75 7L8.91839 7.51824H9.46329L9.02245 7.83853L9.19084 8.35676L8.75 8.03647L8.30916 8.35676L8.47755 7.83853L8.03671 7.51824H8.58161L8.75 7Z" fill="#FCD95E"/>
<path d="M10.75 5L10.9184 5.51824H11.4633L11.0225 5.83853L11.1908 6.35676L10.75 6.03647L10.3092 6.35676L10.4775 5.83853L10.0367 5.51824H10.5816L10.75 5Z" fill="#FCD95E"/>
<path d="M10.75 3L10.9184 3.51824H11.4633L11.0225 3.83853L11.1908 4.35676L10.75 4.03647L10.3092 4.35676L10.4775 3.83853L10.0367 3.51824H10.5816L10.75 3Z" fill="#FCD95E"/>
</g>
</svg>
