<svg width="99" height="77" viewBox="0 0 99 77" fill="none" xmlns="http://www.w3.org/2000/svg">
<path d="M58.4162 41.2525C61.1223 41.2727 63.7275 40.263 65.7269 38.4454C72.3307 32.6696 68.7965 21.0775 60.0924 19.987C56.9823 1.12461 29.7793 8.27373 36.2216 26.2273" stroke="#C9C8C6" stroke-width="1.70065" stroke-miterlimit="10" stroke-linecap="round" stroke-linejoin="round"/>
<path d="M39.5763 27.0549C38.506 26.5096 37.3144 26.2269 36.1229 26.2471C26.712 26.9135 26.7321 40.6059 36.1229 41.2724" stroke="#C9C8C6" stroke-width="1.70065" stroke-miterlimit="10" stroke-linecap="round" stroke-linejoin="round"/>
<path d="M56.8223 20.8397C57.8724 20.3146 59.0033 20.0319 60.1747 20.0117" stroke="#C9C8C6" stroke-width="1.70065" stroke-miterlimit="10" stroke-linecap="round" stroke-linejoin="round"/>
<path d="M49.2829 32.5745C48.9508 32.2424 48.4124 32.2424 48.0804 32.5745L42.6689 37.9859C42.3369 38.318 42.3369 38.8564 42.6689 39.1885C43.001 39.5206 43.5394 39.5206 43.8715 39.1885L48.6816 34.3783L53.4918 39.1885C53.8239 39.5206 54.3623 39.5206 54.6943 39.1885C55.0264 38.8564 55.0264 38.318 54.6943 37.9859L49.2829 32.5745ZM47.8313 51.0326C47.8313 51.5022 48.212 51.8829 48.6816 51.8829C49.1513 51.8829 49.532 51.5022 49.532 51.0326H47.8313ZM47.8313 33.1758V51.0326H49.532V33.1758H47.8313Z" fill="#38CB89"/>
<path d="M0.293284 69.2842L1.9084 67.1584L0.38878 65.0201L1.22333 65.0242L2.31945 66.6062L3.49861 65.0242H4.3041L2.7471 67.1085L4.33731 69.2842H3.50692L2.32775 67.6566L1.10292 69.2842H0.293284ZM5.26736 69.2842V63.1143H6.03132V69.2842H5.26736ZM8.86712 69.3755C8.49898 69.3755 8.17374 69.3202 7.89141 69.2094C7.61184 69.0987 7.39455 68.9825 7.23955 68.8607L7.4513 68.2919C7.60907 68.4081 7.80975 68.5133 8.05333 68.6074C8.29968 68.7015 8.55019 68.7486 8.80484 68.7486C9.36951 68.7486 9.65185 68.541 9.65185 68.1258C9.65185 67.9514 9.58818 67.8213 9.46085 67.7355C9.33353 67.6497 9.08579 67.5445 8.71765 67.4199L8.35228 67.2954C8.21111 67.2456 8.0907 67.1985 7.99105 67.1542C7.89417 67.1099 7.79591 67.0546 7.69626 66.9881C7.59662 66.9189 7.51634 66.8456 7.45545 66.7681C7.39455 66.6878 7.34473 66.5923 7.30598 66.4816C7.26999 66.3681 7.252 66.2408 7.252 66.0996C7.252 65.8975 7.29352 65.719 7.37656 65.564C7.46237 65.4062 7.57862 65.2831 7.72533 65.1945C7.87203 65.1031 8.03396 65.0353 8.21111 64.991C8.38826 64.944 8.57925 64.9204 8.78408 64.9204C9.34598 64.9204 9.81931 65.0436 10.2041 65.29L9.99231 65.838C9.61863 65.6387 9.24495 65.5391 8.87127 65.5391C8.59724 65.5391 8.38549 65.5861 8.23602 65.6803C8.08655 65.7744 8.01181 65.9072 8.01181 66.0789C8.01181 66.2339 8.0561 66.3487 8.14468 66.4235C8.23602 66.4954 8.41594 66.5799 8.68443 66.6767C8.92525 66.757 9.0678 66.8054 9.11209 66.8221C9.28647 66.883 9.42625 66.9355 9.53144 66.9798C9.63662 67.0241 9.74873 67.0836 9.86775 67.1584C9.98954 67.2303 10.0823 67.3065 10.1459 67.3867C10.2124 67.467 10.2663 67.568 10.3079 67.6898C10.3521 67.8088 10.3743 67.9445 10.3743 68.0967C10.3743 68.3237 10.3314 68.523 10.2456 68.6946C10.1598 68.8634 10.0435 68.9963 9.89681 69.0932C9.75011 69.1873 9.59095 69.2579 9.41933 69.3049C9.24772 69.352 9.06365 69.3755 8.86712 69.3755ZM10.9639 69.2842L12.579 67.1584L11.0594 65.0201L11.8939 65.0242L12.99 66.6062L14.1692 65.0242H14.9747L13.4177 67.1085L15.0079 69.2842H14.1775L12.9983 67.6566L11.7735 69.2842H10.9639ZM15.502 70.3845L15.9504 68.3624H16.8182L16.1248 70.3845H15.502ZM21.8545 69.3755C21.4864 69.3755 21.1611 69.3202 20.8788 69.2094C20.5992 69.0987 20.3819 68.9825 20.2269 68.8607L20.4387 68.2919C20.5965 68.4081 20.7971 68.5133 21.0407 68.6074C21.2871 68.7015 21.5376 68.7486 21.7922 68.7486C22.3569 68.7486 22.6392 68.541 22.6392 68.1258C22.6392 67.9514 22.5756 67.8213 22.4482 67.7355C22.3209 67.6497 22.0732 67.5445 21.705 67.4199L21.3397 67.2954C21.1985 67.2456 21.0781 67.1985 20.9784 67.1542C20.8816 67.1099 20.7833 67.0546 20.6837 66.9881C20.584 66.9189 20.5037 66.8456 20.4428 66.7681C20.3819 66.6878 20.3321 66.5923 20.2934 66.4816C20.2574 66.3681 20.2394 66.2408 20.2394 66.0996C20.2394 65.8975 20.2809 65.719 20.364 65.564C20.4498 65.4062 20.566 65.2831 20.7127 65.1945C20.8594 65.1031 21.0214 65.0353 21.1985 64.991C21.3757 64.944 21.5666 64.9204 21.7715 64.9204C22.3334 64.9204 22.8067 65.0436 23.1915 65.29L22.9797 65.838C22.606 65.6387 22.2323 65.5391 21.8587 65.5391C21.5846 65.5391 21.3729 65.5861 21.2234 65.6803C21.0739 65.7744 20.9992 65.9072 20.9992 66.0789C20.9992 66.2339 21.0435 66.3487 21.1321 66.4235C21.2234 66.4954 21.4033 66.5799 21.6718 66.6767C21.9126 66.757 22.0552 66.8054 22.0995 66.8221C22.2739 66.883 22.4136 66.9355 22.5188 66.9798C22.624 67.0241 22.7361 67.0836 22.8551 67.1584C22.9769 67.2303 23.0697 67.3065 23.1333 67.3867C23.1998 67.467 23.2537 67.568 23.2953 67.6898C23.3395 67.8088 23.3617 67.9445 23.3617 68.0967C23.3617 68.3237 23.3188 68.523 23.233 68.6946C23.1472 68.8634 23.0309 68.9963 22.8842 69.0932C22.7375 69.1873 22.5783 69.2579 22.4067 69.3049C22.2351 69.352 22.051 69.3755 21.8545 69.3755ZM24.4993 69.2842V66.137C24.4993 65.993 24.4841 65.6221 24.4537 65.0242H25.2467L25.255 65.7135C25.3685 65.4644 25.5498 65.2692 25.7989 65.128C26.048 64.9869 26.3207 64.9163 26.6168 64.9163C26.9213 64.9163 27.187 64.9966 27.414 65.1571C27.6438 65.3177 27.8098 65.5446 27.9123 65.838C28.0673 65.5502 28.2762 65.3246 28.5392 65.1613C28.8049 64.998 29.1039 64.9163 29.436 64.9163C29.9204 64.9163 30.2872 65.0713 30.5363 65.3813C30.7882 65.6886 30.9141 66.1204 30.9141 66.6767V69.2842H30.1502V66.739C30.1502 66.3626 30.0865 66.0692 29.9592 65.8588C29.8319 65.6457 29.6353 65.5391 29.3696 65.5391C29.0291 65.5391 28.7357 65.6637 28.4894 65.9128C28.2458 66.1591 28.1157 66.4636 28.0991 66.8262V69.2842H27.3351V66.6726C27.3351 66.3321 27.2687 66.0581 27.1358 65.8505C27.003 65.6429 26.7912 65.5391 26.5006 65.5391C26.1657 65.5391 25.8819 65.6512 25.6494 65.8754C25.4169 66.0996 25.2896 66.3709 25.2674 66.6892V69.2842H24.4993ZM34.1319 68.7527C34.5554 68.7527 34.8779 68.606 35.0993 68.3126C35.3235 68.0164 35.4356 67.6192 35.4356 67.121C35.4356 66.6504 35.3222 66.2698 35.0952 65.9792C34.8682 65.6858 34.5443 65.5391 34.1236 65.5391C33.6807 65.5391 33.343 65.6858 33.1105 65.9792C32.8808 66.2726 32.7659 66.6574 32.7659 67.1335C32.7659 67.6123 32.8822 68.0026 33.1147 68.3043C33.3472 68.6033 33.6863 68.7527 34.1319 68.7527ZM34.024 69.3755C33.7056 69.3755 33.4164 69.316 33.1562 69.197C32.8988 69.078 32.6856 68.9174 32.5168 68.7154C32.3507 68.5105 32.222 68.2752 32.1307 68.0095C32.0421 67.741 31.9978 67.4559 31.9978 67.1542C31.9978 66.739 32.0781 66.364 32.2386 66.029C32.4019 65.6913 32.6386 65.4215 32.9486 65.2194C33.2586 65.0173 33.6171 64.9163 34.024 64.9163C34.3257 64.9163 34.5997 64.9896 34.8461 65.1364C35.0952 65.2831 35.2834 65.4713 35.4107 65.701V65.0242H36.1664V69.2842H35.4024V68.5576C35.2806 68.8122 35.0993 69.0129 34.8585 69.1596C34.6177 69.3036 34.3395 69.3755 34.024 69.3755ZM37.603 69.2842V63.1143H38.3669V69.2842H37.603ZM39.7869 69.2842V63.1143H40.5509V69.2842H39.7869ZM42.4649 66.739H44.9105C44.8828 66.3487 44.7693 66.0484 44.57 65.838C44.3707 65.6277 44.105 65.5225 43.7728 65.5225C43.424 65.5225 43.132 65.6304 42.8967 65.8463C42.6642 66.0622 42.5203 66.3598 42.4649 66.739ZM43.8683 69.3755C43.1902 69.3755 42.6518 69.1748 42.2532 68.7735C41.8546 68.3694 41.6553 67.8338 41.6553 67.1667C41.6553 66.5107 41.8463 65.9723 42.2283 65.5516C42.613 65.128 43.121 64.9163 43.7521 64.9163C44.1506 64.9163 44.4911 65.009 44.7734 65.1945C45.0585 65.3799 45.2689 65.6318 45.4045 65.9501C45.5429 66.2685 45.6121 66.638 45.6121 67.0587C45.6121 67.1113 45.608 67.1791 45.5997 67.2622H42.4442C42.4525 67.7383 42.5895 68.1064 42.8552 68.3666C43.121 68.624 43.4725 68.7527 43.9098 68.7527C44.4191 68.7527 44.8703 68.595 45.2634 68.2794L45.4917 68.8441C45.035 69.1984 44.4939 69.3755 43.8683 69.3755ZM46.8204 69.2842V66.0705C46.8204 65.9764 46.8148 65.8422 46.8038 65.6678C46.7955 65.4934 46.7872 65.3426 46.7788 65.2152L46.7664 65.0242H47.576L47.5843 65.6886C47.8418 65.1793 48.221 64.9246 48.722 64.9246C48.8797 64.9246 49.0237 64.9412 49.1538 64.9744L49.1496 65.6512C48.9863 65.6069 48.8299 65.5848 48.6805 65.5848C48.3538 65.5848 48.0909 65.6996 47.8916 65.9294C47.6923 66.1564 47.5926 66.4844 47.5926 66.9134V69.2842H46.8204ZM54.8129 69.2842H54.46C53.8566 69.2786 53.4428 69.1707 53.2186 68.9603C52.9971 68.75 52.8864 68.3666 52.8864 67.8102V65.5349H52.0685V65.0242H52.903V63.9281L53.6504 63.7081V65.0242H54.8046V65.5349H53.6504V67.8517C53.6504 68.004 53.6601 68.1272 53.6794 68.2213C53.7016 68.3154 53.7348 68.3957 53.7791 68.4621C53.8234 68.5258 53.894 68.5728 53.9908 68.6033C54.0877 68.6337 54.1971 68.6558 54.3188 68.6697C54.4406 68.6808 54.6053 68.6863 54.8129 68.6863V69.2842ZM55.9174 69.2842V63.1143H56.6813V65.6927C56.8086 65.4602 57.0066 65.2734 57.2751 65.1322C57.5435 64.9883 57.8286 64.9163 58.1304 64.9163C58.3961 64.9163 58.6314 64.9634 58.8362 65.0575C59.041 65.1516 59.2057 65.2817 59.3303 65.4478C59.4548 65.6111 59.549 65.8007 59.6126 66.0166C59.6763 66.2297 59.7081 66.4622 59.7081 66.7141V69.2842H58.94V66.7349C58.94 66.3169 58.868 66.0138 58.7241 65.8256C58.5802 65.6346 58.3476 65.5391 58.0266 65.5391C57.6778 65.5391 57.3664 65.6567 57.0924 65.892C56.8183 66.1273 56.6813 66.3972 56.6813 66.7016V69.2842H55.9174ZM62.9217 68.7527C63.3452 68.7527 63.6677 68.606 63.8892 68.3126C64.1134 68.0164 64.2255 67.6192 64.2255 67.121C64.2255 66.6504 64.112 66.2698 63.885 65.9792C63.658 65.6858 63.3342 65.5391 62.9134 65.5391C62.4706 65.5391 62.1329 65.6858 61.9004 65.9792C61.6706 66.2726 61.5557 66.6574 61.5557 67.1335C61.5557 67.6123 61.672 68.0026 61.9045 68.3043C62.137 68.6033 62.4761 68.7527 62.9217 68.7527ZM62.8138 69.3755C62.4955 69.3755 62.2062 69.316 61.946 69.197C61.6886 69.078 61.4755 68.9174 61.3066 68.7154C61.1405 68.5105 61.0118 68.2752 60.9205 68.0095C60.8319 67.741 60.7876 67.4559 60.7876 67.1542C60.7876 66.739 60.8679 66.364 61.0284 66.029C61.1918 65.6913 61.4284 65.4215 61.7384 65.2194C62.0484 65.0173 62.4069 64.9163 62.8138 64.9163C63.1155 64.9163 63.3895 64.9896 63.6359 65.1364C63.885 65.2831 64.0732 65.4713 64.2006 65.701V65.0242H64.9562V69.2842H64.1922V68.5576C64.0705 68.8122 63.8892 69.0129 63.6483 69.1596C63.4075 69.3036 63.1293 69.3755 62.8138 69.3755ZM66.3928 69.2842V66.2034C66.3928 66.0152 66.3886 65.8228 66.3803 65.6263C66.3748 65.4298 66.3679 65.2803 66.3596 65.1779L66.3471 65.0242H67.136L67.1443 65.6927C67.291 65.4491 67.4958 65.2595 67.7588 65.1239C68.0245 64.9855 68.3041 64.9163 68.5975 64.9163C69.1345 64.9163 69.5303 65.0796 69.785 65.4062C70.0396 65.7301 70.1669 66.2228 70.1669 66.8843V69.2842H69.403V66.8885C69.403 66.4262 69.3338 66.0858 69.1954 65.8671C69.057 65.6484 68.8134 65.5391 68.4646 65.5391C68.1435 65.5391 67.8515 65.6484 67.5886 65.8671C67.3256 66.083 67.1831 66.3321 67.1609 66.6145V69.2842H66.3928ZM74.4684 69.2842V68.6614H75.6351V64.0942C75.3583 64.2464 74.9473 64.4236 74.402 64.6257V63.9074C74.6068 63.8354 74.8435 63.7358 75.112 63.6084C75.3832 63.4783 75.6157 63.3552 75.8095 63.2389H76.4323V68.6614H77.5284V69.2842H74.4684ZM80.987 69.3755C80.5441 69.3755 80.1663 69.2454 79.8535 68.9852C79.5435 68.725 79.311 68.3624 79.156 67.8974C79.0037 67.4296 78.9276 66.8788 78.9276 66.2449C78.9276 65.2512 79.1034 64.4845 79.4549 63.9447C79.8065 63.4022 80.3185 63.1309 80.9912 63.1309C81.6555 63.1309 82.1579 63.4036 82.4983 63.9489C82.8388 64.4942 83.009 65.2595 83.009 66.2449C83.009 67.2165 82.8374 67.9818 82.4942 68.541C82.1509 69.0973 81.6486 69.3755 80.987 69.3755ZM80.9995 68.7071C81.7911 68.7071 82.1869 67.8863 82.1869 66.2449C82.1869 65.8823 82.1648 65.5571 82.1205 65.2692C82.079 64.9813 82.0125 64.7253 81.9212 64.5011C81.8299 64.2769 81.7053 64.1039 81.5475 63.9821C81.3925 63.8603 81.2084 63.7994 80.9953 63.7994C80.7739 63.7994 80.5815 63.8603 80.4182 63.9821C80.2549 64.1039 80.1248 64.2769 80.0279 64.5011C79.931 64.7225 79.8591 64.9786 79.812 65.2692C79.7649 65.5599 79.7414 65.8851 79.7414 66.2449C79.7414 66.7487 79.7815 67.1791 79.8618 67.5362C79.9449 67.8933 80.0819 68.1784 80.2729 68.3915C80.4639 68.6019 80.7061 68.7071 80.9995 68.7071ZM84.3667 69.2842V63.2389H85.33C85.3992 63.3994 85.7106 64.1108 86.2642 65.373C86.8178 66.6324 87.2371 67.5943 87.5222 68.2586C87.8073 67.5916 88.2281 66.6283 88.7844 65.3689C89.3436 64.1094 89.6591 63.3994 89.7311 63.2389H90.6736V69.2842H89.9179V64.5302C89.6466 65.1557 89.2508 66.0484 88.7304 67.2082C88.2128 68.3652 87.9042 69.0572 87.8046 69.2842H87.2357L85.4421 65.2443L85.1307 64.4969V69.2842H84.3667ZM93.1482 65.7965H94.1986C95.0899 65.7965 95.5355 65.4671 95.5355 64.8083C95.5355 64.4679 95.4138 64.2326 95.1702 64.1025C94.9266 63.9724 94.5584 63.9074 94.0657 63.9074H93.1482V65.7965ZM93.1523 68.6074H94.373C94.8408 68.6074 95.1978 68.5161 95.4442 68.3334C95.6933 68.1507 95.8179 67.8877 95.8179 67.5445C95.8179 67.1404 95.6989 66.858 95.4608 66.6975C95.2255 66.5342 94.8269 66.4525 94.265 66.4525H93.1523V68.6074ZM92.3551 69.2842V63.2389H93.9536C94.1336 63.2389 94.2996 63.2444 94.4519 63.2555C94.6069 63.2638 94.7688 63.2818 94.9377 63.3095C95.1065 63.3344 95.2574 63.369 95.3902 63.4133C95.5259 63.4576 95.6559 63.5185 95.7805 63.596C95.9078 63.6707 96.013 63.7593 96.0961 63.8617C96.1791 63.9613 96.2455 64.0845 96.2954 64.2312C96.3452 64.3752 96.3701 64.5357 96.3701 64.7129C96.3701 65.0478 96.2857 65.3329 96.1168 65.5682C95.9507 65.8034 95.703 65.9667 95.3736 66.0581C95.7805 66.1273 96.0961 66.2948 96.3203 66.5605C96.5472 66.8262 96.6607 67.1611 96.6607 67.5653C96.6607 68.0635 96.4739 68.4745 96.1002 68.7984C95.7265 69.1223 95.1937 69.2842 94.5017 69.2842H92.3551Z" fill="#B4B4B0"/>
</svg>
