<svg width="74" height="74" viewBox="0 0 74 74" fill="none" xmlns="http://www.w3.org/2000/svg">
<circle cx="36.5436" cy="36.9762" r="36.5353" fill="#559BB1"/>
<path fill-rule="evenodd" clip-rule="evenodd" d="M36.5632 57.6678C33.9741 57.6678 31.3783 57.7852 28.7963 57.6385C25.5008 57.4506 22.2129 57.0547 19.0291 56.0961C15.9832 55.1793 15.3434 53.9466 16.094 50.6258C16.7995 47.505 18.1218 44.7753 20.6678 42.7334C22.6811 41.1186 25.0349 40.2871 27.3851 39.4203C27.7569 39.2833 27.9908 39.5996 28.2131 39.8632C30.2119 42.2295 32.8411 43.4725 35.8001 43.7562C38.0575 43.9734 40.2594 43.3447 42.2211 42.0745C42.6707 41.7831 43.2785 41.5952 43.5418 41.1813C44.8916 39.0516 46.5824 39.5554 48.3799 40.375C50.9597 41.551 53.341 43.0227 54.8962 45.495C56.1977 47.5632 57.1261 49.8224 57.2717 52.3258C57.3624 53.8871 56.7199 54.9584 55.3295 55.5546C53.51 56.3342 51.5883 56.7979 49.6537 57.1201C45.3198 57.8426 40.9357 57.7192 36.5624 57.6677L36.5632 57.6678Z" fill="white"/>
<path fill-rule="evenodd" clip-rule="evenodd" d="M36.6147 54.7789C38.5967 55.0473 39.9641 53.9535 41.1394 52.3997C41.4563 51.9822 41.5403 51.7389 41.1789 51.2692C40.2406 50.0482 40.5385 49.2782 42.0429 49.0399C42.6687 48.941 42.8173 48.4514 42.9356 48.0142C43.0748 47.4991 43.2789 46.7899 42.9085 46.4197C42.6257 46.1382 42.0597 46.5016 41.6245 46.6765C40.7094 47.0441 39.8068 47.4425 38.7972 47.5081C35.9891 47.6915 33.2152 47.6688 30.5888 46.38C30.417 46.2958 30.2618 45.9118 30.0365 46.3328C29.7135 46.9378 30.615 48.9196 31.267 49.0202C32.374 49.1922 32.7406 50.0637 32.0943 51.1088C31.731 51.6965 31.7722 52.1279 32.1885 52.6774C33.3333 54.1886 34.7475 54.9891 36.6149 54.7789L36.6147 54.7789Z" fill="white"/>
<path fill-rule="evenodd" clip-rule="evenodd" d="M25.8689 47.6841C26.1018 46.6855 25.5114 45.7272 25.4319 44.69C25.3727 43.9196 24.95 44.2635 24.5632 44.4441C21.3338 45.9529 19.7645 48.6999 18.8831 51.9529C18.7801 52.3328 18.8486 52.6318 19.364 52.7847C20.9187 53.2459 22.4709 53.7221 24.103 53.7512C24.5794 53.7597 25.1835 54.1774 25.5528 53.2678C25.9207 52.3622 25.2941 52.1749 24.8735 51.8006C24.2307 51.2302 24.1368 50.1144 24.8564 49.8562C25.9898 49.4492 25.9789 48.6658 25.8689 47.6839L25.8689 47.6841Z" fill="white"/>
<path fill-rule="evenodd" clip-rule="evenodd" d="M48.5511 53.7856C50.1428 53.9197 51.4258 53.2927 52.8006 53.1498C53.603 53.0654 54.5497 52.6772 54.1511 51.4289C53.1628 48.3343 51.5325 45.7634 48.3674 44.3537C47.6851 44.0496 47.4201 44.2202 47.3865 44.9254C47.3276 46.1881 47.2291 47.4494 47.1664 48.7122C47.1438 49.1548 47.3279 49.4774 47.7706 49.7068C48.7163 50.1976 48.8471 51.1884 48.0077 51.8301C47.4128 52.2844 47.1977 52.8052 47.4075 53.4531C47.6352 54.1563 48.2883 53.7034 48.5511 53.7857L48.5511 53.7856Z" fill="white"/>
<path fill-rule="evenodd" clip-rule="evenodd" d="M26.9298 50.9606C28.2454 50.2269 30.0235 50.622 31.5903 49.9C31.8746 49.769 32.1026 49.6772 31.935 49.3346C31.8187 49.0969 31.6743 48.9798 31.3061 49.0537C29.7531 49.3658 28.1827 49.588 26.6149 49.8144C26.2102 49.8731 25.9301 49.9879 25.923 50.4657C25.9133 51.0849 26.3558 50.9046 26.9298 50.9607L26.9298 50.9606Z" fill="white"/>
<path fill-rule="evenodd" clip-rule="evenodd" d="M43.7389 50.108C43.383 50.0702 43.1675 50.0168 42.9558 50.032C42.6472 50.0553 42.1792 49.8061 42.1119 50.3728C42.0531 50.8774 42.5267 50.72 42.7736 50.8331C44.2455 51.5062 45.8631 51.3637 47.372 51.8571C47.6283 51.9409 48.1657 52.0507 48.176 51.4954C48.1822 51.1702 47.8768 50.7352 47.4969 50.7551C46.1524 50.8274 44.9558 49.8638 43.7389 50.108L43.7389 50.108Z" fill="white"/>
<path fill-rule="evenodd" clip-rule="evenodd" d="M36.6447 42.2806C32.3625 42.1387 29.6369 39.9382 27.8893 36.3591C27.6348 35.8374 27.3073 35.5357 26.8649 35.2589C25.4651 34.3823 24.5289 33.1628 24.2693 31.503C24.1442 30.7048 23.6647 30.2117 23.1007 29.712C21.3735 28.1822 21.467 26.5803 23.4249 25.1386C24.2574 24.5251 25.1822 24.124 26.1274 23.8146C26.8229 23.5868 27.1072 23.1838 27.2614 22.5517C27.6476 20.9704 28.3201 19.5211 29.0818 18.0793C30.1551 16.0477 31.8552 16.0168 33.7972 16.5219C34.5795 16.7252 35.3401 17.0156 36.1249 17.2101C37.1489 17.464 38.0657 16.903 38.9791 16.6351C42.3479 15.6464 43.3399 16.5144 44.6525 19.2113C45.1117 20.1548 45.5947 21.0958 45.7279 22.1765C45.8946 23.5263 46.9888 23.8873 48.0616 24.2448C48.9888 24.5532 49.7831 25.0923 50.4586 25.783C51.381 26.7251 51.5163 28.3684 50.5198 29.1573C49.4603 29.9966 49.0322 31.0702 48.6647 32.25C48.4195 33.0352 48.0592 33.8134 47.3966 34.2572C45.8253 35.309 44.9163 36.855 43.9075 38.3808C42.1704 41.0081 39.5883 42.1709 36.6449 42.2806L36.6447 42.2806ZM44.6966 28.7344C44.6927 29.1012 44.319 29.5491 44.8648 29.7981C45.165 29.935 45.5196 29.8988 45.7902 29.6849C46.2547 29.3163 45.5366 29.0934 45.6528 28.7576C46.2852 28.6386 47.1291 29.2083 47.4846 28.1889C48.3219 28.4675 48.6165 28.0184 48.5421 27.2909C48.4963 26.8378 48.3306 26.2848 47.7651 26.233C46.917 26.1548 46.9836 26.9478 46.7598 27.4519C45.849 27.4325 45.6931 27.6259 45.6842 28.7859C45.3475 28.6412 45.0064 28.7049 44.6652 28.7668C44.5359 28.4414 44.9487 27.8794 44.2936 27.7926C43.5985 27.7005 43.2633 28.1044 43.1746 28.7605C42.7973 28.7338 42.3558 28.5008 42.1649 29.076C42.0338 29.4706 42.1049 29.7929 42.4807 30.0207C42.7552 30.1863 42.9162 30.1458 43.2045 29.9289C43.8566 29.4388 43.1976 29.1226 43.1492 28.7332C43.6645 28.7332 44.181 28.7341 44.6966 28.7344L44.6966 28.7344ZM33.2447 22.7414C33.3286 23.709 33.8947 23.9409 34.747 23.7371C34.5298 24.6028 34.7987 25.147 35.7376 25.2466C36.1534 26.4921 36.6648 26.6444 37.722 25.8369C38.5171 26.3201 39.327 26.5251 40.1771 25.9678C42.0409 26.4898 42.0949 26.4701 42.1661 25.2428C42.5129 25.2426 42.8597 25.242 43.2068 25.2417C43.1079 25.8378 43.3039 26.2142 43.9542 26.2321C44.3166 26.2417 44.6655 26.1096 44.6478 25.7107C44.6224 25.1247 44.2565 24.8045 43.6486 24.8158C43.7048 24.3448 43.1955 24.1456 43.1318 23.7321C43.496 23.6123 44.1045 24.1754 44.2105 23.4652C44.2667 23.0854 44.52 22.3483 43.6435 22.3272C43.4813 21.5231 43.073 21.0588 42.1839 21.262C42.1878 20.9334 42.1926 20.6051 42.1965 20.2762C42.4877 20.1109 43.1025 20.4517 43.0813 19.9001C43.0628 19.4158 42.8097 18.8827 42.1675 18.8028C42.1821 18.181 41.7132 17.9403 41.2588 17.9027C40.681 17.8549 40.768 18.4093 40.7145 18.7927C39.576 18.4545 39.5818 19.3735 39.3592 20.0402C39.194 19.8037 38.9466 19.7886 38.6936 19.7915C38.5323 19.2536 38.3519 18.654 37.6436 18.7944C36.8774 18.9467 37.1935 19.5796 37.2317 20.0654C37.2386 20.1459 37.2386 20.2263 37.2407 20.3068C36.838 20.253 36.6973 19.6731 36.2098 19.7871C36.0527 19.2414 35.8522 18.6537 35.1508 18.7961C34.3705 18.9548 34.726 19.5932 34.7633 20.0738C34.7729 20.1945 34.7989 20.3141 34.8174 20.4339C34.4787 20.1745 34.2221 19.7776 33.7289 19.7773C33.567 19.1705 33.3173 18.5135 32.5644 18.8184C31.886 19.0931 32.2066 19.6771 32.4844 20.1449C32.4506 20.1782 32.4181 20.2121 32.3864 20.2471C32.2311 20.1976 32.0318 20.1933 31.9285 20.0908C31.633 19.7966 31.2964 19.6808 30.9451 19.8829C30.8274 19.9509 30.7769 20.2541 30.8032 20.4336C30.8647 20.8545 31.0995 21.1981 31.5294 21.3C31.7588 21.3545 32.0172 21.2856 32.2625 21.2723L32.2269 21.2369C32.1197 22.0441 32.2442 22.6921 33.2447 22.7413L33.2447 22.7414ZM30.7614 22.7365C30.874 23.6303 31.3982 23.9255 32.238 23.7614C32.0728 24.6053 32.3617 25.1348 33.2546 25.2469C33.2426 25.5043 33.3346 25.6939 33.4968 25.9125C33.8535 26.3937 34.2866 26.4521 34.6308 26.0636C34.9223 25.735 34.83 25.3303 34.3757 25.0309C34.1582 24.8876 33.9843 24.7608 33.7265 24.7741C33.5873 23.8707 33.0825 23.5419 32.2072 23.7946C32.46 22.9215 32.1364 22.413 31.2474 22.2622C31.1796 21.7005 30.937 21.2726 30.3261 21.2258C30.0298 21.2029 29.8252 21.3639 29.7451 21.7101C29.6059 22.3077 30.0866 22.4548 30.4068 22.7142C30.4821 22.775 30.641 22.7318 30.7614 22.7365L30.7614 22.7365ZM30.7754 25.2434C30.7638 25.5037 30.8997 25.6725 31.0452 25.8873C31.3902 26.3945 31.8126 26.4489 32.1546 26.0627C32.4411 25.739 32.3452 25.3219 31.9019 25.0196C31.6835 24.8705 31.4986 24.7634 31.2438 24.768C31.1309 23.8431 30.5971 23.5599 29.7388 23.7724C29.7006 23.3763 30.1233 22.8604 29.4365 22.6322C29.2528 22.5711 29.0306 22.3719 28.9114 22.6244C28.7958 22.8702 28.7226 23.1913 28.7742 23.4504C28.9078 24.1157 29.4258 23.6713 29.7711 23.7394C29.582 24.5943 29.8831 25.1186 30.7754 25.2434L30.7754 25.2434ZM36.2095 29.7755C36.1525 29.5852 36.1411 29.36 36.0279 29.2126C35.8197 28.9405 35.6524 28.5682 35.1646 28.7161C34.9002 28.7966 34.7754 28.9078 34.6962 29.1831C34.5519 29.6837 34.9507 29.8151 35.2085 30.0271C35.3519 30.1446 35.5697 30.1698 35.7534 30.2367C35.6712 30.9422 36.2717 30.9868 36.6845 31.1067C36.9829 31.1929 37.2799 30.8388 37.2228 30.5728C37.1189 30.0867 36.8007 29.7156 36.2096 29.7754L36.2095 29.7755ZM24.7592 27.2086C25.1708 27.2468 25.2927 27.8707 25.7942 27.7262C25.9624 28.5343 26.4216 28.9229 27.2648 28.7584C27.1994 29.706 27.3945 30.305 28.5287 29.7807C28.7384 29.684 29.0159 29.7346 29.2618 29.7173C29.5707 29.8056 29.9225 29.8276 30.1777 29.9975C30.5636 30.254 30.9412 30.439 31.1862 29.9474C31.4252 29.4671 31.0817 29.0311 30.7121 28.794C30.48 28.6446 30.0833 28.7541 29.7601 28.7474C29.7819 28.2555 29.692 27.8305 29.0877 27.8073C28.8607 27.7981 28.5088 27.7879 28.4248 27.9168C28.2005 28.2607 28.8197 28.3678 28.7486 28.7211C28.2432 28.7451 27.7384 28.7689 27.2344 28.7911C27.4351 27.9504 27.3993 27.2608 26.2713 27.2692C26.274 26.6861 26.144 26.1702 25.4307 26.1945C24.7583 26.2176 24.7051 26.7046 24.789 27.2408C24.7084 27.2553 24.6271 27.2874 24.5483 27.2819C24.0781 27.2483 23.7229 27.3415 23.8006 27.935C23.8567 28.3679 24.3915 28.6221 24.5268 28.5891C24.9226 28.4935 24.9211 28.0729 24.8231 27.6948C24.7837 27.5381 24.7798 27.3714 24.7592 27.2087L24.7592 27.2086ZM36.6477 38.7692C37.1624 38.6966 37.8409 38.7881 38.5362 38.5012C40.8911 37.5333 41.9784 35.6129 42.6097 33.313C42.8391 32.4766 42.4725 32.0846 41.6528 32.3264C39.2983 33.0215 36.8963 32.6367 34.5151 32.7054C33.7785 32.7265 33.0128 32.708 32.3069 32.5256C31.7352 32.3782 31.1166 32.1035 30.6311 32.3707C29.8311 32.8113 30.6903 33.3672 30.7515 33.8603C31.0807 36.5096 33.7035 38.9647 36.6477 38.7693L36.6477 38.7692ZM37.9307 28.7043C37.4193 28.7063 37.16 28.8467 37.1681 29.2668C37.1809 29.935 37.6409 30.1319 38.1912 30.2031C38.5676 30.252 38.7119 30.0326 38.6587 29.6875C38.581 29.1794 38.3391 28.7993 37.9307 28.7042L37.9307 28.7043ZM33.6861 29.4894C33.6025 29.1716 33.4203 28.7208 32.8241 28.7014C32.4662 28.6898 32.1764 28.8583 32.2138 29.2836C32.2693 29.9162 32.7153 30.1405 33.2659 30.2086C33.6659 30.2581 33.7406 29.9992 33.6862 29.4894L33.6861 29.4894ZM41.1133 29.6041C40.9194 29.3105 40.903 28.7338 40.2658 28.7051C39.8769 28.6878 39.6546 28.8716 39.6406 29.2833C39.6176 29.9475 40.1135 30.0798 40.5909 30.1829C40.9114 30.2512 41.1602 30.1192 41.1133 29.6041L41.1133 29.6041ZM29.8266 25.5292C29.7221 25.1404 29.392 24.8112 29.0096 24.863C28.7784 24.8943 28.2744 25.2414 28.3912 25.5793C28.4976 25.8859 28.7742 26.2648 29.2841 26.2405C29.7594 26.2177 29.777 25.9134 29.8266 25.5292H29.8266Z" fill="white"/>
<path fill-rule="evenodd" clip-rule="evenodd" d="M26.9301 50.9607C26.3565 50.9045 25.9137 51.0849 25.923 50.4659C25.9301 49.9877 26.2101 49.8728 26.6148 49.8144C28.1826 49.5883 29.753 49.3657 31.3059 49.0536C31.6745 48.9799 31.8185 49.0974 31.9348 49.3345C32.1027 49.6775 31.8747 49.769 31.5902 49.9C30.0233 50.6226 28.2453 50.2268 26.9301 50.9607L26.9301 50.9607Z" fill="white"/>
<path fill-rule="evenodd" clip-rule="evenodd" d="M43.7389 50.1078C44.9558 49.8633 46.1523 50.8268 47.4969 50.7552C47.8771 50.7353 48.1822 51.1702 48.176 51.4955C48.166 52.0507 47.6283 51.9409 47.372 51.8572C45.8631 51.3634 44.2455 51.5056 42.7736 50.8332C42.5264 50.72 42.0531 50.8771 42.112 50.3729C42.1786 49.8058 42.6466 50.0554 42.9558 50.0321C43.1675 50.0166 43.383 50.0699 43.7389 50.1078L43.7389 50.1078Z" fill="white"/>
<path fill-rule="evenodd" clip-rule="evenodd" d="M32.1627 20.2148C32.1969 20.1752 32.232 20.1362 32.2685 20.0981C32.5405 20.1405 32.8125 20.1831 33.0845 20.2251C33.1742 21.3147 33.7853 21.5782 34.6933 21.3706C34.6317 21.9247 34.5426 22.4844 34.9537 22.9509L35.0263 22.9248C34.4471 23.221 34.1422 22.4308 33.615 22.5218C33.4753 21.5045 32.8828 21.1924 31.9917 21.3449L32.0301 21.3852L32.1627 20.2149L32.1627 20.2148Z" fill="white"/>
<path fill-rule="evenodd" clip-rule="evenodd" d="M35.0264 24.2622C35.114 23.8303 35.0046 23.3424 35.3824 22.9912C35.3834 22.9909 35.309 23.0159 35.309 23.0159C35.593 23.0543 35.8772 23.093 36.1612 23.1314C36.2134 24.2311 36.8891 24.4078 37.7942 24.2442C37.6686 24.8253 37.7142 25.3778 38.0609 25.8817C37.5241 25.9345 37.2474 25.2584 36.6838 25.3864C36.5093 24.45 35.9933 24.0207 35.0264 24.2621L35.0264 24.2622Z" fill="white"/>
<path fill-rule="evenodd" clip-rule="evenodd" d="M38.8567 25.2656C38.8208 24.6996 38.3793 24.3618 38.061 23.9551C38.7259 24.0981 39.3926 24.1868 40.0719 24.0641C40.0755 24.6707 40.0801 25.2775 40.0841 25.884C39.6369 25.7484 39.4767 25.0873 38.8566 25.2655L38.8567 25.2656Z" fill="white"/>
<path fill-rule="evenodd" clip-rule="evenodd" d="M38.7549 22.3414C38.856 21.7487 38.198 21.5361 38.061 21.0625C38.7254 21.0664 39.3895 21.0709 40.0538 21.0751C39.8571 21.7168 40.0077 22.354 40.0841 22.9915C39.5903 22.8682 39.3974 22.1806 38.7549 22.3413L38.7549 22.3414Z" fill="white"/>
<path fill-rule="evenodd" clip-rule="evenodd" d="M41.7996 25.2926C41.8534 24.7022 41.2211 24.4555 41.0957 23.9551C41.7683 23.9598 42.4408 23.9646 43.1133 23.9686C42.8436 24.6074 43.0139 25.2456 43.1188 25.884C42.5844 25.8869 42.4574 25.0247 41.7996 25.2925L41.7996 25.2926Z" fill="white"/>
<path fill-rule="evenodd" clip-rule="evenodd" d="M37.9839 21.0802C37.8257 21.7245 37.9713 22.3576 38.0611 22.9915C37.5974 22.7908 37.365 22.1971 36.7305 22.2914C36.8252 21.717 36.2122 21.5011 36.0381 21.0625C36.6867 21.0686 37.3356 21.0744 37.9839 21.0802L37.9839 21.0802Z" fill="white"/>
</svg>
