<svg width="14" height="16" viewBox="0 0 14 16" fill="none" xmlns="http://www.w3.org/2000/svg">
<path d="M12.0165 3.14897V4.49985C12.0165 4.99107 11.7249 5.60511 11.4332 5.91213L8.92485 8.24546C8.57485 8.55248 8.34152 9.16651 8.34152 9.65774V12.2981C8.34152 12.6665 8.10818 13.1577 7.81652 13.342L6.99985 13.8946C6.24152 14.3858 5.19152 13.8332 5.19152 12.8507V9.59634C5.19152 9.16651 4.95819 8.61388 4.72485 8.30686L4.45069 8.00599C4.26985 7.80335 4.23485 7.49634 4.38069 7.25686L7.36735 2.20949C7.47235 2.03142 7.65902 1.9209 7.86318 1.9209H10.8499C11.4915 1.9209 12.0165 2.47353 12.0165 3.14897Z" fill="#38CB89"/>
<path d="M6.03757 2.86037L3.96673 6.35423C3.7684 6.69195 3.3134 6.74107 3.0509 6.45248L2.5084 5.85072C2.21673 5.54371 1.9834 4.99107 1.9834 4.62265V3.21037C1.9834 2.47353 2.5084 1.9209 3.15007 1.9209H5.54173C5.99673 1.9209 6.27673 2.44897 6.03757 2.86037Z" fill="#38CB89"/>
</svg>
