<svg width="28" height="28" viewBox="0 0 28 28" fill="none" xmlns="http://www.w3.org/2000/svg">
<path d="M24.033 4.78353V7.35019C24.033 8.28353 23.4497 9.45019 22.8664 10.0335L17.8497 14.4669C17.1497 15.0502 16.683 16.2169 16.683 17.1502V22.1669C16.683 22.8669 16.2164 23.8002 15.633 24.1502L13.9997 25.2002C12.483 26.1335 10.383 25.0835 10.383 23.2169V17.0335C10.383 16.2169 9.91637 15.1669 9.4497 14.5835L8.90137 14.0119C8.5397 13.6269 8.4697 13.0435 8.76137 12.5885L14.7347 2.99853C14.9447 2.6602 15.318 2.4502 15.7264 2.4502H21.6997C22.983 2.4502 24.033 3.5002 24.033 4.78353Z" fill="#54565B"/>
<path d="M12.0751 4.2352L7.93346 10.8735C7.5368 11.5152 6.6268 11.6085 6.1018 11.0602L5.0168 9.91686C4.43346 9.33353 3.9668 8.28353 3.9668 7.58353V4.9002C3.9668 3.5002 5.0168 2.4502 6.30013 2.4502H11.0835C11.9935 2.4502 12.5535 3.45353 12.0751 4.2352Z" fill="#54565B"/>
</svg>
