<svg width="24" height="25" viewBox="0 0 24 25" fill="none" xmlns="http://www.w3.org/2000/svg">
<path opacity="0.4" d="M15.7201 2.34375H8.28008C7.90008 2.34375 7.58008 2.66375 7.58008 3.04375C7.58008 3.42375 7.90008 3.74375 8.28008 3.74375H11.5401L12.9401 5.60375C13.2501 6.01375 13.2901 6.07375 13.8701 6.07375H17.5901C17.9701 6.07375 18.3401 6.12375 18.7001 6.22375C18.7401 6.40375 18.7601 6.58375 18.7601 6.77375V7.12375C18.7601 7.50375 19.0801 7.82375 19.4601 7.82375C19.8401 7.82375 20.1601 7.50375 20.1601 7.12375V6.76375C20.1401 4.32375 18.1601 2.34375 15.7201 2.34375Z" fill="#9FA19C"/>
<path fill-rule="evenodd" clip-rule="evenodd" d="M20.14 6.88375C19.71 6.57375 19.22 6.34375 18.69 6.21375C18.34 6.11375 17.96 6.06375 17.58 6.06375H13.86C13.2853 6.06375 13.2408 6.00484 12.9384 5.60492L12.93 5.59375L11.53 3.73375C10.88 2.87375 10.37 2.34375 8.74 2.34375H6.42C3.98 2.34375 2 4.32375 2 6.76375V17.9238C2 20.3638 3.98 22.3438 6.42 22.3438H17.58C20.02 22.3438 22 20.3638 22 17.9238V10.4838C22 8.99375 21.27 7.68375 20.14 6.88375ZM12.2706 10.9298C12.1209 10.7801 11.8781 10.7801 11.7284 10.9298L9.2888 13.3695C9.13909 13.5192 9.13909 13.7619 9.2888 13.9116C9.43851 14.0613 9.68123 14.0613 9.83094 13.9116L11.6162 12.1264V18.0628C11.6162 18.2745 11.7878 18.4462 11.9995 18.4462C12.2112 18.4462 12.3829 18.2745 12.3829 18.0628V12.1264L14.1681 13.9116C14.3178 14.0613 14.5605 14.0613 14.7102 13.9116C14.8599 13.7619 14.8599 13.5192 14.7102 13.3695L12.2706 10.9298Z" fill="#9FA19C"/>
</svg>
