<svg width="23" height="22" viewBox="0 0 23 22" fill="none" xmlns="http://www.w3.org/2000/svg">
<path d="M18.3938 8.07221C18.0639 8.25576 18.1583 8.25126 18.0639 8.25576C17.89 8.26354 17.2572 8.3291 17.3674 8.25576C17.4771 8.18206 17.5577 8.07931 17.5781 7.99886C17.5852 7.97222 17.5964 7.9096 17.5781 7.88901C17.4883 7.78609 17.17 7.84853 17.0377 7.81584C16.9332 7.78972 16.7398 7.68766 16.6338 7.6688C16.5435 7.65288 16.3573 7.65237 16.2672 7.6688C16.0062 7.71637 15.3872 7.99869 15.4974 8.40226C15.6076 8.80583 15.7055 8.96447 15.8778 9.02571C15.9696 9.05841 16.1769 8.98869 16.2674 9.02571C16.3632 9.06533 16.4829 9.24991 16.5606 9.31911C16.6045 9.35803 16.6884 9.44625 16.7441 9.4658C16.7784 9.47808 16.865 9.4402 16.8906 9.4658C16.9168 9.4921 16.865 9.58672 16.8906 9.61284C16.9687 9.69034 17.2205 9.61284 17.3307 9.61284H17.6245H17.9182H18.3583H18.5408C18.6327 9.61284 18.843 9.67737 18.9079 9.61284C18.9598 9.56095 18.9079 9.39245 18.9079 9.31945V9.13625C18.9079 9.04665 18.8207 8.79875 18.9079 8.77817C18.9453 8.76934 18.9716 8.8029 19.0909 8.64115C19.3478 8.29292 19.3698 8.39914 19.3478 8.29292C19.334 8.22424 19.5538 8.23099 19.6047 8.18273C19.671 8.12027 19.7512 7.88985 19.6047 7.81651C19.4577 7.74281 19.3848 7.70631 19.311 7.66946C19.1188 7.57362 18.5043 7.26622 18.5043 7.37624C18.5043 7.48592 18.468 7.66946 18.468 7.77949C18.4676 7.88882 18.7243 7.88864 18.3938 8.07219L18.3938 8.07221Z" fill="#38CB89"/>
<path d="M11.5002 21.6337C17.384 21.6337 22.1713 16.8468 22.1713 10.9626C22.1713 5.0779 17.384 0.291504 11.5002 0.291504C5.61639 0.291504 0.829102 5.07835 0.829102 10.9626C0.829102 16.8468 5.61639 21.6337 11.5002 21.6337ZM21.7311 10.9626C21.7311 11.1953 21.7203 11.425 21.705 11.6534C21.5756 11.6688 21.4337 11.7236 21.3643 11.7374C21.1808 11.7743 21.3643 11.7374 21.2541 11.7374C21.1445 11.7374 21.0931 11.8544 21.0343 11.8845C20.9765 11.9128 20.8395 11.9013 20.7779 11.8845C20.7085 11.8651 20.5938 11.7743 20.5938 11.6641C20.5938 11.5542 20.3006 11.5174 20.0437 11.2975C19.7873 11.0775 19.9067 11.0221 19.934 10.9308C19.9474 10.8861 19.9136 10.7922 19.8972 10.7486C19.8512 10.6208 19.7742 10.2902 19.6403 10.2708C19.5894 10.2632 19.527 10.3779 19.4938 10.4179C19.423 10.5024 19.2374 10.7844 19.2 10.7488C19.1632 10.7125 19.1507 11.1697 19.2 11.298C19.2637 11.4622 19.4815 11.7715 19.6401 11.8481C19.7166 11.885 19.6401 11.8481 19.8605 12.1045C20.0804 12.3614 20.0288 12.4024 20.1174 12.4711C20.2112 12.5444 20.5127 12.4202 20.5937 12.5079C20.6686 12.5889 20.6274 12.8434 20.5937 12.948C20.5556 13.067 20.4106 13.2049 20.3004 13.3513C20.1902 13.4983 20.1297 13.4829 20.08 13.5348C19.9373 13.6876 19.897 14.2316 19.8602 14.3415C19.8228 14.4517 19.6038 15.3685 19.567 15.4784C19.5301 15.5882 19.4583 15.6723 19.4199 15.7349C19.2583 15.9968 19.0198 16.5668 18.8698 16.835C18.7011 17.1367 18.2097 17.8985 18.1365 18.0084C18.0633 18.1182 17.9611 18.2059 17.8796 18.2284C17.7206 18.2724 17.3677 18.3007 17.2195 18.2284C17.0729 18.1571 16.8778 17.8663 16.8167 17.715C16.682 17.3821 16.7264 16.64 16.6697 16.2848C16.6354 16.0721 16.5147 15.6567 16.4867 15.4432C16.4519 15.1786 16.4493 14.5997 16.4133 14.3797C16.3765 14.1596 16.3893 14.2094 16.4133 14.1596C16.4796 14.0192 16.0829 13.756 15.9727 13.7195C15.863 13.683 15.863 13.5725 15.7163 13.4261C15.5698 13.2791 15.4399 13.3727 15.3498 13.3893C15.2498 13.4082 15.0481 13.3575 14.9465 13.3525C14.7905 13.3454 14.4635 13.4191 14.3229 13.3525C14.0757 13.236 13.7809 12.7351 13.6264 12.5093C13.557 12.4074 13.4429 12.1794 13.406 12.0692C13.3697 11.959 13.2963 11.6568 13.259 11.5191C13.2162 11.3625 13.0611 11.057 13.076 10.8955C13.0933 10.7031 13.2958 10.4554 13.4792 10.2355C13.6617 10.0155 13.7479 10.0068 13.8458 9.94212C14.0028 9.83902 13.9928 9.79542 14.3959 9.42885C14.7991 9.06263 14.3959 9.42885 14.3959 9.24565C14.3959 9.06211 14.2781 8.98755 14.3225 8.91541C14.3611 8.85244 14.3225 8.91541 14.1755 8.65887C14.029 8.40249 14.0504 8.503 13.9925 8.47567C13.8212 8.39506 14.2488 7.88906 14.2857 7.77888C14.3231 7.66903 14.4687 7.77888 14.6889 7.66903C14.9093 7.55918 14.8541 7.66245 14.9093 7.66903C15.0216 7.68287 15.0057 7.34173 15.019 7.22894C15.0237 7.19244 15.0302 7.11702 15.019 7.0819C14.995 7.00665 14.9062 6.86133 14.836 6.82535C14.7621 6.78747 14.6161 6.82535 14.5061 6.7885C14.3959 6.75218 14.2492 6.71516 14.139 6.64181C14.0288 6.56846 13.9484 6.39062 13.9925 6.31157C14.0765 6.16141 14.5059 6.09152 14.6161 6.01835C14.7258 5.94517 14.6161 5.7983 14.6161 5.68846C14.6161 5.57826 15.0296 5.54626 15.1657 5.57826C15.2657 5.60179 15.4786 5.67427 15.5328 5.76128C15.5762 5.83169 15.5139 6.01108 15.5328 6.09152C15.5516 6.17144 15.6061 6.34737 15.6788 6.38491C15.7281 6.41052 15.8435 6.35326 15.8992 6.34807C15.9383 6.34495 15.8992 6.34807 16.0094 6.23822C16.1196 6.12837 16.1099 6.0391 16.1566 5.98167C16.1946 5.93358 16.3166 5.88583 16.3765 5.87147C16.4835 5.84622 16.7063 5.86628 16.8165 5.87147C16.9181 5.87614 17.1182 5.91368 17.2193 5.90832C17.2978 5.90417 17.4028 5.87147 17.513 5.79847C17.6232 5.7253 17.9898 5.54192 18.0998 5.43173C18.2095 5.32153 18.2095 5.02849 18.1731 4.91828C18.1363 4.80843 18.1773 4.80809 18.1731 4.77159C18.1629 4.68578 17.965 4.60188 17.8794 4.58839C17.8045 4.57663 17.6505 4.62108 17.5862 4.66173C17.476 4.7311 17.3303 4.95772 17.2563 5.06481C17.2141 5.1257 17.1691 5.2781 17.1092 5.32135C17.0714 5.34869 16.9733 5.35353 16.9262 5.3582C16.7802 5.37308 16.4853 5.36858 16.3389 5.3582C16.21 5.34903 15.9111 5.38328 15.826 5.28537C15.8087 5.26479 15.826 5.22828 15.826 5.17725V5.13868V5.09975C15.826 5.04855 15.8147 5.01654 15.826 4.99198C15.8865 4.86224 16.1881 4.74529 16.2661 4.62524C16.3384 4.51349 16.3303 4.21716 16.4131 4.11197C16.6143 3.85283 17.2921 3.6556 17.5497 3.45185C17.6568 3.36725 17.8764 3.22055 18.005 3.0723C20.2796 4.95028 21.731 7.79006 21.731 10.9627L21.7311 10.9626ZM13.8876 1.01558C13.8881 1.03599 13.8876 1.05467 13.8835 1.06834C13.8359 1.23078 13.6271 1.47158 13.4434 1.58161C13.2598 1.6918 13.4337 1.88469 13.4434 1.9852C13.4598 2.16148 13.2879 2.50002 13.187 2.64514C13.0564 2.83128 12.5997 3.15859 12.5269 3.26877C12.4541 3.37863 12.2863 3.52376 12.197 3.59867C12.0718 3.70367 11.7931 3.92891 11.6835 4.00191C11.5734 4.07526 11.3531 4.25846 11.0829 4.77208C10.8127 5.28536 10.7295 5.19297 10.62 5.10232C10.463 4.97223 9.89693 4.81931 9.9599 4.62537C9.98828 4.53628 9.9599 4.62537 9.66669 4.39304C9.37346 4.16088 9.35323 3.77202 9.40979 3.5618C9.43124 3.48239 9.52864 3.34573 9.55683 3.26858C9.62257 3.09109 9.59161 2.65119 9.74038 2.53476C9.82445 2.46851 9.74038 2.53476 9.59333 2.13152C9.44629 1.72827 9.09012 1.86996 8.9697 1.72827C8.93337 1.68606 8.98354 1.55909 9.00707 1.5084C9.03613 1.44318 9.14027 1.33974 9.19009 1.28801C9.28091 1.1946 9.47622 1.02904 9.56583 0.916774C10.1924 0.79637 10.839 0.731155 11.5002 0.731155C12.3224 0.731847 13.1215 0.831488 13.8877 1.01555L13.8876 1.01558ZM5.16556 2.937H5.48594C6.03606 2.937 5.81635 2.937 6.10904 2.90015C6.40226 2.86313 6.41298 2.82006 6.51297 2.78996C6.63649 2.75259 6.51297 2.78996 7.02642 2.75311C7.53987 2.71626 7.02642 2.75311 7.2309 2.71626C7.43537 2.67976 7.46634 2.64292 7.57653 2.71626C7.68621 2.78961 7.91041 2.68564 8.01662 2.71626C8.17266 2.76176 8.38319 3.08283 8.45671 3.19304C8.53041 3.30324 8.82276 3.63313 8.93349 3.85299C9.04369 4.07303 8.93349 3.85299 8.6766 4.03618C8.42023 4.21973 8.52956 4.18323 8.41971 4.18323C8.31003 4.18323 8.1078 4.19205 8.01698 4.14638C7.9374 4.10676 7.8478 3.93516 7.77133 3.88983C7.64886 3.81666 7.52309 3.67186 7.23145 3.70664C7.16934 3.71373 7.07645 3.81424 7.02697 3.85333C6.95051 3.91371 6.80814 4.04812 6.73323 4.10988C6.64397 4.18323 6.44364 4.30674 6.36667 4.39289C6.28709 4.48215 6.18312 4.69684 6.07345 4.76984C5.96325 4.84301 6.11029 5.14869 6.18312 5.2468C6.2371 5.31911 6.3549 5.47203 6.44002 5.50317C6.57011 5.55126 6.87959 5.46667 6.9896 5.42982C7.0998 5.39298 7.13664 5.39298 7.35669 5.28278C7.57708 5.17293 7.35669 5.28278 7.50373 5.17293C7.65026 5.06308 7.69351 5.01153 7.77135 4.98973C7.91908 4.94908 8.24206 4.93144 8.38373 4.98973C8.47957 5.02918 8.61053 5.20372 8.67695 5.28295C8.82348 5.45681 8.93385 5.65004 9.30005 5.94308C9.66662 6.2363 9.70399 6.49319 9.77732 6.64005C9.85067 6.78674 9.74047 7.08014 9.66713 7.18963C9.59378 7.29983 9.43722 7.43528 9.33723 7.48337C8.9762 7.65567 8.41985 7.73992 7.77151 7.81326C7.12366 7.88661 7.76027 8.06981 7.77151 8.1435C7.78327 8.21668 7.17348 8.6573 6.84342 8.91332C6.51352 9.16987 6.84341 8.91332 6.73322 8.95034C6.62302 8.98719 6.51335 9.17021 6.40333 9.28023C6.29313 9.39043 6.29313 9.79368 6.18293 9.86702C6.07326 9.94036 5.66949 10.0502 5.5593 10.0502H5.2666H4.97286C4.86267 10.0502 4.77548 10.0255 4.71597 10.0502C4.63242 10.0852 4.49402 10.2234 4.45908 10.3068C4.44178 10.349 4.4397 10.4488 4.45908 10.49C4.50994 10.5957 4.74002 10.7038 4.82617 10.7832C5.03687 10.9766 5.52313 11.517 5.59652 11.6267C5.66986 11.7369 5.87192 12.1327 6.0366 12.2135C6.20129 12.2941 6.58619 12.2135 6.76993 12.2135C6.88497 12.2135 7.1166 12.1996 7.23148 12.2135C7.44702 12.2391 7.83367 12.36 8.08796 12.36C8.34192 12.36 8.45505 12.482 8.52996 12.5804C8.62527 12.7062 8.677 12.8004 9.04389 12.947C9.40994 13.094 9.45474 13.1876 9.58586 13.2772C9.77044 13.4033 10.2899 13.5706 10.4001 13.6438C10.5103 13.7169 10.657 14.3037 10.8402 14.5975C11.0233 14.8908 11.1701 15.1476 11.0238 15.4775C10.8767 15.8073 11.1335 15.9175 11.0238 16.0276C10.9136 16.1372 10.9136 16.2476 10.6205 16.6875C10.3268 17.1276 10.2534 17.4577 10.1437 17.4942C10.0336 17.5307 9.25715 18.0479 9.3734 18.301C9.43862 18.4427 9.3734 18.301 8.89715 18.7043C8.42037 19.1075 8.49322 19.0708 8.27352 19.181C8.05313 19.2909 8.07718 19.698 8.08998 19.878C8.10174 20.0493 8.06265 20.3631 8.08738 20.6056C7.94674 20.5558 7.80748 20.5022 7.66909 20.4461C7.6722 20.2519 7.6364 20.0159 7.61304 19.878C7.57671 19.6576 7.17295 18.0077 7.17295 17.8243C7.17295 17.6407 6.90378 17.5077 6.84306 17.3838C6.7666 17.2275 6.84306 16.8614 6.84306 16.6874C6.84306 16.5955 6.88268 16.4031 6.84306 16.3206C6.81746 16.2677 6.7019 16.2144 6.65952 16.1736C6.48151 16.0049 6.13952 15.6473 6.00839 15.4403C5.95493 15.3562 5.91359 15.1526 5.85287 15.0735C5.78973 14.9908 5.56432 14.9132 5.52297 14.817C5.46468 14.6817 5.5593 14.4504 5.5593 14.2304C5.5593 14.0103 5.6695 13.9738 5.90044 13.6802C6.13156 13.387 5.92656 13.4971 5.88971 13.387C5.85235 13.2768 5.92656 13.2035 5.88971 13.0936C5.85235 12.9834 5.62262 12.7295 5.52315 12.6169C5.45845 12.544 5.34116 12.3856 5.26677 12.3235C5.08635 12.1737 4.65386 11.9777 4.45909 11.847C4.29648 11.7372 3.98736 11.4959 3.83599 11.3703C3.61716 11.1871 3.18486 10.8113 2.99284 10.5999C2.93125 10.5321 2.83732 10.3717 2.77297 10.3067C2.66692 10.1996 2.37439 10.0687 2.2957 9.93995C2.15713 9.70883 2.13568 9.14524 2.11268 8.87674C2.09071 8.62088 2.13672 8.10555 2.11268 7.84971C2.09538 7.66253 2.13724 7.23679 2.07358 6.98512C2.74947 5.38822 3.82287 3.99893 5.16561 2.93696L5.16556 2.937Z" fill="#38CB89"/>
</svg>
