<svg width="26" height="20" viewBox="0 0 26 20" fill="none" xmlns="http://www.w3.org/2000/svg">
<mask id="mask0_1544_2186" style="mask-type:alpha" maskUnits="userSpaceOnUse" x="1" y="1" width="24" height="18">
<path d="M1.28467 5.56779C1.58341 3.2062 3.52075 1.50094 5.89303 1.3044C7.82062 1.14471 10.3098 0.999969 13 0.999969C15.6902 0.999969 18.1794 1.14471 20.107 1.3044C22.4792 1.50094 24.4166 3.2062 24.7153 5.56779C24.876 6.83791 25 8.35198 25 9.99997C25 11.648 24.876 13.162 24.7153 14.4321C24.4166 16.7937 22.4792 18.499 20.107 18.6955C18.1794 18.8552 15.6902 19 13 19C10.3098 19 7.82062 18.8552 5.89303 18.6955C3.52075 18.499 1.58341 16.7937 1.28467 14.4322C1.124 13.162 1 11.648 1 9.99997C1 8.35198 1.124 6.83791 1.28467 5.56779Z" fill="#00D0BF"/>
</mask>
<g mask="url(#mask0_1544_2186)">
<rect x="1" y="11" width="24" height="8" fill="#59C785"/>
<rect x="1" y="0.999969" width="24" height="8" fill="#2C2929"/>
<rect x="0.5" y="6.49997" width="25" height="7" fill="#EE5757" stroke="white"/>
<path d="M9.20245 15.4094L9.41297 15.5309L15.1568 5.58233C15.4903 5.4909 15.6747 5.17144 15.8591 4.85198C15.9821 4.639 16.4739 3.78711 16.6908 2.68228C15.8424 3.42249 15.3505 4.27438 15.2276 4.48735C15.0431 4.80681 14.8587 5.12627 14.9463 5.46079L9.20245 15.4094Z" fill="white"/>
<path d="M16.5858 15.531L16.7963 15.4094L11.0525 5.46084C11.14 5.12633 10.9556 4.80687 10.7712 4.48741C10.6482 4.27444 10.1564 3.42255 9.30796 2.68234C9.5248 3.78717 10.0166 4.63906 10.1396 4.85204C10.324 5.1715 10.5085 5.49096 10.842 5.58239L16.5858 15.531Z" fill="white"/>
<path d="M10.6895 13.049C11.0541 14.0326 12.2695 16 12.9988 16C13.728 16 14.9434 14.0326 15.3081 13.049V7.14687C14.9434 6.16319 13.728 4.19583 12.9988 4.19583C12.2695 4.19583 11.0541 6.16319 10.6895 7.14687V13.049Z" fill="#EE5757"/>
<path d="M15.3089 13.049C15.6735 12.0653 15.9166 11.0816 15.9166 10.0979C15.9166 9.11424 15.6735 8.13056 15.3089 7.14688C14.9443 8.13056 14.7012 9.11424 14.7012 10.0979C14.7012 11.0816 14.9443 12.0653 15.3089 13.049Z" fill="black"/>
<path d="M10.7552 13.049C11.1198 12.0653 11.3629 11.0816 11.3629 10.0979C11.3629 9.11424 11.1198 8.13056 10.7552 7.14688C10.3905 8.13056 10.1475 9.11424 10.1475 10.0979C10.1475 11.0816 10.3905 12.0653 10.7552 13.049Z" fill="black"/>
<path d="M12.9989 10.8356C13.2674 10.8356 13.485 10.5053 13.485 10.0979C13.485 9.69041 13.2674 9.36011 12.9989 9.36011C12.7304 9.36011 12.5127 9.69041 12.5127 10.0979C12.5127 10.5053 12.7304 10.8356 12.9989 10.8356Z" fill="white"/>
<path d="M13.1211 10.8171C13.1211 10.8171 13.6073 11.8008 13.6073 13.3993C13.6073 14.9978 13.1211 15.9815 13.1211 15.9815V10.8171Z" fill="white"/>
<path d="M13.1211 4.21518C13.1211 4.21518 13.6073 5.19886 13.6073 6.79734C13.6073 8.39582 13.1211 9.3795 13.1211 9.3795V4.21518Z" fill="white"/>
<path d="M12.9668 15.9814C12.9668 15.9814 12.4806 14.9978 12.4806 13.3993C12.4806 11.8008 12.9668 10.8171 12.9668 10.8171L12.9668 15.9814Z" fill="white"/>
<path d="M12.9668 9.37952C12.9668 9.37952 12.4806 8.39584 12.4806 6.79736C12.4806 5.19888 12.9668 4.2152 12.9668 4.2152L12.9668 9.37952Z" fill="white"/>
</g>
<path d="M5.85175 0.806112C3.26528 1.02039 1.11961 2.88853 0.788621 5.50504C0.625819 6.79202 0.5 8.32736 0.5 9.99997C0.5 11.6726 0.625819 13.2079 0.788621 14.4949C1.11961 17.1114 3.26528 18.9796 5.85175 19.1938C7.78921 19.3543 10.2926 19.5 13 19.5C15.7074 19.5 18.2108 19.3543 20.1483 19.1938C22.7347 18.9796 24.8804 17.1114 25.2114 14.4949C25.3742 13.2079 25.5 11.6726 25.5 9.99997C25.5 8.32736 25.3742 6.79202 25.2114 5.50504C24.8804 2.88853 22.7347 1.02039 20.1483 0.806112C18.2108 0.645603 15.7074 0.499969 13 0.499969C10.2926 0.499969 7.78921 0.645603 5.85175 0.806112Z" stroke="#F9FAFB"/>
</svg>
