<svg width="74" height="74" viewBox="0 0 74 74" fill="none" xmlns="http://www.w3.org/2000/svg">
<circle cx="36.8805" cy="36.9762" r="36.5353" fill="#3F6A83"/>
<path d="M18.3046 52.4683H55.4569C56.6499 52.4683 57.617 53.7886 57.617 54.859V55.8154C57.617 57.1357 56.6499 58.2061 55.4569 58.2061H18.3046C17.1116 58.2061 16.1445 56.8857 16.1445 55.8154V54.859C16.1445 53.5386 17.1116 52.4683 18.3046 52.4683V52.4683Z" fill="white"/>
<path d="M56.4445 34.2456L57.2497 32.9782H57.2494C57.5629 32.4885 57.6823 31.8899 57.5827 31.3097C57.483 30.7291 57.1722 30.2122 56.7161 29.8681L38.6974 16.1781C38.3275 15.8974 37.8828 15.7461 37.4264 15.7461C36.97 15.7461 36.5253 15.8974 36.1554 16.1781L18.1367 29.8681C17.6806 30.2122 17.3698 30.729 17.2701 31.3097C17.1705 31.8899 17.2899 32.4885 17.6033 32.9782L18.4086 34.2456H18.4083C18.7377 34.7578 19.2502 35.1084 19.8294 35.2179C20.4087 35.3271 21.0053 35.1861 21.4841 34.8271L37.1722 22.9092C37.3238 22.7939 37.5289 22.7939 37.6805 22.9092L53.3686 34.8271C53.8473 35.1868 54.444 35.328 55.0233 35.2185C55.6029 35.109 56.1153 34.7581 56.4444 34.2455L56.4445 34.2456Z" fill="white"/>
<path d="M36.9125 30.6648C36.3338 30.6558 35.7752 30.889 35.3599 31.313C34.9446 31.737 34.7066 32.3173 34.698 32.9257C34.6894 33.5345 34.9112 34.1215 35.3144 34.5586C35.7177 34.9953 36.2693 35.2455 36.8482 35.2546C37.4269 35.2636 37.9855 35.0304 38.4008 34.6064C38.8161 34.1827 39.0545 33.6024 39.063 32.9939C39.0716 32.3851 38.8498 31.7978 38.4466 31.361C38.0433 30.924 37.4914 30.6737 36.9125 30.6647L36.9125 30.6648Z" fill="white"/>
<path d="M52.2088 35.3806L37.1304 23.8613C36.9798 23.752 36.7814 23.752 36.6308 23.8613L21.5524 35.3806C21.3204 35.5564 21.0648 35.6944 20.7942 35.7901C20.622 35.8583 20.5086 36.0326 20.5098 36.2266V52.0136C20.5098 52.1342 20.5554 52.25 20.6361 52.3353C20.7169 52.4206 20.8265 52.4684 20.9408 52.4684H52.8205H52.8202C52.9344 52.4684 53.0441 52.4206 53.1248 52.3353C53.2056 52.25 53.2512 52.1342 53.2512 52.0136V36.2266C53.2523 36.0326 53.139 35.8583 52.9667 35.7901C52.6953 35.6962 52.4394 35.5579 52.2086 35.3806H52.2088ZM39.9663 41.7799L39.8853 47.6524H39.8856C39.8769 48.2489 39.6579 48.8207 39.2711 49.2555L37.5575 51.1818C37.3391 51.4267 37.0336 51.5635 36.7151 51.5583C36.3969 51.5534 36.0952 51.4072 35.884 51.1556L33.83 48.708V48.7077C33.7262 48.5843 33.7366 48.3954 33.8534 48.2857L34.6839 47.5067C34.7988 47.3992 34.8115 47.2146 34.7125 47.0909L33.8355 45.988H33.8352C33.7449 45.8762 33.7449 45.7114 33.8352 45.5996L34.7122 44.5351H34.7125C34.8109 44.4163 34.8045 44.2369 34.6978 44.1266L34.0585 43.4597V43.4594C33.8384 43.2306 33.7164 42.9168 33.7207 42.5905L33.7337 41.6805C32.0403 40.6724 30.8618 38.9179 30.5208 36.8965C30.1795 34.8755 30.7112 32.7993 31.9702 31.2348C33.2294 29.6707 35.0844 28.7824 37.0281 28.8123C38.9716 28.8424 40.8013 29.7881 42.0163 31.3906C43.2314 32.9931 43.7051 35.0851 43.3082 37.0946C42.9109 39.1045 41.6846 40.8217 39.9638 41.7771L39.9663 41.7799Z" fill="white"/>
<path d="M37.4265 40.9927C37.125 40.9927 36.8809 41.1723 36.8809 41.3941V44.0337C36.8809 44.2555 37.125 44.4354 37.4265 44.4354C37.7281 44.4354 37.9722 44.2555 37.9722 44.0337V41.3941C37.9722 41.2876 37.9149 41.1855 37.8125 41.1102C37.7102 41.0349 37.5713 40.9927 37.4265 40.9927Z" fill="white"/>
</svg>
