<svg width="24" height="19" viewBox="0 0 24 19" fill="none" xmlns="http://www.w3.org/2000/svg">
<mask id="mask0_1544_4332" style="mask-type:alpha" maskUnits="userSpaceOnUse" x="0" y="0" width="24" height="18">
<path d="M1.18562 5.13954C1.46138 2.95962 3.2497 1.38553 5.4395 1.20411C7.21881 1.05671 9.51651 0.923096 11.9998 0.923096C14.483 0.923096 16.7807 1.05671 18.5601 1.20411C20.7498 1.38553 22.5382 2.95962 22.8139 5.13954C22.9622 6.31196 23.0767 7.70957 23.0767 9.23079C23.0767 10.752 22.9622 12.1496 22.8139 13.322C22.5382 15.502 20.7498 17.076 18.5601 17.2575C16.7807 17.4049 14.483 17.5385 11.9998 17.5385C9.51651 17.5385 7.21881 17.4049 5.4395 17.2575C3.2497 17.076 1.46138 15.502 1.18562 13.322C1.03731 12.1496 0.922852 10.752 0.922852 9.23079C0.922852 7.70957 1.03731 6.31196 1.18562 5.13954Z" fill="#00D0BF"/>
</mask>
<g mask="url(#mask0_1544_4332)">
<rect x="0.922852" y="-1.84613" width="7.38462" height="22.6154" fill="#59C785"/>
<rect x="8.30762" y="-1.84613" width="7.38462" height="22.6154" fill="white"/>
<rect x="15.6924" y="-1.84613" width="7.38462" height="22.6154" fill="#59C785"/>
</g>
<path d="M5.40139 0.74415C3.01388 0.941943 1.03326 2.66638 0.727733 5.08162C0.577454 6.2696 0.461313 7.68684 0.461313 9.23079C0.461313 10.7747 0.577454 12.192 0.727733 13.38C1.03326 15.7952 3.01388 17.5196 5.40139 17.7174C7.18982 17.8656 9.50066 18 11.9998 18C14.4989 18 16.8097 17.8656 18.5982 17.7174C20.9857 17.5196 22.9663 15.7952 23.2718 13.38C23.4221 12.192 23.5382 10.7747 23.5382 9.23079C23.5382 7.68684 23.4221 6.2696 23.2718 5.08162C22.9663 2.66638 20.9857 0.941943 18.5982 0.74415C16.8097 0.595988 14.4989 0.461557 11.9998 0.461557C9.50066 0.461557 7.18982 0.595988 5.40139 0.74415Z" stroke="#F9FAFB" stroke-width="0.923077"/>
</svg>
