<svg width="30" height="33" viewBox="0 0 30 33" fill="none" xmlns="http://www.w3.org/2000/svg">
<path fill-rule="evenodd" clip-rule="evenodd" d="M16.3456 22.3162H18.2316C19.2732 22.3162 20.1176 23.1606 20.1176 24.2022C20.1176 25.2438 19.2732 26.0882 18.2316 26.0882H1.88603C0.844404 26.0882 0 25.2438 0 24.2022C0 23.1606 0.844404 22.3162 1.88603 22.3162H3.77206L4.47401 15.9987C4.7902 13.1529 7.19557 11 10.0588 11C12.9221 11 15.3274 13.1529 15.6436 15.9987L16.3456 22.3162Z" fill="#C9C8C6"/>
<path opacity="0.3" d="M12.5724 29.8585C12.5724 28.4696 11.4465 27.3438 10.0577 27.3438C8.66884 27.3438 7.54297 28.4696 7.54297 29.8585C7.54297 31.2473 8.66884 32.3732 10.0577 32.3732C11.4465 32.3732 12.5724 31.2473 12.5724 29.8585Z" fill="#C9C8C6"/>
<circle cx="25" cy="5" r="4.5" fill="#FF5630" stroke="white"/>
</svg>
