<svg width="54" height="52" viewBox="0 0 54 52" fill="none" xmlns="http://www.w3.org/2000/svg">
<rect width="54" height="52" rx="10" fill="#F5FCF9"/>
<path opacity="0.4" d="M26.5001 37.5954C33.1735 37.5954 38.5834 32.1855 38.5834 25.512C38.5834 18.8386 33.1735 13.4287 26.5001 13.4287C19.8266 13.4287 14.4167 18.8386 14.4167 25.512C14.4167 32.1855 19.8266 37.5954 26.5001 37.5954Z" fill="#76AD94"/>
<path d="M26.5 19.3857C23.9988 19.3857 21.9688 21.4157 21.9688 23.917C21.9688 26.3699 23.89 28.3637 26.4396 28.4362C26.4758 28.4362 26.5242 28.4362 26.5483 28.4362C26.5725 28.4362 26.6087 28.4362 26.6329 28.4362C26.645 28.4362 26.6571 28.4362 26.6571 28.4362C29.0979 28.3516 31.0192 26.3699 31.0312 23.917C31.0312 21.4157 29.0013 19.3857 26.5 19.3857Z" fill="#76AD94"/>
<path d="M34.6921 34.3934C32.5413 36.375 29.6655 37.5955 26.4996 37.5955C23.3338 37.5955 20.458 36.375 18.3071 34.3934C18.5971 33.2938 19.3825 32.2909 20.5305 31.5175C23.8292 29.3184 29.1942 29.3184 32.4688 31.5175C33.6288 32.2909 34.4021 33.2938 34.6921 34.3934Z" fill="#76AD94"/>
</svg>
