<svg width="32" height="33" viewBox="0 0 32 33" fill="none" xmlns="http://www.w3.org/2000/svg">
<circle opacity="0.1" cx="16.1462" cy="16.758" r="15.799" fill="#3F6A83"/>
<path fill-rule="evenodd" clip-rule="evenodd" d="M16.0311 12.6842C16.0922 12.4392 16.2482 12.2321 16.4647 12.1085C16.6813 11.9849 16.9406 11.9548 17.1858 12.025L22.4154 13.5225C22.6606 13.5927 22.8714 13.7574 23.0015 13.9802C23.1317 14.2031 23.1705 14.466 23.1094 14.711L21.8061 19.9382C21.7415 20.1793 21.5847 20.3817 21.3694 20.5021C21.1542 20.6224 20.8978 20.6509 20.6553 20.5815C20.4129 20.5121 20.204 20.3503 20.0734 20.131C19.9429 19.9116 19.9012 19.6523 19.9574 19.4089L20.7045 16.4124L11.2432 21.8139C11.0266 21.9376 10.7672 21.9676 10.522 21.8974C10.2768 21.8272 10.0659 21.6625 9.93577 21.4395C9.80561 21.2166 9.76681 20.9537 9.82791 20.7086C9.88902 20.4635 10.045 20.2564 10.2616 20.1327L19.723 14.7312L16.7251 13.8728C16.4799 13.8026 16.2691 13.6379 16.139 13.415C16.0088 13.1921 15.97 12.9292 16.0311 12.6842Z" fill="#3F6A83"/>
</svg>
