<svg width="25" height="25" viewBox="0 0 25 25" fill="none" xmlns="http://www.w3.org/2000/svg">
<path fill-rule="evenodd" clip-rule="evenodd" d="M7.29167 3.125H17.7083C20.0095 3.125 21.875 4.99048 21.875 7.29167C21.875 9.59285 20.0095 11.4583 17.7083 11.4583H7.29167C4.99048 11.4583 3.125 9.59285 3.125 7.29167C3.125 4.99048 4.99048 3.125 7.29167 3.125ZM7.29167 9.375C8.44226 9.375 9.375 8.44226 9.375 7.29167C9.375 6.14107 8.44226 5.20833 7.29167 5.20833C6.14107 5.20833 5.20833 6.14107 5.20833 7.29167C5.20833 8.44226 6.14107 9.375 7.29167 9.375Z" fill="#C9C8C6"/>
<path opacity="0.3" fill-rule="evenodd" clip-rule="evenodd" d="M7.29167 13.543H17.7083C20.0095 13.543 21.875 15.4084 21.875 17.7096C21.875 20.0108 20.0095 21.8763 17.7083 21.8763H7.29167C4.99048 21.8763 3.125 20.0108 3.125 17.7096C3.125 15.4084 4.99048 13.543 7.29167 13.543ZM17.7083 19.793C18.8589 19.793 19.7917 18.8602 19.7917 17.7096C19.7917 16.559 18.8589 15.6263 17.7083 15.6263C16.5577 15.6263 15.625 16.559 15.625 17.7096C15.625 18.8602 16.5577 19.793 17.7083 19.793Z" fill="#C9C8C6"/>
</svg>
