<svg width="54" height="52" viewBox="0 0 54 52" fill="none" xmlns="http://www.w3.org/2000/svg">
<rect width="54" height="52" rx="10" fill="#F4F8FF"/>
<path d="M21 26H22.5V27.5H21V26Z" fill="#3F6A83" fill-opacity="0.3"/>
<path d="M21 29H22.5V30.5H21V29Z" fill="#3F6A83" fill-opacity="0.3"/>
<path d="M21 32H22.5V33.5H21V32Z" fill="#3F6A83" fill-opacity="0.3"/>
<path d="M37.3739 29.3342L35.8739 27.0842C35.7636 26.9188 35.5924 26.8036 35.397 26.7647L31.647 26.0147C31.5499 25.9948 31.4501 25.9948 31.353 26.0147L27.603 26.7647C27.4076 26.8038 27.2362 26.9184 27.126 27.0842L25.626 29.3342C25.5438 29.4572 25.5 29.6019 25.5 29.75V28.25C25.5 28.1019 25.5438 27.9572 25.626 27.8342L27.126 25.5842C27.2364 25.4188 27.4076 25.3036 27.603 25.2647L30 24.7854V20.75C30 17.0281 26.9719 14 23.25 14C19.5281 14 16.5 17.0281 16.5 20.75V37.25C16.5 37.664 16.836 38 17.25 38H36.75C37.164 38 37.5 37.664 37.5 37.25V29.75C37.5 29.6018 37.4561 29.4572 37.3739 29.3342ZM17.9999 20.7499C17.9999 17.8548 20.3549 15.4999 23.2499 15.4999C25.4999 15.4999 26.9999 17.8548 26.9999 20.7499V21.4999H17.9999V20.7499ZM23.9999 36.4999H22.4999V34.9999H20.9999V36.4999H19.4999V22.9999H20.9999V24.4999H22.4999V22.9999H23.9999V36.4999ZM33.7499 36.4999H29.2499V32.7499C29.2499 32.3359 29.5859 31.9999 29.9999 31.9999H32.9999C33.4139 31.9999 33.7499 32.3359 33.7499 32.7499V36.4999Z" fill="#3F6A83"/>
</svg>
