<svg width="419" height="104" viewBox="0 0 419 104" fill="none" xmlns="http://www.w3.org/2000/svg">
<g filter="url(#filter0_bi_853_8721)">
<rect width="419" height="104" rx="26.3659" fill="url(#paint0_linear_853_8721)"/>
<rect x="0.659148" y="0.659148" width="417.682" height="102.682" rx="25.7068" stroke="#76AD94" stroke-width="1.3183"/>
</g>
<circle cx="42.8446" cy="51.4998" r="23.7293" fill="#38CB89"/>
<ellipse cx="42.9998" cy="50.417" rx="5.83333" ry="5.25" fill="#38CB89"/>
<path d="M50.6299 41.8068L44.2133 39.4035C43.5483 39.1585 42.4633 39.1585 41.7983 39.4035L35.3816 41.8068C34.1449 42.2735 33.1416 43.7201 33.1416 45.0385V54.4885C33.1416 55.4335 33.7599 56.6818 34.5183 57.2418L40.9349 62.0368C42.0666 62.8885 43.9216 62.8885 45.0533 62.0368L51.4699 57.2418C52.2283 56.6701 52.8466 55.4335 52.8466 54.4885V45.0385C52.8583 43.7201 51.8549 42.2735 50.6299 41.8068ZM47.0599 48.3401L42.0433 53.3568C41.8683 53.5318 41.6466 53.6135 41.4249 53.6135C41.2033 53.6135 40.9816 53.5318 40.8066 53.3568L38.9399 51.4668C38.6016 51.1285 38.6016 50.5685 38.9399 50.2301C39.2783 49.8918 39.8383 49.8918 40.1766 50.2301L41.4366 51.4901L45.8349 47.0918C46.1733 46.7535 46.7333 46.7535 47.0716 47.0918C47.4099 47.4301 47.4099 48.0018 47.0599 48.3401Z" fill="white"/>
<path d="M95.7915 41.1572C95.0851 41.1572 94.4198 41.0456 93.7954 40.8223C93.1711 40.5944 92.7062 40.3278 92.4009 40.0225L93.0845 38.8877C93.3761 39.1247 93.7749 39.3389 94.2808 39.5303C94.7912 39.7171 95.2674 39.8105 95.7095 39.8105C96.9764 39.8105 97.6099 39.3184 97.6099 38.334C97.6099 38.1243 97.5916 37.9535 97.5552 37.8213C97.5187 37.6846 97.4412 37.5501 97.3228 37.418C97.2088 37.2812 97.0425 37.1582 96.8237 37.0488C96.605 36.9395 96.3133 36.8232 95.9487 36.7002C95.853 36.6637 95.6981 36.6136 95.4839 36.5498C95.2743 36.4814 95.133 36.4336 95.0601 36.4062C94.4494 36.2057 93.9618 35.9915 93.5972 35.7637C93.2326 35.5312 92.95 35.2327 92.7495 34.8682C92.549 34.5036 92.4487 34.0615 92.4487 33.542C92.4487 32.9632 92.6014 32.4688 92.9067 32.0586C93.2121 31.6484 93.6154 31.3477 94.1167 31.1562C94.618 30.9603 95.1899 30.8623 95.8325 30.8623C96.4159 30.8623 96.9263 30.9147 97.3638 31.0195C97.8013 31.1198 98.1453 31.2451 98.396 31.3955C98.6466 31.5413 98.8927 31.7327 99.1343 31.9697L98.3276 33.0225C98.0496 32.7536 97.7078 32.5508 97.3022 32.4141C96.9012 32.2773 96.4842 32.209 96.0513 32.209C95.4816 32.209 95.0168 32.3161 94.6567 32.5303C94.3013 32.7399 94.1235 33.0566 94.1235 33.4805C94.1235 33.763 94.16 33.9863 94.2329 34.1504C94.3104 34.3145 94.4585 34.4671 94.6772 34.6084C94.9006 34.7451 95.2401 34.891 95.6958 35.0459C96.2746 35.2327 96.5822 35.333 96.6187 35.3467C97.6258 35.6885 98.3208 36.0781 98.7036 36.5156C99.0864 36.9486 99.2778 37.5615 99.2778 38.3545C99.2778 38.833 99.1821 39.2568 98.9907 39.626C98.8039 39.9951 98.5464 40.2891 98.2183 40.5078C97.8901 40.722 97.521 40.8838 97.1108 40.9932C96.7052 41.1025 96.2655 41.1572 95.7915 41.1572ZM103.755 41.1572C102.876 41.1572 102.204 40.9066 101.739 40.4053C101.278 39.8994 101.048 39.2272 101.048 38.3887V33.9863H102.566V38.375C102.566 38.89 102.694 39.2751 102.949 39.5303C103.208 39.7855 103.575 39.9131 104.049 39.9131C104.596 39.9131 105.011 39.7673 105.293 39.4756C105.576 39.1839 105.717 38.751 105.717 38.1768V33.9863H107.249V39.168C107.249 39.7513 107.271 40.362 107.317 41H105.745L105.717 39.9336C105.663 40.0612 105.587 40.1888 105.492 40.3164C105.396 40.444 105.271 40.5762 105.116 40.7129C104.961 40.8451 104.765 40.9521 104.528 41.0342C104.291 41.1162 104.033 41.1572 103.755 41.1572ZM112.656 41.1572C111.917 41.1572 111.27 40.9932 110.714 40.665C110.158 40.3324 109.739 39.8926 109.457 39.3457C109.174 38.7988 109.033 38.1882 109.033 37.5137C109.033 36.8027 109.179 36.167 109.47 35.6064C109.766 35.0459 110.19 34.6061 110.742 34.2871C111.298 33.9681 111.938 33.8086 112.663 33.8086C113.706 33.8086 114.517 34.1094 115.096 34.7109L114.556 35.709C114.059 35.2715 113.474 35.0527 112.799 35.0527C112.129 35.0527 111.598 35.2692 111.207 35.7021C110.819 36.1351 110.625 36.7367 110.625 37.5068C110.625 38.236 110.821 38.8193 111.213 39.2568C111.605 39.6943 112.139 39.9131 112.813 39.9131C113.442 39.9131 114.046 39.6966 114.625 39.2637L115.096 40.3848C114.376 40.8997 113.563 41.1572 112.656 41.1572ZM119.998 41.1572C119.259 41.1572 118.612 40.9932 118.056 40.665C117.5 40.3324 117.081 39.8926 116.798 39.3457C116.516 38.7988 116.375 38.1882 116.375 37.5137C116.375 36.8027 116.52 36.167 116.812 35.6064C117.108 35.0459 117.532 34.6061 118.083 34.2871C118.639 33.9681 119.28 33.8086 120.004 33.8086C121.048 33.8086 121.859 34.1094 122.438 34.7109L121.898 35.709C121.401 35.2715 120.816 35.0527 120.141 35.0527C119.471 35.0527 118.94 35.2692 118.548 35.7021C118.161 36.1351 117.967 36.7367 117.967 37.5068C117.967 38.236 118.163 38.8193 118.555 39.2568C118.947 39.6943 119.48 39.9131 120.155 39.9131C120.784 39.9131 121.388 39.6966 121.966 39.2637L122.438 40.3848C121.718 40.8997 120.904 41.1572 119.998 41.1572ZM125.35 36.707H128.973C128.914 36.1556 128.736 35.734 128.44 35.4424C128.148 35.1507 127.772 35.0049 127.312 35.0049C126.797 35.0049 126.366 35.1553 126.02 35.4561C125.678 35.7568 125.455 36.1738 125.35 36.707ZM127.449 41.1572C126.3 41.1572 125.391 40.8223 124.721 40.1523C124.051 39.4824 123.716 38.5983 123.716 37.5C123.716 36.821 123.855 36.2035 124.133 35.6475C124.411 35.0915 124.821 34.6471 125.364 34.3145C125.906 33.9772 126.533 33.8086 127.244 33.8086C127.768 33.8086 128.23 33.902 128.631 34.0889C129.037 34.2712 129.361 34.5286 129.602 34.8613C129.848 35.1895 130.033 35.57 130.156 36.0029C130.279 36.4313 130.34 36.9053 130.34 37.4248C130.34 37.5205 130.329 37.6253 130.306 37.7393H125.316C125.343 38.4593 125.56 39.0016 125.965 39.3662C126.371 39.7308 126.904 39.9131 127.565 39.9131C128.362 39.9131 129.096 39.6579 129.766 39.1475L130.197 40.2686C129.408 40.861 128.492 41.1572 127.449 41.1572ZM134.75 41.1572C134.139 41.1572 133.587 41.0684 133.095 40.8906C132.603 40.7129 132.216 40.5124 131.933 40.2891L132.33 39.168C132.608 39.3776 132.958 39.5576 133.382 39.708C133.806 39.8584 134.221 39.9336 134.626 39.9336C135.438 39.9336 135.843 39.6351 135.843 39.0381C135.843 38.8102 135.759 38.6348 135.59 38.5117C135.422 38.3841 135.064 38.2269 134.517 38.04L133.861 37.8145C133.551 37.7096 133.298 37.6094 133.102 37.5137C132.906 37.418 132.715 37.2949 132.528 37.1445C132.341 36.9941 132.202 36.8096 132.111 36.5908C132.024 36.3721 131.981 36.1123 131.981 35.8115C131.981 35.4652 132.052 35.1621 132.193 34.9023C132.334 34.638 132.528 34.4307 132.774 34.2803C133.02 34.1253 133.291 34.0114 133.587 33.9385C133.884 33.861 134.2 33.8223 134.538 33.8223C135.012 33.8223 135.463 33.8815 135.891 34C136.319 34.1185 136.684 34.2757 136.985 34.4717L136.575 35.5381C136.333 35.4105 136.035 35.2943 135.679 35.1895C135.328 35.0846 134.998 35.0322 134.688 35.0322C133.881 35.0322 133.478 35.2738 133.478 35.7568C133.478 35.9756 133.549 36.1396 133.69 36.249C133.836 36.3584 134.153 36.4997 134.64 36.6729C134.658 36.6774 134.77 36.7161 134.975 36.7891C135.185 36.862 135.303 36.903 135.331 36.9121C135.595 37.0033 135.811 37.0876 135.98 37.165C136.149 37.238 136.322 37.3337 136.5 37.4521C136.682 37.5706 136.823 37.6982 136.923 37.835C137.024 37.9717 137.106 38.1403 137.169 38.3408C137.238 38.5413 137.272 38.7715 137.272 39.0312C137.272 39.4141 137.197 39.749 137.046 40.0361C136.901 40.3187 136.702 40.5397 136.452 40.6992C136.201 40.8542 135.932 40.9681 135.645 41.041C135.362 41.1185 135.064 41.1572 134.75 41.1572ZM141.503 41.1572C140.893 41.1572 140.341 41.0684 139.849 40.8906C139.357 40.7129 138.97 40.5124 138.687 40.2891L139.083 39.168C139.361 39.3776 139.712 39.5576 140.136 39.708C140.56 39.8584 140.975 39.9336 141.38 39.9336C142.192 39.9336 142.597 39.6351 142.597 39.0381C142.597 38.8102 142.513 38.6348 142.344 38.5117C142.176 38.3841 141.818 38.2269 141.271 38.04L140.615 37.8145C140.305 37.7096 140.052 37.6094 139.856 37.5137C139.66 37.418 139.469 37.2949 139.282 37.1445C139.095 36.9941 138.956 36.8096 138.865 36.5908C138.778 36.3721 138.735 36.1123 138.735 35.8115C138.735 35.4652 138.806 35.1621 138.947 34.9023C139.088 34.638 139.282 34.4307 139.528 34.2803C139.774 34.1253 140.045 34.0114 140.341 33.9385C140.638 33.861 140.954 33.8223 141.292 33.8223C141.765 33.8223 142.217 33.8815 142.645 34C143.073 34.1185 143.438 34.2757 143.739 34.4717L143.329 35.5381C143.087 35.4105 142.789 35.2943 142.433 35.1895C142.082 35.0846 141.752 35.0322 141.442 35.0322C140.635 35.0322 140.232 35.2738 140.232 35.7568C140.232 35.9756 140.303 36.1396 140.444 36.249C140.59 36.3584 140.906 36.4997 141.394 36.6729C141.412 36.6774 141.524 36.7161 141.729 36.7891C141.939 36.862 142.057 36.903 142.084 36.9121C142.349 37.0033 142.565 37.0876 142.734 37.165C142.903 37.238 143.076 37.3337 143.253 37.4521C143.436 37.5706 143.577 37.6982 143.677 37.835C143.778 37.9717 143.86 38.1403 143.923 38.3408C143.992 38.5413 144.026 38.7715 144.026 39.0312C144.026 39.4141 143.951 39.749 143.8 40.0361C143.654 40.3187 143.456 40.5397 143.206 40.6992C142.955 40.8542 142.686 40.9681 142.399 41.041C142.116 41.1185 141.818 41.1572 141.503 41.1572ZM146.432 38.3818L145.981 31.0469H147.792L147.341 38.3818H146.432ZM146.056 41V39.2842H147.724V41H146.056Z" fill="#3A3C41"/>
<path d="M93.8765 68.1895H95.4292C96.105 68.1895 96.605 68.0879 96.9292 67.8848C97.2534 67.6816 97.4155 67.3242 97.4155 66.8125C97.4155 66.6211 97.396 66.4531 97.3569 66.3086C97.3179 66.1602 97.2554 66.0352 97.1694 65.9336C97.0874 65.8281 96.9897 65.7422 96.8765 65.6758C96.7671 65.6055 96.6304 65.5527 96.4663 65.5176C96.3062 65.4785 96.1362 65.4512 95.9565 65.4355C95.7808 65.4199 95.5757 65.4121 95.3413 65.4121C95.3335 65.4121 95.3257 65.4121 95.3179 65.4121C95.3101 65.4121 95.3022 65.4121 95.2944 65.4121C95.2905 65.4121 95.2847 65.4121 95.2769 65.4121C95.269 65.4121 95.2612 65.4121 95.2534 65.4121C95.2495 65.4121 95.2437 65.4121 95.2358 65.4121H93.8765V68.1895ZM92.7573 73V64.4688H95.2124C95.6421 64.4688 96.0151 64.4863 96.3315 64.5215C96.6519 64.5566 96.9585 64.625 97.2515 64.7266C97.5444 64.8281 97.7808 64.9648 97.9604 65.1367C98.144 65.3047 98.2886 65.5293 98.394 65.8105C98.5034 66.0918 98.5581 66.4238 98.5581 66.8066C98.5581 67.2363 98.4878 67.6035 98.3472 67.9082C98.2065 68.2129 97.9976 68.4531 97.7202 68.6289C97.4468 68.8047 97.1245 68.9336 96.7534 69.0156C96.3823 69.0938 95.9468 69.1328 95.4468 69.1328H93.8765V73H92.7573ZM100.005 73V68.4648C100.005 68.332 99.9976 68.1426 99.9819 67.8965C99.9702 67.6504 99.9585 67.4375 99.9468 67.2578L99.9292 66.9883H101.072L101.083 67.9258C101.447 67.207 101.982 66.8477 102.689 66.8477C102.912 66.8477 103.115 66.8711 103.298 66.918L103.292 67.873C103.062 67.8105 102.841 67.7793 102.63 67.7793C102.169 67.7793 101.798 67.9414 101.517 68.2656C101.236 68.5859 101.095 69.0488 101.095 69.6543V73H100.005ZM107.365 73.1289C106.392 73.1289 105.63 72.8398 105.08 72.2617C104.533 71.6836 104.259 70.9297 104.259 70C104.259 69.0547 104.535 68.291 105.085 67.709C105.64 67.127 106.404 66.8359 107.376 66.8359C108.345 66.8359 109.099 67.127 109.638 67.709C110.177 68.2871 110.447 69.0508 110.447 70C110.447 70.9297 110.173 71.6836 109.626 72.2617C109.08 72.8398 108.326 73.1289 107.365 73.1289ZM107.365 72.25C107.998 72.25 108.48 72.0449 108.812 71.6348C109.148 71.2246 109.316 70.6797 109.316 70C109.316 69.3086 109.146 68.7559 108.806 68.3418C108.47 67.9238 107.988 67.7148 107.359 67.7148C106.726 67.7148 106.24 67.9238 105.9 68.3418C105.56 68.7559 105.39 69.3086 105.39 70C105.39 70.6797 105.558 71.2246 105.894 71.6348C106.234 72.0449 106.724 72.25 107.365 72.25ZM114.537 72.25C115.126 72.25 115.582 72.041 115.902 71.623C116.222 71.2051 116.382 70.6445 116.382 69.9414C116.382 69.2812 116.22 68.7461 115.896 68.3359C115.572 67.9219 115.125 67.7148 114.554 67.7148C113.984 67.7148 113.541 67.9238 113.224 68.3418C112.908 68.7559 112.75 69.3047 112.75 69.9883C112.75 70.668 112.904 71.2148 113.212 71.6289C113.521 72.043 113.962 72.25 114.537 72.25ZM114.378 73.1289C113.574 73.1289 112.914 72.8457 112.398 72.2793C111.886 71.709 111.63 70.9531 111.63 70.0117C111.63 69.3945 111.74 68.8496 111.958 68.377C112.177 67.9004 112.5 67.5254 112.925 67.252C113.355 66.9746 113.859 66.8359 114.437 66.8359C114.898 66.8359 115.3 66.9395 115.644 67.1465C115.988 67.3535 116.226 67.6016 116.359 67.8906V64.293H117.443V71.4414C117.447 71.8008 117.46 72.3203 117.484 73H116.388L116.365 71.9805C116.244 72.293 116.009 72.5625 115.662 72.7891C115.318 73.0156 114.89 73.1289 114.378 73.1289ZM121.697 73.1348C120.927 73.1348 120.349 72.916 119.962 72.4785C119.576 72.0371 119.382 71.4453 119.382 70.7031V66.9883H120.455V70.7031C120.455 71.2188 120.576 71.6074 120.818 71.8691C121.064 72.127 121.417 72.2559 121.878 72.2559C122.406 72.2559 122.818 72.1055 123.115 71.8047C123.412 71.5039 123.56 71.1152 123.56 70.6387V66.9883H124.638V71.5117C124.638 72.0469 124.656 72.543 124.691 73H123.595L123.566 72.0332C123.398 72.3418 123.16 72.6035 122.851 72.8184C122.542 73.0293 122.158 73.1348 121.697 73.1348ZM129.332 73.1289C128.402 73.1289 127.658 72.8398 127.099 72.2617C126.544 71.6797 126.267 70.9355 126.267 70.0293C126.267 69.0801 126.55 68.3105 127.117 67.7207C127.683 67.1309 128.429 66.8359 129.355 66.8359C130.195 66.8359 130.857 67.0742 131.341 67.5508L130.96 68.2656C130.542 67.9023 130.033 67.7207 129.431 67.7207C128.818 67.7207 128.322 67.9219 127.943 68.3242C127.568 68.7227 127.38 69.2891 127.38 70.0234C127.38 70.7031 127.562 71.2441 127.925 71.6465C128.292 72.0488 128.789 72.25 129.414 72.25C130.019 72.25 130.566 72.0625 131.054 71.6875L131.394 72.4668C130.824 72.9082 130.136 73.1289 129.332 73.1289ZM136.035 73H135.537C134.685 72.9922 134.101 72.8398 133.785 72.543C133.472 72.2461 133.316 71.7051 133.316 70.9199V67.709H132.162V66.9883H133.339V65.4414L134.394 65.1309V66.9883H136.023V67.709H134.394V70.9785C134.394 71.1934 134.408 71.3672 134.435 71.5C134.466 71.6328 134.513 71.7461 134.576 71.8398C134.638 71.9297 134.738 71.9961 134.875 72.0391C135.011 72.082 135.166 72.1133 135.337 72.1328C135.509 72.1484 135.742 72.1562 136.035 72.1562V73ZM143.611 72.25C144.201 72.25 144.656 72.041 144.976 71.623C145.296 71.2051 145.457 70.6445 145.457 69.9414C145.457 69.2812 145.294 68.7461 144.97 68.3359C144.646 67.9219 144.199 67.7148 143.628 67.7148C143.058 67.7148 142.615 67.9238 142.298 68.3418C141.982 68.7559 141.824 69.3047 141.824 69.9883C141.824 70.668 141.978 71.2148 142.287 71.6289C142.595 72.043 143.037 72.25 143.611 72.25ZM143.453 73.1289C142.648 73.1289 141.988 72.8457 141.472 72.2793C140.96 71.709 140.705 70.9531 140.705 70.0117C140.705 69.3945 140.814 68.8496 141.033 68.377C141.251 67.9004 141.574 67.5254 142 67.252C142.429 66.9746 142.933 66.8359 143.511 66.8359C143.972 66.8359 144.375 66.9395 144.718 67.1465C145.062 67.3535 145.3 67.6016 145.433 67.8906V64.293H146.517V71.4414C146.521 71.8008 146.535 72.3203 146.558 73H145.462L145.439 71.9805C145.318 72.293 145.083 72.5625 144.736 72.7891C144.392 73.0156 143.964 73.1289 143.453 73.1289ZM149.253 69.4082H152.705C152.666 68.8574 152.505 68.4336 152.224 68.1367C151.943 67.8398 151.568 67.6914 151.099 67.6914C150.607 67.6914 150.195 67.8438 149.863 68.1484C149.535 68.4531 149.332 68.873 149.253 69.4082ZM151.234 73.1289C150.277 73.1289 149.517 72.8457 148.955 72.2793C148.392 71.709 148.111 70.9531 148.111 70.0117C148.111 69.0859 148.38 68.3262 148.919 67.7324C149.462 67.1348 150.179 66.8359 151.07 66.8359C151.632 66.8359 152.113 66.9668 152.511 67.2285C152.914 67.4902 153.21 67.8457 153.402 68.2949C153.597 68.7441 153.695 69.2656 153.695 69.8594C153.695 69.9336 153.689 70.0293 153.677 70.1465H149.224C149.236 70.8184 149.429 71.3379 149.804 71.7051C150.179 72.0684 150.675 72.25 151.292 72.25C152.011 72.25 152.648 72.0273 153.203 71.582L153.525 72.3789C152.88 72.8789 152.117 73.1289 151.234 73.1289ZM157.955 72.25C158.552 72.25 159.007 72.043 159.32 71.6289C159.636 71.2109 159.794 70.6504 159.794 69.9473C159.794 69.2832 159.634 68.7461 159.314 68.3359C158.994 67.9219 158.537 67.7148 157.943 67.7148C157.318 67.7148 156.841 67.9219 156.513 68.3359C156.189 68.75 156.027 69.293 156.027 69.9648C156.027 70.6406 156.191 71.1914 156.519 71.6172C156.847 72.0391 157.326 72.25 157.955 72.25ZM157.802 73.1289C157.353 73.1289 156.945 73.0449 156.578 72.877C156.214 72.709 155.914 72.4824 155.675 72.1973C155.441 71.9082 155.259 71.5762 155.13 71.2012C155.005 70.8223 154.943 70.4199 154.943 69.9941C154.943 69.4082 155.056 68.8789 155.283 68.4062C155.513 67.9297 155.847 67.5488 156.285 67.2637C156.722 66.9785 157.228 66.8359 157.802 66.8359C158.228 66.8359 158.615 66.9395 158.962 67.1465C159.314 67.3535 159.58 67.6191 159.759 67.9434V66.9883H160.826V73H159.748V71.9746C159.576 72.334 159.32 72.6172 158.98 72.8242C158.64 73.0273 158.248 73.1289 157.802 73.1289ZM165.472 73.1289C164.542 73.1289 163.798 72.8398 163.24 72.2617C162.685 71.6797 162.408 70.9355 162.408 70.0293C162.408 69.0801 162.691 68.3105 163.257 67.7207C163.824 67.1309 164.57 66.8359 165.496 66.8359C166.335 66.8359 166.998 67.0742 167.482 67.5508L167.101 68.2656C166.683 67.9023 166.173 67.7207 165.572 67.7207C164.958 67.7207 164.462 67.9219 164.083 68.3242C163.708 68.7227 163.521 69.2891 163.521 70.0234C163.521 70.7031 163.703 71.2441 164.066 71.6465C164.433 72.0488 164.929 72.25 165.554 72.25C166.16 72.25 166.707 72.0625 167.195 71.6875L167.535 72.4668C166.964 72.9082 166.277 73.1289 165.472 73.1289ZM172.175 73H171.677C170.826 72.9922 170.242 72.8398 169.925 72.543C169.613 72.2461 169.457 71.7051 169.457 70.9199V67.709H168.302V66.9883H169.48V65.4414L170.535 65.1309V66.9883H172.164V67.709H170.535V70.9785C170.535 71.1934 170.548 71.3672 170.576 71.5C170.607 71.6328 170.654 71.7461 170.716 71.8398C170.779 71.9297 170.878 71.9961 171.015 72.0391C171.152 72.082 171.306 72.1133 171.478 72.1328C171.65 72.1484 171.882 72.1562 172.175 72.1562V73ZM173.775 65.4707V64.4688H174.841V65.4707H173.775ZM173.769 73V66.9883H174.841V73H173.769ZM178.392 73L175.873 66.9883H177.05C177.191 67.3555 177.39 67.8691 177.648 68.5293C177.91 69.1895 178.146 69.793 178.357 70.3398C178.572 70.8828 178.769 71.3984 178.949 71.8867C179.117 71.3906 179.302 70.8711 179.505 70.3281C179.712 69.7812 179.943 69.1797 180.197 68.5234C180.455 67.8672 180.652 67.3555 180.789 66.9883H181.943L179.423 73H178.392ZM185.599 72.25C186.197 72.25 186.652 72.043 186.964 71.6289C187.281 71.2109 187.439 70.6504 187.439 69.9473C187.439 69.2832 187.279 68.7461 186.958 68.3359C186.638 67.9219 186.181 67.7148 185.587 67.7148C184.962 67.7148 184.486 67.9219 184.158 68.3359C183.833 68.75 183.671 69.293 183.671 69.9648C183.671 70.6406 183.835 71.1914 184.164 71.6172C184.492 72.0391 184.97 72.25 185.599 72.25ZM185.447 73.1289C184.998 73.1289 184.589 73.0449 184.222 72.877C183.859 72.709 183.558 72.4824 183.32 72.1973C183.085 71.9082 182.904 71.5762 182.775 71.2012C182.65 70.8223 182.587 70.4199 182.587 69.9941C182.587 69.4082 182.701 68.8789 182.927 68.4062C183.158 67.9297 183.492 67.5488 183.929 67.2637C184.367 66.9785 184.873 66.8359 185.447 66.8359C185.873 66.8359 186.259 66.9395 186.607 67.1465C186.958 67.3535 187.224 67.6191 187.404 67.9434V66.9883H188.47V73H187.392V71.9746C187.22 72.334 186.964 72.6172 186.625 72.8242C186.285 73.0273 185.892 73.1289 185.447 73.1289ZM193.585 73H193.087C192.236 72.9922 191.652 72.8398 191.335 72.543C191.023 72.2461 190.867 71.7051 190.867 70.9199V67.709H189.712V66.9883H190.89V65.4414L191.945 65.1309V66.9883H193.574V67.709H191.945V70.9785C191.945 71.1934 191.958 71.3672 191.986 71.5C192.017 71.6328 192.064 71.7461 192.126 71.8398C192.189 71.9297 192.289 71.9961 192.425 72.0391C192.562 72.082 192.716 72.1133 192.888 72.1328C193.06 72.1484 193.292 72.1562 193.585 72.1562V73ZM195.906 69.4082H199.357C199.318 68.8574 199.158 68.4336 198.876 68.1367C198.595 67.8398 198.22 67.6914 197.751 67.6914C197.259 67.6914 196.847 67.8438 196.515 68.1484C196.187 68.4531 195.984 68.873 195.906 69.4082ZM197.886 73.1289C196.929 73.1289 196.169 72.8457 195.607 72.2793C195.044 71.709 194.763 70.9531 194.763 70.0117C194.763 69.0859 195.033 68.3262 195.572 67.7324C196.115 67.1348 196.832 66.8359 197.722 66.8359C198.285 66.8359 198.765 66.9668 199.164 67.2285C199.566 67.4902 199.863 67.8457 200.054 68.2949C200.25 68.7441 200.347 69.2656 200.347 69.8594C200.347 69.9336 200.341 70.0293 200.33 70.1465H195.876C195.888 70.8184 196.082 71.3379 196.457 71.7051C196.832 72.0684 197.328 72.25 197.945 72.25C198.664 72.25 199.3 72.0273 199.855 71.582L200.177 72.3789C199.533 72.8789 198.769 73.1289 197.886 73.1289ZM204.501 72.25C205.091 72.25 205.546 72.041 205.867 71.623C206.187 71.2051 206.347 70.6445 206.347 69.9414C206.347 69.2812 206.185 68.7461 205.861 68.3359C205.537 67.9219 205.089 67.7148 204.519 67.7148C203.949 67.7148 203.505 67.9238 203.189 68.3418C202.873 68.7559 202.714 69.3047 202.714 69.9883C202.714 70.668 202.869 71.2148 203.177 71.6289C203.486 72.043 203.927 72.25 204.501 72.25ZM204.343 73.1289C203.539 73.1289 202.878 72.8457 202.363 72.2793C201.851 71.709 201.595 70.9531 201.595 70.0117C201.595 69.3945 201.705 68.8496 201.923 68.377C202.142 67.9004 202.464 67.5254 202.89 67.252C203.32 66.9746 203.824 66.8359 204.402 66.8359C204.863 66.8359 205.265 66.9395 205.609 67.1465C205.953 67.3535 206.191 67.6016 206.324 67.8906V64.293H207.408V71.4414C207.412 71.8008 207.425 72.3203 207.449 73H206.353L206.33 71.9805C206.208 72.293 205.974 72.5625 205.626 72.7891C205.283 73.0156 204.855 73.1289 204.343 73.1289ZM214.937 73.1289C214.417 73.1289 213.958 73.0508 213.56 72.8945C213.166 72.7383 212.859 72.5742 212.64 72.4023L212.939 71.5996C213.162 71.7637 213.445 71.9121 213.789 72.0449C214.136 72.1777 214.49 72.2441 214.849 72.2441C215.646 72.2441 216.044 71.9512 216.044 71.3652C216.044 71.1191 215.955 70.9355 215.775 70.8145C215.595 70.6934 215.246 70.5449 214.726 70.3691L214.21 70.1934C214.011 70.123 213.841 70.0566 213.701 69.9941C213.564 69.9316 213.425 69.8535 213.285 69.7598C213.144 69.6621 213.031 69.5586 212.945 69.4492C212.859 69.3359 212.789 69.2012 212.734 69.0449C212.683 68.8848 212.658 68.7051 212.658 68.5059C212.658 68.2207 212.716 67.9688 212.833 67.75C212.955 67.5273 213.119 67.3535 213.326 67.2285C213.533 67.0996 213.761 67.0039 214.011 66.9414C214.261 66.875 214.531 66.8418 214.82 66.8418C215.613 66.8418 216.281 67.0156 216.824 67.3633L216.525 68.1367C215.998 67.8555 215.47 67.7148 214.943 67.7148C214.556 67.7148 214.257 67.7812 214.046 67.9141C213.835 68.0469 213.73 68.2344 213.73 68.4766C213.73 68.6953 213.792 68.8574 213.917 68.9629C214.046 69.0645 214.3 69.1836 214.679 69.3203C215.019 69.4336 215.22 69.502 215.283 69.5254C215.529 69.6113 215.726 69.6855 215.875 69.748C216.023 69.8105 216.181 69.8945 216.349 70C216.521 70.1016 216.652 70.209 216.742 70.3223C216.835 70.4355 216.912 70.5781 216.97 70.75C217.033 70.918 217.064 71.1094 217.064 71.3242C217.064 71.6445 217.003 71.9258 216.882 72.168C216.761 72.4062 216.597 72.5938 216.39 72.7305C216.183 72.8633 215.958 72.9629 215.716 73.0293C215.474 73.0957 215.214 73.1289 214.937 73.1289ZM220.884 73.1348C220.115 73.1348 219.537 72.916 219.15 72.4785C218.763 72.0371 218.57 71.4453 218.57 70.7031V66.9883H219.642V70.7031C219.642 71.2188 219.763 71.6074 220.005 71.8691C220.251 72.127 220.605 72.2559 221.066 72.2559C221.593 72.2559 222.005 72.1055 222.302 71.8047C222.599 71.5039 222.748 71.1152 222.748 70.6387V66.9883H223.826V71.5117C223.826 72.0469 223.843 72.543 223.878 73H222.783L222.753 72.0332C222.585 72.3418 222.347 72.6035 222.039 72.8184C221.73 73.0293 221.345 73.1348 220.884 73.1348ZM228.519 73.1289C227.589 73.1289 226.845 72.8398 226.287 72.2617C225.732 71.6797 225.455 70.9355 225.455 70.0293C225.455 69.0801 225.738 68.3105 226.304 67.7207C226.871 67.1309 227.617 66.8359 228.542 66.8359C229.382 66.8359 230.044 67.0742 230.529 67.5508L230.148 68.2656C229.73 67.9023 229.22 67.7207 228.619 67.7207C228.005 67.7207 227.509 67.9219 227.13 68.3242C226.755 68.7227 226.568 69.2891 226.568 70.0234C226.568 70.7031 226.75 71.2441 227.113 71.6465C227.48 72.0488 227.976 72.25 228.601 72.25C229.207 72.25 229.753 72.0625 230.242 71.6875L230.582 72.4668C230.011 72.9082 229.324 73.1289 228.519 73.1289ZM234.753 73.1289C233.824 73.1289 233.08 72.8398 232.521 72.2617C231.966 71.6797 231.689 70.9355 231.689 70.0293C231.689 69.0801 231.972 68.3105 232.539 67.7207C233.105 67.1309 233.851 66.8359 234.777 66.8359C235.617 66.8359 236.279 67.0742 236.763 67.5508L236.382 68.2656C235.964 67.9023 235.455 67.7207 234.853 67.7207C234.24 67.7207 233.744 67.9219 233.365 68.3242C232.99 68.7227 232.802 69.2891 232.802 70.0234C232.802 70.7031 232.984 71.2441 233.347 71.6465C233.714 72.0488 234.21 72.25 234.835 72.25C235.441 72.25 235.988 72.0625 236.476 71.6875L236.816 72.4668C236.246 72.9082 235.558 73.1289 234.753 73.1289ZM239.066 69.4082H242.517C242.478 68.8574 242.318 68.4336 242.037 68.1367C241.755 67.8398 241.38 67.6914 240.912 67.6914C240.419 67.6914 240.007 67.8438 239.675 68.1484C239.347 68.4531 239.144 68.873 239.066 69.4082ZM241.046 73.1289C240.089 73.1289 239.33 72.8457 238.767 72.2793C238.205 71.709 237.923 70.9531 237.923 70.0117C237.923 69.0859 238.193 68.3262 238.732 67.7324C239.275 67.1348 239.992 66.8359 240.882 66.8359C241.445 66.8359 241.925 66.9668 242.324 67.2285C242.726 67.4902 243.023 67.8457 243.214 68.2949C243.41 68.7441 243.507 69.2656 243.507 69.8594C243.507 69.9336 243.501 70.0293 243.49 70.1465H239.037C239.048 70.8184 239.242 71.3379 239.617 71.7051C239.992 72.0684 240.488 72.25 241.105 72.25C241.824 72.25 242.46 72.0273 243.015 71.582L243.337 72.3789C242.693 72.8789 241.929 73.1289 241.046 73.1289ZM247.199 73.1289C246.679 73.1289 246.22 73.0508 245.822 72.8945C245.427 72.7383 245.121 72.5742 244.902 72.4023L245.201 71.5996C245.423 71.7637 245.707 71.9121 246.05 72.0449C246.398 72.1777 246.751 72.2441 247.111 72.2441C247.908 72.2441 248.306 71.9512 248.306 71.3652C248.306 71.1191 248.216 70.9355 248.037 70.8145C247.857 70.6934 247.507 70.5449 246.988 70.3691L246.472 70.1934C246.273 70.123 246.103 70.0566 245.962 69.9941C245.826 69.9316 245.687 69.8535 245.546 69.7598C245.406 69.6621 245.292 69.5586 245.207 69.4492C245.121 69.3359 245.05 69.2012 244.996 69.0449C244.945 68.8848 244.919 68.7051 244.919 68.5059C244.919 68.2207 244.978 67.9688 245.095 67.75C245.216 67.5273 245.38 67.3535 245.587 67.2285C245.794 67.0996 246.023 67.0039 246.273 66.9414C246.523 66.875 246.792 66.8418 247.082 66.8418C247.875 66.8418 248.542 67.0156 249.085 67.3633L248.787 68.1367C248.259 67.8555 247.732 67.7148 247.205 67.7148C246.818 67.7148 246.519 67.7812 246.308 67.9141C246.097 68.0469 245.992 68.2344 245.992 68.4766C245.992 68.6953 246.054 68.8574 246.179 68.9629C246.308 69.0645 246.562 69.1836 246.941 69.3203C247.281 69.4336 247.482 69.502 247.544 69.5254C247.791 69.6113 247.988 69.6855 248.136 69.748C248.285 69.8105 248.443 69.8945 248.611 70C248.783 70.1016 248.914 70.209 249.003 70.3223C249.097 70.4355 249.173 70.5781 249.232 70.75C249.294 70.918 249.326 71.1094 249.326 71.3242C249.326 71.6445 249.265 71.9258 249.144 72.168C249.023 72.4062 248.859 72.5938 248.652 72.7305C248.445 72.8633 248.22 72.9629 247.978 73.0293C247.736 73.0957 247.476 73.1289 247.199 73.1289ZM252.929 73.1289C252.41 73.1289 251.951 73.0508 251.552 72.8945C251.158 72.7383 250.851 72.5742 250.632 72.4023L250.931 71.5996C251.154 71.7637 251.437 71.9121 251.781 72.0449C252.128 72.1777 252.482 72.2441 252.841 72.2441C253.638 72.2441 254.037 71.9512 254.037 71.3652C254.037 71.1191 253.947 70.9355 253.767 70.8145C253.587 70.6934 253.238 70.5449 252.718 70.3691L252.203 70.1934C252.003 70.123 251.833 70.0566 251.693 69.9941C251.556 69.9316 251.417 69.8535 251.277 69.7598C251.136 69.6621 251.023 69.5586 250.937 69.4492C250.851 69.3359 250.781 69.2012 250.726 69.0449C250.675 68.8848 250.65 68.7051 250.65 68.5059C250.65 68.2207 250.708 67.9688 250.826 67.75C250.947 67.5273 251.111 67.3535 251.318 67.2285C251.525 67.0996 251.753 67.0039 252.003 66.9414C252.253 66.875 252.523 66.8418 252.812 66.8418C253.605 66.8418 254.273 67.0156 254.816 67.3633L254.517 68.1367C253.99 67.8555 253.462 67.7148 252.935 67.7148C252.548 67.7148 252.25 67.7812 252.039 67.9141C251.828 68.0469 251.722 68.2344 251.722 68.4766C251.722 68.6953 251.785 68.8574 251.91 68.9629C252.039 69.0645 252.292 69.1836 252.671 69.3203C253.011 69.4336 253.212 69.502 253.275 69.5254C253.521 69.6113 253.718 69.6855 253.867 69.748C254.015 69.8105 254.173 69.8945 254.341 70C254.513 70.1016 254.644 70.209 254.734 70.3223C254.828 70.4355 254.904 70.5781 254.962 70.75C255.025 70.918 255.056 71.1094 255.056 71.3242C255.056 71.6445 254.996 71.9258 254.875 72.168C254.753 72.4062 254.589 72.5938 254.382 72.7305C254.175 72.8633 253.951 72.9629 253.708 73.0293C253.466 73.0957 253.207 73.1289 252.929 73.1289ZM257.101 73V67.709H256.029V66.9883H257.101V66.4961C257.101 66.2891 257.105 66.1113 257.113 65.9629C257.125 65.8105 257.144 65.6602 257.171 65.5117C257.199 65.3594 257.238 65.2324 257.289 65.1309C257.339 65.0254 257.404 64.9238 257.482 64.8262C257.564 64.7285 257.662 64.6504 257.775 64.5918C257.888 64.5293 258.023 64.4746 258.179 64.4277C258.335 64.3809 258.513 64.3477 258.712 64.3281C258.916 64.3086 259.146 64.2988 259.404 64.2988H259.679L259.656 65.1367C259.417 65.1367 259.22 65.1445 259.064 65.1602C258.908 65.1719 258.773 65.1992 258.66 65.2422C258.546 65.2852 258.458 65.334 258.396 65.3887C258.337 65.4395 258.291 65.5195 258.255 65.6289C258.22 65.7344 258.199 65.8438 258.191 65.957C258.183 66.0664 258.179 66.2168 258.179 66.4082V66.9883H259.615V67.709H258.179V73H257.101ZM263.142 73.1348C262.373 73.1348 261.794 72.916 261.408 72.4785C261.021 72.0371 260.828 71.4453 260.828 70.7031V66.9883H261.9V70.7031C261.9 71.2188 262.021 71.6074 262.263 71.8691C262.509 72.127 262.863 72.2559 263.324 72.2559C263.851 72.2559 264.263 72.1055 264.56 71.8047C264.857 71.5039 265.005 71.1152 265.005 70.6387V66.9883H266.083V71.5117C266.083 72.0469 266.101 72.543 266.136 73H265.041L265.011 72.0332C264.843 72.3418 264.605 72.6035 264.296 72.8184C263.988 73.0293 263.603 73.1348 263.142 73.1348ZM268.158 73V64.293H269.236V73H268.158ZM271.24 73V64.293H272.318V73H271.24ZM274.509 75.5371L274.07 74.7988C275.042 74.4746 275.646 73.9609 275.88 73.2578L275.98 72.9531L273.525 66.9883H274.656L276.513 71.793L278.253 66.9883H279.337L276.912 73.3164C276.697 73.8828 276.382 74.3594 275.968 74.7461C275.558 75.1328 275.072 75.3965 274.509 75.5371ZM280.416 73V71.6816H281.792V73H280.416Z" fill="#54565B"/>
<path fill-rule="evenodd" clip-rule="evenodd" d="M377.889 38.8501C377.503 38.464 376.877 38.464 376.491 38.8501C376.105 39.2363 376.105 39.8623 376.491 40.2484L379.756 43.5138L375.752 47.5183C375.366 47.9044 375.366 48.5304 375.752 48.9165C376.138 49.3027 376.764 49.3027 377.15 48.9165L381.155 44.9121L385.158 48.9152C385.544 49.3013 386.17 49.3013 386.556 48.9152C386.942 48.5291 386.942 47.903 386.556 47.5169L382.553 43.5138L385.817 40.2498C386.203 39.8636 386.203 39.2376 385.817 38.8515C385.431 38.4654 384.805 38.4654 384.419 38.8515L381.155 42.1155L377.889 38.8501Z" fill="#54565B"/>
<defs>
<filter id="filter0_bi_853_8721" x="-11.2055" y="-11.2055" width="441.411" height="126.411" filterUnits="userSpaceOnUse" color-interpolation-filters="sRGB">
<feFlood flood-opacity="0" result="BackgroundImageFix"/>
<feGaussianBlur in="BackgroundImage" stdDeviation="5.60276"/>
<feComposite in2="SourceAlpha" operator="in" result="effect1_backgroundBlur_853_8721"/>
<feBlend mode="normal" in="SourceGraphic" in2="effect1_backgroundBlur_853_8721" result="shape"/>
<feColorMatrix in="SourceAlpha" type="matrix" values="0 0 0 0 0 0 0 0 0 0 0 0 0 0 0 0 0 0 127 0" result="hardAlpha"/>
<feOffset/>
<feGaussianBlur stdDeviation="1.3183"/>
<feComposite in2="hardAlpha" operator="arithmetic" k2="-1" k3="1"/>
<feColorMatrix type="matrix" values="0 0 0 0 1 0 0 0 0 1 0 0 0 0 1 0 0 0 0.63 0"/>
<feBlend mode="normal" in2="shape" result="effect2_innerShadow_853_8721"/>
</filter>
<linearGradient id="paint0_linear_853_8721" x1="209.5" y1="0" x2="209.5" y2="20.027" gradientUnits="userSpaceOnUse">
<stop stop-color="#EEFDF7"/>
<stop offset="1" stop-color="#EBFDF5"/>
</linearGradient>
</defs>
</svg>
