<svg width="419" height="104" viewBox="0 0 419 104" fill="none" xmlns="http://www.w3.org/2000/svg">
<g filter="url(#filter0_bi_813_10242)">
<rect y="-6.10352e-05" width="419" height="104" rx="26.3659" fill="url(#paint0_linear_813_10242)"/>
<rect x="0.659148" y="0.659087" width="417.682" height="102.682" rx="25.7068" stroke="#76AD94" stroke-width="1.3183"/>
</g>
<circle cx="42.8446" cy="51.5001" r="23.7293" fill="#38CB89"/>
<ellipse cx="43.0003" cy="50.4169" rx="5.83333" ry="5.25" fill="#38CB89"/>
<path d="M50.6299 41.8067L44.2133 39.4034C43.5483 39.1584 42.4633 39.1584 41.7983 39.4034L35.3816 41.8067C34.1449 42.2734 33.1416 43.7201 33.1416 45.0384V54.4884C33.1416 55.4334 33.7599 56.6817 34.5183 57.2417L40.9349 62.0367C42.0666 62.8884 43.9216 62.8884 45.0533 62.0367L51.4699 57.2417C52.2283 56.6701 52.8466 55.4334 52.8466 54.4884V45.0384C52.8583 43.7201 51.8549 42.2734 50.6299 41.8067ZM47.0599 48.3401L42.0433 53.3567C41.8683 53.5317 41.6466 53.6134 41.4249 53.6134C41.2033 53.6134 40.9816 53.5317 40.8066 53.3567L38.9399 51.4667C38.6016 51.1284 38.6016 50.5684 38.9399 50.2301C39.2783 49.8917 39.8383 49.8917 40.1766 50.2301L41.4366 51.4901L45.8349 47.0917C46.1733 46.7534 46.7333 46.7534 47.0716 47.0917C47.4099 47.4301 47.4099 48.0017 47.0599 48.3401Z" fill="white"/>
<path d="M95.792 41.1572C95.0856 41.1572 94.4202 41.0456 93.7959 40.8223C93.1715 40.5944 92.7067 40.3278 92.4014 40.0225L93.085 38.8877C93.3766 39.1247 93.7754 39.3389 94.2812 39.5303C94.7917 39.7171 95.2679 39.8105 95.71 39.8105C96.9769 39.8105 97.6104 39.3184 97.6104 38.334C97.6104 38.1243 97.5921 37.9535 97.5557 37.8213C97.5192 37.6846 97.4417 37.5501 97.3232 37.418C97.2093 37.2812 97.043 37.1582 96.8242 37.0488C96.6055 36.9395 96.3138 36.8232 95.9492 36.7002C95.8535 36.6637 95.6986 36.6136 95.4844 36.5498C95.2747 36.4814 95.1335 36.4336 95.0605 36.4062C94.4499 36.2057 93.9622 35.9915 93.5977 35.7637C93.2331 35.5312 92.9505 35.2327 92.75 34.8682C92.5495 34.5036 92.4492 34.0615 92.4492 33.542C92.4492 32.9632 92.6019 32.4688 92.9072 32.0586C93.2126 31.6484 93.6159 31.3477 94.1172 31.1562C94.6185 30.9603 95.1904 30.8623 95.833 30.8623C96.4163 30.8623 96.9268 30.9147 97.3643 31.0195C97.8018 31.1198 98.1458 31.2451 98.3965 31.3955C98.6471 31.5413 98.8932 31.7327 99.1348 31.9697L98.3281 33.0225C98.0501 32.7536 97.7083 32.5508 97.3027 32.4141C96.9017 32.2773 96.4847 32.209 96.0518 32.209C95.4821 32.209 95.0173 32.3161 94.6572 32.5303C94.3018 32.7399 94.124 33.0566 94.124 33.4805C94.124 33.763 94.1605 33.9863 94.2334 34.1504C94.3109 34.3145 94.459 34.4671 94.6777 34.6084C94.901 34.7451 95.2406 34.891 95.6963 35.0459C96.2751 35.2327 96.5827 35.333 96.6191 35.3467C97.6263 35.6885 98.3213 36.0781 98.7041 36.5156C99.0869 36.9486 99.2783 37.5615 99.2783 38.3545C99.2783 38.833 99.1826 39.2568 98.9912 39.626C98.8044 39.9951 98.5469 40.2891 98.2188 40.5078C97.8906 40.722 97.5215 40.8838 97.1113 40.9932C96.7057 41.1025 96.266 41.1572 95.792 41.1572ZM103.756 41.1572C102.876 41.1572 102.204 40.9066 101.739 40.4053C101.279 39.8994 101.049 39.2272 101.049 38.3887V33.9863H102.566V38.375C102.566 38.89 102.694 39.2751 102.949 39.5303C103.209 39.7855 103.576 39.9131 104.05 39.9131C104.597 39.9131 105.011 39.7673 105.294 39.4756C105.576 39.1839 105.718 38.751 105.718 38.1768V33.9863H107.249V39.168C107.249 39.7513 107.272 40.362 107.317 41H105.745L105.718 39.9336C105.663 40.0612 105.588 40.1888 105.492 40.3164C105.396 40.444 105.271 40.5762 105.116 40.7129C104.961 40.8451 104.765 40.9521 104.528 41.0342C104.291 41.1162 104.034 41.1572 103.756 41.1572ZM112.656 41.1572C111.918 41.1572 111.271 40.9932 110.715 40.665C110.159 40.3324 109.74 39.8926 109.457 39.3457C109.174 38.7988 109.033 38.1882 109.033 37.5137C109.033 36.8027 109.179 36.167 109.471 35.6064C109.767 35.0459 110.191 34.6061 110.742 34.2871C111.298 33.9681 111.938 33.8086 112.663 33.8086C113.707 33.8086 114.518 34.1094 115.097 34.7109L114.557 35.709C114.06 35.2715 113.474 35.0527 112.8 35.0527C112.13 35.0527 111.599 35.2692 111.207 35.7021C110.82 36.1351 110.626 36.7367 110.626 37.5068C110.626 38.236 110.822 38.8193 111.214 39.2568C111.606 39.6943 112.139 39.9131 112.813 39.9131C113.442 39.9131 114.046 39.6966 114.625 39.2637L115.097 40.3848C114.377 40.8997 113.563 41.1572 112.656 41.1572ZM119.998 41.1572C119.26 41.1572 118.613 40.9932 118.057 40.665C117.501 40.3324 117.081 39.8926 116.799 39.3457C116.516 38.7988 116.375 38.1882 116.375 37.5137C116.375 36.8027 116.521 36.167 116.812 35.6064C117.109 35.0459 117.533 34.6061 118.084 34.2871C118.64 33.9681 119.28 33.8086 120.005 33.8086C121.049 33.8086 121.86 34.1094 122.438 34.7109L121.898 35.709C121.402 35.2715 120.816 35.0527 120.142 35.0527C119.472 35.0527 118.941 35.2692 118.549 35.7021C118.161 36.1351 117.968 36.7367 117.968 37.5068C117.968 38.236 118.164 38.8193 118.556 39.2568C118.948 39.6943 119.481 39.9131 120.155 39.9131C120.784 39.9131 121.388 39.6966 121.967 39.2637L122.438 40.3848C121.718 40.8997 120.905 41.1572 119.998 41.1572ZM125.351 36.707H128.974C128.914 36.1556 128.737 35.734 128.44 35.4424C128.149 35.1507 127.773 35.0049 127.312 35.0049C126.798 35.0049 126.367 35.1553 126.021 35.4561C125.679 35.7568 125.455 36.1738 125.351 36.707ZM127.449 41.1572C126.301 41.1572 125.392 40.8223 124.722 40.1523C124.052 39.4824 123.717 38.5983 123.717 37.5C123.717 36.821 123.856 36.2035 124.134 35.6475C124.412 35.0915 124.822 34.6471 125.364 34.3145C125.907 33.9772 126.533 33.8086 127.244 33.8086C127.768 33.8086 128.231 33.902 128.632 34.0889C129.037 34.2712 129.361 34.5286 129.603 34.8613C129.849 35.1895 130.033 35.57 130.156 36.0029C130.279 36.4313 130.341 36.9053 130.341 37.4248C130.341 37.5205 130.329 37.6253 130.307 37.7393H125.316C125.344 38.4593 125.56 39.0016 125.966 39.3662C126.371 39.7308 126.905 39.9131 127.565 39.9131C128.363 39.9131 129.097 39.6579 129.767 39.1475L130.197 40.2686C129.409 40.861 128.493 41.1572 127.449 41.1572ZM134.75 41.1572C134.139 41.1572 133.588 41.0684 133.096 40.8906C132.604 40.7129 132.216 40.5124 131.934 40.2891L132.33 39.168C132.608 39.3776 132.959 39.5576 133.383 39.708C133.807 39.8584 134.221 39.9336 134.627 39.9336C135.438 39.9336 135.844 39.6351 135.844 39.0381C135.844 38.8102 135.759 38.6348 135.591 38.5117C135.422 38.3841 135.064 38.2269 134.518 38.04L133.861 37.8145C133.551 37.7096 133.299 37.6094 133.103 37.5137C132.907 37.418 132.715 37.2949 132.528 37.1445C132.341 36.9941 132.202 36.8096 132.111 36.5908C132.025 36.3721 131.981 36.1123 131.981 35.8115C131.981 35.4652 132.052 35.1621 132.193 34.9023C132.335 34.638 132.528 34.4307 132.774 34.2803C133.021 34.1253 133.292 34.0114 133.588 33.9385C133.884 33.861 134.201 33.8223 134.538 33.8223C135.012 33.8223 135.463 33.8815 135.892 34C136.32 34.1185 136.685 34.2757 136.985 34.4717L136.575 35.5381C136.334 35.4105 136.035 35.2943 135.68 35.1895C135.329 35.0846 134.998 35.0322 134.688 35.0322C133.882 35.0322 133.479 35.2738 133.479 35.7568C133.479 35.9756 133.549 36.1396 133.69 36.249C133.836 36.3584 134.153 36.4997 134.641 36.6729C134.659 36.6774 134.771 36.7161 134.976 36.7891C135.185 36.862 135.304 36.903 135.331 36.9121C135.595 37.0033 135.812 37.0876 135.98 37.165C136.149 37.238 136.322 37.3337 136.5 37.4521C136.682 37.5706 136.824 37.6982 136.924 37.835C137.024 37.9717 137.106 38.1403 137.17 38.3408C137.238 38.5413 137.272 38.7715 137.272 39.0312C137.272 39.4141 137.197 39.749 137.047 40.0361C136.901 40.3187 136.703 40.5397 136.452 40.6992C136.201 40.8542 135.933 40.9681 135.646 41.041C135.363 41.1185 135.064 41.1572 134.75 41.1572ZM141.504 41.1572C140.893 41.1572 140.342 41.0684 139.85 40.8906C139.357 40.7129 138.97 40.5124 138.688 40.2891L139.084 39.168C139.362 39.3776 139.713 39.5576 140.137 39.708C140.561 39.8584 140.975 39.9336 141.381 39.9336C142.192 39.9336 142.598 39.6351 142.598 39.0381C142.598 38.8102 142.513 38.6348 142.345 38.5117C142.176 38.3841 141.818 38.2269 141.271 38.04L140.615 37.8145C140.305 37.7096 140.052 37.6094 139.856 37.5137C139.66 37.418 139.469 37.2949 139.282 37.1445C139.095 36.9941 138.956 36.8096 138.865 36.5908C138.779 36.3721 138.735 36.1123 138.735 35.8115C138.735 35.4652 138.806 35.1621 138.947 34.9023C139.089 34.638 139.282 34.4307 139.528 34.2803C139.774 34.1253 140.046 34.0114 140.342 33.9385C140.638 33.861 140.955 33.8223 141.292 33.8223C141.766 33.8223 142.217 33.8815 142.646 34C143.074 34.1185 143.438 34.2757 143.739 34.4717L143.329 35.5381C143.088 35.4105 142.789 35.2943 142.434 35.1895C142.083 35.0846 141.752 35.0322 141.442 35.0322C140.636 35.0322 140.232 35.2738 140.232 35.7568C140.232 35.9756 140.303 36.1396 140.444 36.249C140.59 36.3584 140.907 36.4997 141.395 36.6729C141.413 36.6774 141.524 36.7161 141.729 36.7891C141.939 36.862 142.058 36.903 142.085 36.9121C142.349 37.0033 142.566 37.0876 142.734 37.165C142.903 37.238 143.076 37.3337 143.254 37.4521C143.436 37.5706 143.577 37.6982 143.678 37.835C143.778 37.9717 143.86 38.1403 143.924 38.3408C143.992 38.5413 144.026 38.7715 144.026 39.0312C144.026 39.4141 143.951 39.749 143.801 40.0361C143.655 40.3187 143.457 40.5397 143.206 40.6992C142.955 40.8542 142.687 40.9681 142.399 41.041C142.117 41.1185 141.818 41.1572 141.504 41.1572ZM146.433 38.3818L145.981 31.0469H147.793L147.342 38.3818H146.433ZM146.057 41V39.2842H147.725V41H146.057Z" fill="#3A3C41"/>
<path d="M95.0898 72.1855C95.3242 72.1855 95.5352 72.1641 95.7227 72.1211C95.9141 72.0781 96.0801 72.0176 96.2207 71.9395C96.3613 71.8574 96.4785 71.7578 96.5723 71.6406C96.6699 71.5195 96.7422 71.3828 96.7891 71.2305C96.8359 71.0742 96.8594 70.9023 96.8594 70.7148C96.8594 70.5117 96.8379 70.3418 96.7949 70.2051C96.752 70.0645 96.6699 69.9316 96.5488 69.8066C96.4277 69.6816 96.2617 69.5703 96.0508 69.4727C95.8438 69.3711 95.5684 69.2676 95.2246 69.1621C95.1895 69.1504 95.1035 69.127 94.9668 69.0918C94.834 69.0527 94.7461 69.0254 94.7031 69.0098C93.8867 68.7754 93.291 68.4785 92.916 68.1191C92.5449 67.7598 92.3594 67.2422 92.3594 66.5664C92.3594 66.0859 92.4844 65.6738 92.7344 65.3301C92.9844 64.9863 93.3184 64.7324 93.7363 64.5684C94.1582 64.4004 94.6426 64.3164 95.1895 64.3164C96.3418 64.3164 97.2188 64.6133 97.8203 65.207L97.2637 65.9629C97.0645 65.7676 96.7949 65.6016 96.4551 65.4648C96.1152 65.3281 95.7383 65.2598 95.3242 65.2598C94.7852 65.2598 94.3535 65.3672 94.0293 65.582C93.709 65.7969 93.5488 66.1133 93.5488 66.5312C93.5488 66.8125 93.5859 67.0352 93.6602 67.1992C93.7383 67.3633 93.877 67.5059 94.0762 67.627C94.2793 67.748 94.584 67.873 94.9902 68.002C94.998 68.0059 95.0703 68.0273 95.207 68.0664C95.3477 68.1055 95.4414 68.1309 95.4883 68.1426C95.9883 68.291 96.3984 68.4453 96.7188 68.6055C97.043 68.7656 97.3027 68.9512 97.498 69.1621C97.6934 69.3691 97.8301 69.5977 97.9082 69.8477C97.9863 70.0977 98.0254 70.3984 98.0254 70.75C98.0254 71.1445 97.9492 71.4961 97.7969 71.8047C97.6484 72.1094 97.4414 72.3574 97.1758 72.5488C96.9102 72.7402 96.6055 72.8848 96.2617 72.9824C95.918 73.0801 95.543 73.1289 95.1367 73.1289C94.5 73.1289 93.9297 73.0254 93.4258 72.8184C92.9258 72.6074 92.5605 72.3906 92.3301 72.168L92.8281 71.3594C93.0781 71.5586 93.4062 71.7461 93.8125 71.9219C94.2188 72.0977 94.6445 72.1855 95.0898 72.1855ZM100.422 69.4082H103.873C103.834 68.8574 103.674 68.4336 103.393 68.1367C103.111 67.8398 102.736 67.6914 102.268 67.6914C101.775 67.6914 101.363 67.8438 101.031 68.1484C100.703 68.4531 100.5 68.873 100.422 69.4082ZM102.402 73.1289C101.445 73.1289 100.686 72.8457 100.123 72.2793C99.5605 71.709 99.2793 70.9531 99.2793 70.0117C99.2793 69.0859 99.5488 68.3262 100.088 67.7324C100.631 67.1348 101.348 66.8359 102.238 66.8359C102.801 66.8359 103.281 66.9668 103.68 67.2285C104.082 67.4902 104.379 67.8457 104.57 68.2949C104.766 68.7441 104.863 69.2656 104.863 69.8594C104.863 69.9336 104.857 70.0293 104.846 70.1465H100.393C100.404 70.8184 100.598 71.3379 100.973 71.7051C101.348 72.0684 101.844 72.25 102.461 72.25C103.18 72.25 103.816 72.0273 104.371 71.582L104.693 72.3789C104.049 72.8789 103.285 73.1289 102.402 73.1289ZM106.568 73V68.4648C106.568 68.332 106.561 68.1426 106.545 67.8965C106.533 67.6504 106.521 67.4375 106.51 67.2578L106.492 66.9883H107.635L107.646 67.9258C108.01 67.207 108.545 66.8477 109.252 66.8477C109.475 66.8477 109.678 66.8711 109.861 66.918L109.855 67.873C109.625 67.8105 109.404 67.7793 109.193 67.7793C108.732 67.7793 108.361 67.9414 108.08 68.2656C107.799 68.5859 107.658 69.0488 107.658 69.6543V73H106.568ZM112.814 73L110.295 66.9883H111.473C111.613 67.3555 111.812 67.8691 112.07 68.5293C112.332 69.1895 112.568 69.793 112.779 70.3398C112.994 70.8828 113.191 71.3984 113.371 71.8867C113.539 71.3906 113.725 70.8711 113.928 70.3281C114.135 69.7812 114.365 69.1797 114.619 68.5234C114.877 67.8672 115.074 67.3555 115.211 66.9883H116.365L113.846 73H112.814ZM117.432 65.4707V64.4688H118.498V65.4707H117.432ZM117.426 73V66.9883H118.498V73H117.426ZM123.121 73.1289C122.191 73.1289 121.447 72.8398 120.889 72.2617C120.334 71.6797 120.057 70.9355 120.057 70.0293C120.057 69.0801 120.34 68.3105 120.906 67.7207C121.473 67.1309 122.219 66.8359 123.145 66.8359C123.984 66.8359 124.646 67.0742 125.131 67.5508L124.75 68.2656C124.332 67.9023 123.822 67.7207 123.221 67.7207C122.607 67.7207 122.111 67.9219 121.732 68.3242C121.357 68.7227 121.17 69.2891 121.17 70.0234C121.17 70.7031 121.352 71.2441 121.715 71.6465C122.082 72.0488 122.578 72.25 123.203 72.25C123.809 72.25 124.355 72.0625 124.844 71.6875L125.184 72.4668C124.613 72.9082 123.926 73.1289 123.121 73.1289ZM127.434 69.4082H130.885C130.846 68.8574 130.686 68.4336 130.404 68.1367C130.123 67.8398 129.748 67.6914 129.279 67.6914C128.787 67.6914 128.375 67.8438 128.043 68.1484C127.715 68.4531 127.512 68.873 127.434 69.4082ZM129.414 73.1289C128.457 73.1289 127.697 72.8457 127.135 72.2793C126.572 71.709 126.291 70.9531 126.291 70.0117C126.291 69.0859 126.561 68.3262 127.1 67.7324C127.643 67.1348 128.359 66.8359 129.25 66.8359C129.812 66.8359 130.293 66.9668 130.691 67.2285C131.094 67.4902 131.391 67.8457 131.582 68.2949C131.777 68.7441 131.875 69.2656 131.875 69.8594C131.875 69.9336 131.869 70.0293 131.857 70.1465H127.404C127.416 70.8184 127.609 71.3379 127.984 71.7051C128.359 72.0684 128.855 72.25 129.473 72.25C130.191 72.25 130.828 72.0273 131.383 71.582L131.705 72.3789C131.061 72.8789 130.297 73.1289 129.414 73.1289ZM138.59 69.8066H141.602C141.105 68.4043 140.605 67.0156 140.102 65.6406C139.594 67.0352 139.09 68.4238 138.59 69.8066ZM136.205 73L139.516 64.4688H140.711L144.039 73H142.814L141.936 70.7207H138.285L137.424 73H136.205ZM147.883 73.1289C146.953 73.1289 146.209 72.8398 145.65 72.2617C145.096 71.6797 144.818 70.9355 144.818 70.0293C144.818 69.0801 145.102 68.3105 145.668 67.7207C146.234 67.1309 146.98 66.8359 147.906 66.8359C148.746 66.8359 149.408 67.0742 149.893 67.5508L149.512 68.2656C149.094 67.9023 148.584 67.7207 147.982 67.7207C147.369 67.7207 146.873 67.9219 146.494 68.3242C146.119 68.7227 145.932 69.2891 145.932 70.0234C145.932 70.7031 146.113 71.2441 146.477 71.6465C146.844 72.0488 147.34 72.25 147.965 72.25C148.57 72.25 149.117 72.0625 149.605 71.6875L149.945 72.4668C149.375 72.9082 148.688 73.1289 147.883 73.1289ZM154.586 73H154.088C153.236 72.9922 152.652 72.8398 152.336 72.543C152.023 72.2461 151.867 71.7051 151.867 70.9199V67.709H150.713V66.9883H151.891V65.4414L152.945 65.1309V66.9883H154.574V67.709H152.945V70.9785C152.945 71.1934 152.959 71.3672 152.986 71.5C153.018 71.6328 153.064 71.7461 153.127 71.8398C153.189 71.9297 153.289 71.9961 153.426 72.0391C153.562 72.082 153.717 72.1133 153.889 72.1328C154.061 72.1484 154.293 72.1562 154.586 72.1562V73ZM156.186 65.4707V64.4688H157.252V65.4707H156.186ZM156.18 73V66.9883H157.252V73H156.18ZM160.803 73L158.283 66.9883H159.461C159.602 67.3555 159.801 67.8691 160.059 68.5293C160.32 69.1895 160.557 69.793 160.768 70.3398C160.982 70.8828 161.18 71.3984 161.359 71.8867C161.527 71.3906 161.713 70.8711 161.916 70.3281C162.123 69.7812 162.354 69.1797 162.607 68.5234C162.865 67.8672 163.062 67.3555 163.199 66.9883H164.354L161.834 73H160.803ZM168.01 72.25C168.607 72.25 169.062 72.043 169.375 71.6289C169.691 71.2109 169.85 70.6504 169.85 69.9473C169.85 69.2832 169.689 68.7461 169.369 68.3359C169.049 67.9219 168.592 67.7148 167.998 67.7148C167.373 67.7148 166.896 67.9219 166.568 68.3359C166.244 68.75 166.082 69.293 166.082 69.9648C166.082 70.6406 166.246 71.1914 166.574 71.6172C166.902 72.0391 167.381 72.25 168.01 72.25ZM167.857 73.1289C167.408 73.1289 167 73.0449 166.633 72.877C166.27 72.709 165.969 72.4824 165.73 72.1973C165.496 71.9082 165.314 71.5762 165.186 71.2012C165.061 70.8223 164.998 70.4199 164.998 69.9941C164.998 69.4082 165.111 68.8789 165.338 68.4062C165.568 67.9297 165.902 67.5488 166.34 67.2637C166.777 66.9785 167.283 66.8359 167.857 66.8359C168.283 66.8359 168.67 66.9395 169.018 67.1465C169.369 67.3535 169.635 67.6191 169.814 67.9434V66.9883H170.881V73H169.803V71.9746C169.631 72.334 169.375 72.6172 169.035 72.8242C168.695 73.0273 168.303 73.1289 167.857 73.1289ZM175.996 73H175.498C174.646 72.9922 174.062 72.8398 173.746 72.543C173.434 72.2461 173.277 71.7051 173.277 70.9199V67.709H172.123V66.9883H173.301V65.4414L174.355 65.1309V66.9883H175.984V67.709H174.355V70.9785C174.355 71.1934 174.369 71.3672 174.396 71.5C174.428 71.6328 174.475 71.7461 174.537 71.8398C174.6 71.9297 174.699 71.9961 174.836 72.0391C174.973 72.082 175.127 72.1133 175.299 72.1328C175.471 72.1484 175.703 72.1562 175.996 72.1562V73ZM178.316 69.4082H181.768C181.729 68.8574 181.568 68.4336 181.287 68.1367C181.006 67.8398 180.631 67.6914 180.162 67.6914C179.67 67.6914 179.258 67.8438 178.926 68.1484C178.598 68.4531 178.395 68.873 178.316 69.4082ZM180.297 73.1289C179.34 73.1289 178.58 72.8457 178.018 72.2793C177.455 71.709 177.174 70.9531 177.174 70.0117C177.174 69.0859 177.443 68.3262 177.982 67.7324C178.525 67.1348 179.242 66.8359 180.133 66.8359C180.695 66.8359 181.176 66.9668 181.574 67.2285C181.977 67.4902 182.273 67.8457 182.465 68.2949C182.66 68.7441 182.758 69.2656 182.758 69.8594C182.758 69.9336 182.752 70.0293 182.74 70.1465H178.287C178.299 70.8184 178.492 71.3379 178.867 71.7051C179.242 72.0684 179.738 72.25 180.355 72.25C181.074 72.25 181.711 72.0273 182.266 71.582L182.588 72.3789C181.943 72.8789 181.18 73.1289 180.297 73.1289ZM186.912 72.25C187.502 72.25 187.957 72.041 188.277 71.623C188.598 71.2051 188.758 70.6445 188.758 69.9414C188.758 69.2812 188.596 68.7461 188.271 68.3359C187.947 67.9219 187.5 67.7148 186.93 67.7148C186.359 67.7148 185.916 67.9238 185.6 68.3418C185.283 68.7559 185.125 69.3047 185.125 69.9883C185.125 70.668 185.279 71.2148 185.588 71.6289C185.896 72.043 186.338 72.25 186.912 72.25ZM186.754 73.1289C185.949 73.1289 185.289 72.8457 184.773 72.2793C184.262 71.709 184.006 70.9531 184.006 70.0117C184.006 69.3945 184.115 68.8496 184.334 68.377C184.553 67.9004 184.875 67.5254 185.301 67.252C185.73 66.9746 186.234 66.8359 186.812 66.8359C187.273 66.8359 187.676 66.9395 188.02 67.1465C188.363 67.3535 188.602 67.6016 188.734 67.8906V64.293H189.818V71.4414C189.822 71.8008 189.836 72.3203 189.859 73H188.764L188.74 71.9805C188.619 72.293 188.385 72.5625 188.037 72.7891C187.693 73.0156 187.266 73.1289 186.754 73.1289ZM197.828 72.1855C198.062 72.1855 198.273 72.1641 198.461 72.1211C198.652 72.0781 198.818 72.0176 198.959 71.9395C199.1 71.8574 199.217 71.7578 199.311 71.6406C199.408 71.5195 199.48 71.3828 199.527 71.2305C199.574 71.0742 199.598 70.9023 199.598 70.7148C199.598 70.5117 199.576 70.3418 199.533 70.2051C199.49 70.0645 199.408 69.9316 199.287 69.8066C199.166 69.6816 199 69.5703 198.789 69.4727C198.582 69.3711 198.307 69.2676 197.963 69.1621C197.928 69.1504 197.842 69.127 197.705 69.0918C197.572 69.0527 197.484 69.0254 197.441 69.0098C196.625 68.7754 196.029 68.4785 195.654 68.1191C195.283 67.7598 195.098 67.2422 195.098 66.5664C195.098 66.0859 195.223 65.6738 195.473 65.3301C195.723 64.9863 196.057 64.7324 196.475 64.5684C196.896 64.4004 197.381 64.3164 197.928 64.3164C199.08 64.3164 199.957 64.6133 200.559 65.207L200.002 65.9629C199.803 65.7676 199.533 65.6016 199.193 65.4648C198.854 65.3281 198.477 65.2598 198.062 65.2598C197.523 65.2598 197.092 65.3672 196.768 65.582C196.447 65.7969 196.287 66.1133 196.287 66.5312C196.287 66.8125 196.324 67.0352 196.398 67.1992C196.477 67.3633 196.615 67.5059 196.814 67.627C197.018 67.748 197.322 67.873 197.729 68.002C197.736 68.0059 197.809 68.0273 197.945 68.0664C198.086 68.1055 198.18 68.1309 198.227 68.1426C198.727 68.291 199.137 68.4453 199.457 68.6055C199.781 68.7656 200.041 68.9512 200.236 69.1621C200.432 69.3691 200.568 69.5977 200.646 69.8477C200.725 70.0977 200.764 70.3984 200.764 70.75C200.764 71.1445 200.688 71.4961 200.535 71.8047C200.387 72.1094 200.18 72.3574 199.914 72.5488C199.648 72.7402 199.344 72.8848 199 72.9824C198.656 73.0801 198.281 73.1289 197.875 73.1289C197.238 73.1289 196.668 73.0254 196.164 72.8184C195.664 72.6074 195.299 72.3906 195.068 72.168L195.566 71.3594C195.816 71.5586 196.145 71.7461 196.551 71.9219C196.957 72.0977 197.383 72.1855 197.828 72.1855ZM204.678 73.1348C203.908 73.1348 203.33 72.916 202.943 72.4785C202.557 72.0371 202.363 71.4453 202.363 70.7031V66.9883H203.436V70.7031C203.436 71.2188 203.557 71.6074 203.799 71.8691C204.045 72.127 204.398 72.2559 204.859 72.2559C205.387 72.2559 205.799 72.1055 206.096 71.8047C206.393 71.5039 206.541 71.1152 206.541 70.6387V66.9883H207.619V71.5117C207.619 72.0469 207.637 72.543 207.672 73H206.576L206.547 72.0332C206.379 72.3418 206.141 72.6035 205.832 72.8184C205.523 73.0293 205.139 73.1348 204.678 73.1348ZM212.312 73.1289C211.383 73.1289 210.639 72.8398 210.08 72.2617C209.525 71.6797 209.248 70.9355 209.248 70.0293C209.248 69.0801 209.531 68.3105 210.098 67.7207C210.664 67.1309 211.41 66.8359 212.336 66.8359C213.176 66.8359 213.838 67.0742 214.322 67.5508L213.941 68.2656C213.523 67.9023 213.014 67.7207 212.412 67.7207C211.799 67.7207 211.303 67.9219 210.924 68.3242C210.549 68.7227 210.361 69.2891 210.361 70.0234C210.361 70.7031 210.543 71.2441 210.906 71.6465C211.273 72.0488 211.77 72.25 212.395 72.25C213 72.25 213.547 72.0625 214.035 71.6875L214.375 72.4668C213.805 72.9082 213.117 73.1289 212.312 73.1289ZM218.547 73.1289C217.617 73.1289 216.873 72.8398 216.314 72.2617C215.76 71.6797 215.482 70.9355 215.482 70.0293C215.482 69.0801 215.766 68.3105 216.332 67.7207C216.898 67.1309 217.645 66.8359 218.57 66.8359C219.41 66.8359 220.072 67.0742 220.557 67.5508L220.176 68.2656C219.758 67.9023 219.248 67.7207 218.646 67.7207C218.033 67.7207 217.537 67.9219 217.158 68.3242C216.783 68.7227 216.596 69.2891 216.596 70.0234C216.596 70.7031 216.777 71.2441 217.141 71.6465C217.508 72.0488 218.004 72.25 218.629 72.25C219.234 72.25 219.781 72.0625 220.27 71.6875L220.609 72.4668C220.039 72.9082 219.352 73.1289 218.547 73.1289ZM222.859 69.4082H226.311C226.271 68.8574 226.111 68.4336 225.83 68.1367C225.549 67.8398 225.174 67.6914 224.705 67.6914C224.213 67.6914 223.801 67.8438 223.469 68.1484C223.141 68.4531 222.938 68.873 222.859 69.4082ZM224.84 73.1289C223.883 73.1289 223.123 72.8457 222.561 72.2793C221.998 71.709 221.717 70.9531 221.717 70.0117C221.717 69.0859 221.986 68.3262 222.525 67.7324C223.068 67.1348 223.785 66.8359 224.676 66.8359C225.238 66.8359 225.719 66.9668 226.117 67.2285C226.52 67.4902 226.816 67.8457 227.008 68.2949C227.203 68.7441 227.301 69.2656 227.301 69.8594C227.301 69.9336 227.295 70.0293 227.283 70.1465H222.83C222.842 70.8184 223.035 71.3379 223.41 71.7051C223.785 72.0684 224.281 72.25 224.898 72.25C225.617 72.25 226.254 72.0273 226.809 71.582L227.131 72.3789C226.486 72.8789 225.723 73.1289 224.84 73.1289ZM230.992 73.1289C230.473 73.1289 230.014 73.0508 229.615 72.8945C229.221 72.7383 228.914 72.5742 228.695 72.4023L228.994 71.5996C229.217 71.7637 229.5 71.9121 229.844 72.0449C230.191 72.1777 230.545 72.2441 230.904 72.2441C231.701 72.2441 232.1 71.9512 232.1 71.3652C232.1 71.1191 232.01 70.9355 231.83 70.8145C231.65 70.6934 231.301 70.5449 230.781 70.3691L230.266 70.1934C230.066 70.123 229.896 70.0566 229.756 69.9941C229.619 69.9316 229.48 69.8535 229.34 69.7598C229.199 69.6621 229.086 69.5586 229 69.4492C228.914 69.3359 228.844 69.2012 228.789 69.0449C228.738 68.8848 228.713 68.7051 228.713 68.5059C228.713 68.2207 228.771 67.9688 228.889 67.75C229.01 67.5273 229.174 67.3535 229.381 67.2285C229.588 67.0996 229.816 67.0039 230.066 66.9414C230.316 66.875 230.586 66.8418 230.875 66.8418C231.668 66.8418 232.336 67.0156 232.879 67.3633L232.58 68.1367C232.053 67.8555 231.525 67.7148 230.998 67.7148C230.611 67.7148 230.312 67.7812 230.102 67.9141C229.891 68.0469 229.785 68.2344 229.785 68.4766C229.785 68.6953 229.848 68.8574 229.973 68.9629C230.102 69.0645 230.355 69.1836 230.734 69.3203C231.074 69.4336 231.275 69.502 231.338 69.5254C231.584 69.6113 231.781 69.6855 231.93 69.748C232.078 69.8105 232.236 69.8945 232.404 70C232.576 70.1016 232.707 70.209 232.797 70.3223C232.891 70.4355 232.967 70.5781 233.025 70.75C233.088 70.918 233.119 71.1094 233.119 71.3242C233.119 71.6445 233.059 71.9258 232.938 72.168C232.816 72.4062 232.652 72.5938 232.445 72.7305C232.238 72.8633 232.014 72.9629 231.771 73.0293C231.529 73.0957 231.27 73.1289 230.992 73.1289ZM236.723 73.1289C236.203 73.1289 235.744 73.0508 235.346 72.8945C234.951 72.7383 234.645 72.5742 234.426 72.4023L234.725 71.5996C234.947 71.7637 235.23 71.9121 235.574 72.0449C235.922 72.1777 236.275 72.2441 236.635 72.2441C237.432 72.2441 237.83 71.9512 237.83 71.3652C237.83 71.1191 237.74 70.9355 237.561 70.8145C237.381 70.6934 237.031 70.5449 236.512 70.3691L235.996 70.1934C235.797 70.123 235.627 70.0566 235.486 69.9941C235.35 69.9316 235.211 69.8535 235.07 69.7598C234.93 69.6621 234.816 69.5586 234.73 69.4492C234.645 69.3359 234.574 69.2012 234.52 69.0449C234.469 68.8848 234.443 68.7051 234.443 68.5059C234.443 68.2207 234.502 67.9688 234.619 67.75C234.74 67.5273 234.904 67.3535 235.111 67.2285C235.318 67.0996 235.547 67.0039 235.797 66.9414C236.047 66.875 236.316 66.8418 236.605 66.8418C237.398 66.8418 238.066 67.0156 238.609 67.3633L238.311 68.1367C237.783 67.8555 237.256 67.7148 236.729 67.7148C236.342 67.7148 236.043 67.7812 235.832 67.9141C235.621 68.0469 235.516 68.2344 235.516 68.4766C235.516 68.6953 235.578 68.8574 235.703 68.9629C235.832 69.0645 236.086 69.1836 236.465 69.3203C236.805 69.4336 237.006 69.502 237.068 69.5254C237.314 69.6113 237.512 69.6855 237.66 69.748C237.809 69.8105 237.967 69.8945 238.135 70C238.307 70.1016 238.438 70.209 238.527 70.3223C238.621 70.4355 238.697 70.5781 238.756 70.75C238.818 70.918 238.85 71.1094 238.85 71.3242C238.85 71.6445 238.789 71.9258 238.668 72.168C238.547 72.4062 238.383 72.5938 238.176 72.7305C237.969 72.8633 237.744 72.9629 237.502 73.0293C237.26 73.0957 237 73.1289 236.723 73.1289ZM240.895 73V67.709H239.822V66.9883H240.895V66.4961C240.895 66.2891 240.898 66.1113 240.906 65.9629C240.918 65.8105 240.938 65.6602 240.965 65.5117C240.992 65.3594 241.031 65.2324 241.082 65.1309C241.133 65.0254 241.197 64.9238 241.275 64.8262C241.357 64.7285 241.455 64.6504 241.568 64.5918C241.682 64.5293 241.816 64.4746 241.973 64.4277C242.129 64.3809 242.307 64.3477 242.506 64.3281C242.709 64.3086 242.939 64.2988 243.197 64.2988H243.473L243.449 65.1367C243.211 65.1367 243.014 65.1445 242.857 65.1602C242.701 65.1719 242.566 65.1992 242.453 65.2422C242.34 65.2852 242.252 65.334 242.189 65.3887C242.131 65.4395 242.084 65.5195 242.049 65.6289C242.014 65.7344 241.992 65.8438 241.984 65.957C241.977 66.0664 241.973 66.2168 241.973 66.4082V66.9883H243.408V67.709H241.973V73H240.895ZM246.936 73.1348C246.166 73.1348 245.588 72.916 245.201 72.4785C244.814 72.0371 244.621 71.4453 244.621 70.7031V66.9883H245.693V70.7031C245.693 71.2188 245.814 71.6074 246.057 71.8691C246.303 72.127 246.656 72.2559 247.117 72.2559C247.645 72.2559 248.057 72.1055 248.354 71.8047C248.65 71.5039 248.799 71.1152 248.799 70.6387V66.9883H249.877V71.5117C249.877 72.0469 249.895 72.543 249.93 73H248.834L248.805 72.0332C248.637 72.3418 248.398 72.6035 248.09 72.8184C247.781 73.0293 247.396 73.1348 246.936 73.1348ZM251.951 73V64.293H253.029V73H251.951ZM255.033 73V64.293H256.111V73H255.033ZM258.303 75.5371L257.863 74.7988C258.836 74.4746 259.439 73.9609 259.674 73.2578L259.773 72.9531L257.318 66.9883H258.449L260.307 71.793L262.047 66.9883H263.131L260.705 73.3164C260.49 73.8828 260.176 74.3594 259.762 74.7461C259.352 75.1328 258.865 75.3965 258.303 75.5371ZM264.209 73V71.6816H265.586V73H264.209Z" fill="#54565B"/>
<path fill-rule="evenodd" clip-rule="evenodd" d="M377.89 38.8496C377.504 38.4635 376.878 38.4635 376.492 38.8496C376.105 39.2358 376.105 39.8618 376.492 40.2479L379.757 43.5133L375.752 47.5178C375.366 47.9039 375.366 48.5299 375.752 48.9161C376.139 49.3022 376.765 49.3022 377.151 48.9161L381.155 44.9116L385.158 48.9147C385.544 49.3008 386.17 49.3008 386.557 48.9147C386.943 48.5286 386.943 47.9025 386.557 47.5164L382.553 43.5133L385.818 40.2493C386.204 39.8632 386.204 39.2371 385.818 38.851C385.431 38.4649 384.805 38.4649 384.419 38.851L381.155 42.115L377.89 38.8496Z" fill="#54565B"/>
<defs>
<filter id="filter0_bi_813_10242" x="-11.2055" y="-11.2056" width="441.411" height="126.411" filterUnits="userSpaceOnUse" color-interpolation-filters="sRGB">
<feFlood flood-opacity="0" result="BackgroundImageFix"/>
<feGaussianBlur in="BackgroundImage" stdDeviation="5.60276"/>
<feComposite in2="SourceAlpha" operator="in" result="effect1_backgroundBlur_813_10242"/>
<feBlend mode="normal" in="SourceGraphic" in2="effect1_backgroundBlur_813_10242" result="shape"/>
<feColorMatrix in="SourceAlpha" type="matrix" values="0 0 0 0 0 0 0 0 0 0 0 0 0 0 0 0 0 0 127 0" result="hardAlpha"/>
<feOffset/>
<feGaussianBlur stdDeviation="1.3183"/>
<feComposite in2="hardAlpha" operator="arithmetic" k2="-1" k3="1"/>
<feColorMatrix type="matrix" values="0 0 0 0 1 0 0 0 0 1 0 0 0 0 1 0 0 0 0.63 0"/>
<feBlend mode="normal" in2="shape" result="effect2_innerShadow_813_10242"/>
</filter>
<linearGradient id="paint0_linear_813_10242" x1="209.5" y1="-6.10352e-05" x2="209.5" y2="20.027" gradientUnits="userSpaceOnUse">
<stop stop-color="#EEFDF7"/>
<stop offset="1" stop-color="#EBFDF5"/>
</linearGradient>
</defs>
</svg>
