<svg width="54" height="52" viewBox="0 0 54 52" fill="none" xmlns="http://www.w3.org/2000/svg">
<rect width="54" height="52" rx="10" fill="#4D879A" fill-opacity="0.1"/>
<g clip-path="url(#clip0_3278_11179)">
<path d="M39.9998 21.2573L24.457 29.9882V35.9999L39.9998 27.269V21.2573Z" fill="#76AD94"/>
<path d="M14 24.1079V30.1196L15.1114 30.7421L15.2293 30.6766L18.3109 32.4129V32.5439L24.4573 36.0003V29.9886L18.8497 25.0907L14 24.1079Z" fill="#38CB89"/>
<path d="M14 23.7473L18.9003 25.0413L34.4598 16.3105L29.5596 15L14 23.7473Z" fill="#A8A8A8"/>
<path d="M18.9004 25.0414L34.46 16.3105L40.0001 20.8808L24.4574 29.628L18.9004 25.0414Z" fill="#999999"/>
<path d="M14 23.7476V24.1243L18.9003 25.5167L24.4573 29.9886V29.6282L18.9003 25.0416L14 23.7476Z" fill="#E2E2E2"/>
<path d="M39.9998 20.8809L24.457 29.6281V29.9885L39.9998 21.2576V20.8809Z" fill="#C1C1C1"/>
<path d="M19.2372 24.8611L14.3369 23.5507L14.4716 23.4688L19.3719 24.7792L19.2372 24.8611Z" fill="#999999"/>
<path d="M19.7421 24.5664L14.8418 23.2723L14.9765 23.1904L19.8768 24.4845L19.7421 24.5664Z" fill="#999999"/>
<path d="M20.2479 24.2881L15.3477 22.9776L15.4824 22.9121L20.3826 24.2062L20.2479 24.2881Z" fill="#999999"/>
<path d="M20.753 24.0095L15.8359 22.6991L15.9875 22.6172L20.8878 23.9276L20.753 24.0095Z" fill="#999999"/>
<path d="M21.2411 23.7307L16.3408 22.4203L16.4924 22.3384L21.3926 23.6488L21.2411 23.7307Z" fill="#999999"/>
<path d="M21.746 23.436L16.8457 22.142L16.9973 22.0601L21.8975 23.3705L21.746 23.436Z" fill="#999999"/>
<path d="M22.2518 23.1577L17.3516 21.8636L17.5031 21.7817L22.4034 23.0758L22.2518 23.1577Z" fill="#999999"/>
<path d="M22.7567 22.8792L17.8564 21.5687L17.9912 21.4868L22.8914 22.7973L22.7567 22.8792Z" fill="#999999"/>
<path d="M23.2616 22.6009L18.3613 21.2904L18.496 21.2085L23.3963 22.5189L23.2616 22.6009Z" fill="#999999"/>
<path d="M23.7665 22.3057L18.8662 21.0116L19.0009 20.9297L23.9012 22.2401L23.7665 22.3057Z" fill="#999999"/>
<path d="M24.2557 22.0273L19.3555 20.7333L19.507 20.6514L24.4073 21.9454L24.2557 22.0273Z" fill="#999999"/>
<path d="M24.7606 21.749L19.8604 20.4386L20.0119 20.373L24.9122 21.6671L24.7606 21.749Z" fill="#999999"/>
<path d="M25.2655 21.4705L20.3652 20.16L20.5168 20.0781L25.417 21.3886L25.2655 21.4705Z" fill="#999999"/>
<path d="M25.7704 21.1758L20.8701 19.8817L21.0048 19.7998L25.9051 21.1103L25.7704 21.1758Z" fill="#999999"/>
<path d="M26.2762 20.8975L21.376 19.6034L21.5107 19.5215L26.411 20.8156L26.2762 20.8975Z" fill="#999999"/>
<path d="M26.7811 20.6187L21.8809 19.3082L22.0156 19.2427L26.9158 20.5367L26.7811 20.6187Z" fill="#999999"/>
<path d="M27.2862 20.3401L22.3691 19.0297L22.5207 18.9478L27.421 20.2582L27.2862 20.3401Z" fill="#999999"/>
<path d="M27.7743 20.0618L22.874 18.7513L23.0256 18.6694L27.9258 19.9799L27.7743 20.0618Z" fill="#999999"/>
<path d="M28.2801 19.7671L23.3799 18.473L23.5314 18.3911L28.4317 19.6852L28.2801 19.7671Z" fill="#999999"/>
<path d="M28.785 19.4883L23.8848 18.1942L24.0195 18.1123L28.9197 19.4064L28.785 19.4883Z" fill="#999999"/>
<path d="M29.2899 19.2097L24.3896 17.8993L24.5244 17.8174L29.4246 19.1278L29.2899 19.2097Z" fill="#999999"/>
<path d="M29.7948 18.915L24.8945 17.621L25.0292 17.5391L29.9295 18.8495L29.7948 18.915Z" fill="#999999"/>
<path d="M30.2831 18.6367L25.3828 17.3426L25.5344 17.2607L30.4346 18.5548L30.2831 18.6367Z" fill="#999999"/>
<path d="M30.7889 18.3584L25.8887 17.0643L26.0402 16.9824L30.9405 18.2765L30.7889 18.3584Z" fill="#999999"/>
<path d="M31.2938 18.0794L26.3936 16.7689L26.5283 16.687L31.4454 17.9975L31.2938 18.0794Z" fill="#999999"/>
<path d="M31.7987 17.801L26.8984 16.4906L27.0332 16.4087L31.9334 17.7191L31.7987 17.801Z" fill="#999999"/>
<path d="M32.3046 17.5063L27.4043 16.2123L27.539 16.1304L32.4393 17.4408L32.3046 17.5063Z" fill="#999999"/>
<path d="M32.8094 17.228L27.9092 15.934L28.0439 15.8521L32.9442 17.1461L32.8094 17.228Z" fill="#999999"/>
<path d="M33.2977 16.9495L28.3975 15.639L28.549 15.5571L33.4493 16.8676L33.2977 16.9495Z" fill="#999999"/>
<path d="M33.8026 16.6712L28.9023 15.3607L29.0539 15.2788L33.9542 16.5893L33.8026 16.6712Z" fill="#999999"/>
<path d="M34.3075 16.376L29.4072 15.0819L29.5588 15L34.459 16.3105L34.3075 16.376Z" fill="#999999"/>
<path d="M19.2373 24.8617L24.7943 29.4319L24.929 29.35L19.3889 24.7798L19.2373 24.8617Z" fill="#8C8C8C"/>
<path d="M19.7422 24.5668L25.2992 29.1534L25.4339 29.0714L19.8769 24.4849L19.7422 24.5668Z" fill="#8C8C8C"/>
<path d="M20.248 24.288L25.7882 28.8745L25.9398 28.7926L20.3828 24.2061L20.248 24.288Z" fill="#8C8C8C"/>
<path d="M20.7529 24.0096L26.2931 28.5798L26.4446 28.4979L20.8876 23.9277L20.7529 24.0096Z" fill="#8C8C8C"/>
<path d="M21.2412 23.7313L26.7982 28.3015L26.9329 28.2196L21.3928 23.6494L21.2412 23.7313Z" fill="#8C8C8C"/>
<path d="M21.7461 23.4366L27.3031 28.0232L27.4378 27.9413L21.8976 23.3711L21.7461 23.4366Z" fill="#8C8C8C"/>
<path d="M22.252 23.1581L27.8089 27.7447L27.9437 27.6628L22.4035 23.0762L22.252 23.1581Z" fill="#8C8C8C"/>
<path d="M22.7568 22.8798L28.3138 27.45L28.4485 27.3844L22.8916 22.7979L22.7568 22.8798Z" fill="#8C8C8C"/>
<path d="M23.2617 22.6014L28.8187 27.1716L28.9534 27.0897L23.3964 22.5195L23.2617 22.6014Z" fill="#8C8C8C"/>
<path d="M23.7676 22.3062L29.3077 26.8928L29.4593 26.8109L23.9023 22.2407L23.7676 22.3062Z" fill="#8C8C8C"/>
<path d="M24.2725 22.0277L29.8126 26.6143L29.9642 26.5324L24.4072 21.9458L24.2725 22.0277Z" fill="#8C8C8C"/>
<path d="M24.7607 21.7494L30.3177 26.3196L30.4525 26.2541L24.9123 21.6675L24.7607 21.7494Z" fill="#8C8C8C"/>
<path d="M25.2656 21.4706L30.8226 26.0408L30.9573 25.9589L25.4172 21.3887L25.2656 21.4706Z" fill="#8C8C8C"/>
<path d="M25.7715 21.1923L31.3285 25.7625L31.4632 25.6806L25.9062 21.1104L25.7715 21.1923Z" fill="#8C8C8C"/>
<path d="M26.2764 20.8973L31.8334 25.4839L31.9681 25.402L26.4111 20.8154L26.2764 20.8973Z" fill="#8C8C8C"/>
<path d="M26.7812 20.619L32.3214 25.1892L32.473 25.1237L26.916 20.5371L26.7812 20.619Z" fill="#8C8C8C"/>
<path d="M27.2861 20.3407L32.8263 24.9109L32.9778 24.829L27.4208 20.2588L27.2861 20.3407Z" fill="#8C8C8C"/>
<path d="M27.7754 20.0624L33.3324 24.6326L33.4839 24.5507L27.9269 19.9805L27.7754 20.0624Z" fill="#8C8C8C"/>
<path d="M28.2803 19.7675L33.8373 24.354L33.972 24.2721L28.4318 19.6855L28.2803 19.7675Z" fill="#8C8C8C"/>
<path d="M28.7852 19.4886L34.3422 24.0752L34.4769 23.9933L28.9367 19.4067L28.7852 19.4886Z" fill="#8C8C8C"/>
<path d="M29.291 19.2098L34.8312 23.78L34.9827 23.7145L29.4257 19.1279L29.291 19.2098Z" fill="#8C8C8C"/>
<path d="M29.7959 18.9315L35.3361 23.5017L35.4876 23.4198L29.9306 18.8496L29.7959 18.9315Z" fill="#8C8C8C"/>
<path d="M30.2842 18.6368L35.8412 23.2234L35.9759 23.1415L30.4357 18.5713L30.2842 18.6368Z" fill="#8C8C8C"/>
<path d="M30.79 18.3583L36.347 22.9449L36.4817 22.863L30.9416 18.2764L30.79 18.3583Z" fill="#8C8C8C"/>
<path d="M31.2949 18.0795L36.8519 22.6497L36.9866 22.5841L31.4296 17.9976L31.2949 18.0795Z" fill="#8C8C8C"/>
<path d="M31.7998 17.8011L37.3568 22.3713L37.4915 22.2894L31.9345 17.7192L31.7998 17.8011Z" fill="#8C8C8C"/>
<path d="M32.3057 17.5228L37.8458 22.093L37.9974 22.0111L32.4404 17.4409L32.3057 17.5228Z" fill="#8C8C8C"/>
<path d="M32.8105 17.2279L38.3507 21.8145L38.5023 21.7326L32.9453 17.146L32.8105 17.2279Z" fill="#8C8C8C"/>
<path d="M33.2988 16.9496L38.8558 21.5198L38.9905 21.4543L33.4504 16.8677L33.2988 16.9496Z" fill="#8C8C8C"/>
<path d="M33.8037 16.6708L39.3607 21.241L39.4954 21.1591L33.9553 16.5889L33.8037 16.6708Z" fill="#8C8C8C"/>
<path d="M34.3096 16.3925L39.8666 20.9627L40.0013 20.8808L34.4611 16.3105L34.3096 16.3925Z" fill="#8C8C8C"/>
<path d="M39.9998 26.8926L24.457 35.6235V36.0002L39.9998 27.2693V26.8926Z" fill="#C1C1C1"/>
<path d="M18.3105 32.1836V32.544L24.4569 36.0003V35.6235L18.3105 32.1836Z" fill="#D3D3D3"/>
<path d="M15.1114 30.3817L14 29.7593V30.1197L15.1114 30.7421V30.3817Z" fill="#D3D3D3"/>
<path opacity="0.5" d="M19.7764 32.3472V33.1826L20.7867 33.7559V32.9041L19.7764 32.3472Z" fill="#777777"/>
<path d="M19.2373 31.9048V32.7566L20.2308 33.3135V32.4617L19.2373 31.9048Z" fill="#EAEAEA"/>
<path d="M20.2305 32.4618V33.3136L20.7862 33.0188V32.167L20.2305 32.4618Z" fill="#C1C1C1"/>
<path d="M19.2373 31.9047L20.2308 32.4617L20.7865 32.1668L19.7762 31.6099L19.2373 31.9047Z" fill="white"/>
<path d="M19.6416 32.6255C19.6416 32.7894 19.7595 32.9695 19.8942 33.0351C20.0289 33.0842 20.1299 32.9859 20.1299 32.8221C20.1299 32.6583 20.0121 32.4781 19.8774 32.4126C19.7426 32.3635 19.6416 32.4617 19.6416 32.6255Z" fill="#999999"/>
<path d="M19.7256 32.6583C19.7256 32.773 19.7929 32.8876 19.894 32.9204C19.9782 32.9532 20.0455 32.8876 20.0455 32.773C20.0455 32.6583 19.9782 32.5436 19.8771 32.5109C19.7929 32.4945 19.7256 32.5436 19.7256 32.6583Z" fill="#777777"/>
<path opacity="0.5" d="M20.9209 32.9863V33.8217L21.9144 34.3951V33.5433L20.9209 32.9863Z" fill="#777777"/>
<path d="M20.3652 32.5439V33.3957L21.3756 33.9527V33.1173L20.3652 32.5439Z" fill="#EAEAEA"/>
<path d="M21.376 33.1169V33.9523L21.9148 33.6575V32.8057L21.376 33.1169Z" fill="#C1C1C1"/>
<path d="M20.3652 32.5439L21.3756 33.1172L21.9145 32.806L20.9041 32.249L20.3652 32.5439Z" fill="white"/>
<path d="M20.786 33.2647C20.786 33.4285 20.9039 33.6087 21.0386 33.6742C21.1733 33.7234 21.2744 33.6251 21.2744 33.4613C21.2744 33.2975 21.1565 33.1173 21.0218 33.0518C20.8702 33.0026 20.7692 33.1009 20.786 33.2647Z" fill="#999999"/>
<path d="M20.8535 33.2975C20.8535 33.4121 20.9209 33.5268 21.0219 33.5596C21.1061 33.5923 21.1735 33.5268 21.1735 33.4121C21.1735 33.2975 21.1061 33.1828 21.0051 33.15C20.9209 33.1337 20.8535 33.1828 20.8535 33.2975Z" fill="#777777"/>
<path opacity="0.5" d="M22.0322 33.6245V34.4763L23.0426 35.0332V34.1815L22.0322 33.6245Z" fill="#777777"/>
<path d="M21.4932 33.1987V34.0505L22.4867 34.6075V33.7557L21.4932 33.1987Z" fill="#EAEAEA"/>
<path d="M22.4863 33.7558V34.6076L23.042 34.3127V33.4609L22.4863 33.7558Z" fill="#C1C1C1"/>
<path d="M21.4932 33.1989L22.4867 33.7559L23.0424 33.461L22.032 32.8877L21.4932 33.1989Z" fill="white"/>
<path d="M21.8975 33.9194C21.8975 34.0832 22.0153 34.2634 22.1501 34.3289C22.2848 34.378 22.3858 34.2798 22.3858 34.1159C22.3858 33.9521 22.2679 33.772 22.1332 33.7064C21.9985 33.6573 21.8975 33.7392 21.8975 33.9194Z" fill="#999999"/>
<path d="M21.9814 33.9522C21.9814 34.0669 22.0488 34.1816 22.1498 34.2143C22.234 34.2471 22.3014 34.1816 22.3014 34.0669C22.3014 33.9522 22.234 33.8376 22.133 33.8048C22.0488 33.7721 21.9814 33.8376 21.9814 33.9522Z" fill="#777777"/>
<path opacity="0.5" d="M23.1777 34.2637V35.1155L24.1713 35.6724V34.837L23.1777 34.2637Z" fill="#777777"/>
<path d="M22.6387 33.8379V34.6897L23.6322 35.2466V34.3948L22.6387 33.8379Z" fill="#EAEAEA"/>
<path d="M23.6318 34.3945V35.2463L24.1707 34.9514V34.0996L23.6318 34.3945Z" fill="#C1C1C1"/>
<path d="M22.6387 33.8378L23.6322 34.3948L24.1711 34.0999L23.1607 33.543L22.6387 33.8378Z" fill="white"/>
<path d="M23.0426 34.5587C23.0426 34.7225 23.1605 34.9026 23.2952 34.9682C23.4299 35.0173 23.531 34.919 23.531 34.7552C23.531 34.5914 23.4131 34.4112 23.2784 34.3457C23.1437 34.2966 23.0258 34.3948 23.0426 34.5587Z" fill="#999999"/>
<path d="M23.1266 34.5914C23.1266 34.7061 23.194 34.8207 23.295 34.8535C23.3792 34.8863 23.4466 34.8207 23.4466 34.7061C23.4466 34.5914 23.3792 34.4767 23.2782 34.444C23.1771 34.4112 23.1098 34.4767 23.1266 34.5914Z" fill="#777777"/>
<path d="M23.2452 30.2997L20.332 28.6616V29.6608L23.2452 31.2989V30.2997Z" fill="white"/>
<path d="M21.6958 29.5462L20.416 28.8091V29.5134L21.6958 30.2342V29.5462Z" fill="#999999"/>
<path d="M21.6958 30.1523L20.5844 29.5298L20.416 29.5953L21.6958 30.3324V30.1523Z" fill="#E2E2E2"/>
<path d="M20.5844 28.9074L20.416 28.8091V29.5954L20.5844 29.5298V28.9074Z" fill="#C1C1C1"/>
<path d="M23.1443 30.3487L21.8477 29.6279V30.3159L23.1443 31.0367V30.3487Z" fill="#999999"/>
<path d="M23.1443 30.9545L22.0161 30.332L21.8477 30.4139L23.1443 31.1347V30.9545Z" fill="#E2E2E2"/>
<path d="M22.0161 29.7098L21.8477 29.6279V30.4142L22.0161 30.3323V29.7098Z" fill="#C1C1C1"/>
<path d="M25.6533 30.2997L28.5665 28.6616V29.6608L25.6533 31.2989V30.2997Z" fill="white"/>
<path d="M27.1855 29.5462L28.4822 28.8091V29.5134L27.1855 30.2342V29.5462Z" fill="#999999"/>
<path d="M27.1855 30.1523L28.3138 29.5298L28.4822 29.5953L27.1855 30.3324V30.1523Z" fill="#E2E2E2"/>
<path d="M28.3135 28.9074L28.4819 28.8091V29.5954L28.3135 29.5298V28.9074Z" fill="#C1C1C1"/>
<path d="M25.7549 30.3487L27.0515 29.6279V30.3159L25.7549 31.0367V30.3487Z" fill="#999999"/>
<path d="M25.7549 30.9545L26.8831 30.332L27.0515 30.4139L25.7549 31.1347V30.9545Z" fill="#E2E2E2"/>
<path d="M26.8828 29.7098L27.0512 29.6279V30.4142L26.8828 30.3323V29.7098Z" fill="#C1C1C1"/>
<path d="M36.2949 24.3207L39.2081 22.6826V23.6818L36.2949 25.3199V24.3207Z" fill="white"/>
<path d="M37.8271 23.5672L39.1238 22.8301V23.5344L37.8271 24.2552V23.5672Z" fill="#999999"/>
<path d="M37.8271 24.1732L38.9554 23.5508L39.1238 23.6163L37.8271 24.3534V24.1732Z" fill="#E2E2E2"/>
<path d="M38.9551 22.9284L39.1235 22.8301V23.6163L38.9551 23.5508V22.9284Z" fill="#C1C1C1"/>
<path d="M36.3965 24.3699L37.6763 23.6328V24.3372L36.3965 25.0579V24.3699Z" fill="#999999"/>
<path d="M36.3965 24.976L37.5079 24.3535L37.6763 24.4354L36.3965 25.1562V24.976Z" fill="#E2E2E2"/>
<path d="M37.5078 23.7311L37.6762 23.6328V24.4355L37.5078 24.3536V23.7311Z" fill="#C1C1C1"/>
<path d="M32.8096 26.3026L35.7228 24.6646V25.6474L32.8096 27.2855V26.3026Z" fill="white"/>
<path d="M34.3418 25.5328L35.6384 24.812V25.5164L34.3418 26.2371V25.5328Z" fill="#999999"/>
<path d="M34.3418 26.1552L35.47 25.5327L35.6384 25.5982L34.3418 26.3354V26.1552Z" fill="#E2E2E2"/>
<path d="M35.4697 24.9103L35.6381 24.812V25.5983L35.4697 25.5328V24.9103Z" fill="#C1C1C1"/>
<path d="M32.9102 26.3355L34.1899 25.6147V26.3191L32.9102 27.0399V26.3355Z" fill="#999999"/>
<path d="M32.9102 26.9579L34.0216 26.3354L34.1899 26.401L32.9102 27.1381V26.9579Z" fill="#E2E2E2"/>
<path d="M34.0215 25.713L34.1899 25.6147V26.401L34.0215 26.3355V25.713Z" fill="#C1C1C1"/>
<path d="M15.1953 30.6595L18.3106 32.4122V28.9231L15.1953 27.1704V30.6595Z" fill="#D3D3D3"/>
<path d="M15.1113 27.1216V30.7417L15.2292 30.6762V27.1871L15.1113 27.1216Z" fill="#76AD94"/>
<path d="M15.2295 28.2026V28.3009L18.3111 30.0373V29.939L15.2295 28.2026Z" fill="#AAAAAA"/>
<path d="M15.2295 28.5469V28.6452L18.3111 30.3815V30.2832L15.2295 28.5469Z" fill="#AAAAAA"/>
<path d="M15.2295 28.8906V28.9889L18.3111 30.7253V30.6106L15.2295 28.8906Z" fill="#AAAAAA"/>
<path d="M15.2295 27.5312V27.6295L18.3111 29.3659V29.2512L15.2295 27.5312Z" fill="#AAAAAA"/>
<path d="M15.2295 27.8589V27.9736L18.3111 29.7099V29.5952L15.2295 27.8589Z" fill="#AAAAAA"/>
<path d="M15.2295 29.2183V29.3329L18.3111 31.0693V30.9546L15.2295 29.2183Z" fill="#AAAAAA"/>
<path d="M15.2295 29.5625V29.6608L18.3111 31.3971V31.2988L15.2295 29.5625Z" fill="#AAAAAA"/>
<path d="M15.2295 29.9062V30.0045L18.3111 31.7409V31.6426L15.2295 29.9062Z" fill="#AAAAAA"/>
<path d="M15.2295 30.2505V30.3488L18.3111 32.0851V31.9705L15.2295 30.2505Z" fill="#AAAAAA"/>
<path d="M17.0648 28.006L16.627 27.7603V27.5474L17.0648 27.7767V28.006Z" fill="white"/>
<path d="M17.0645 28.0058L17.1823 27.9403V27.7109L17.0645 27.7765V28.0058Z" fill="#C1C1C1"/>
<path d="M16.627 27.5475L17.0648 27.7768L17.1827 27.7113L16.7448 27.4819L16.627 27.5475Z" fill="#D3D3D3"/>
<path d="M28.8867 30.6925L29.3245 30.4632V30.2339L28.8867 30.4796V30.6925Z" fill="white"/>
<path d="M28.8864 30.6925L28.7686 30.627V30.4141L28.8864 30.4796V30.6925Z" fill="#C1C1C1"/>
<path d="M29.3243 30.234L28.8864 30.4797L28.7686 30.4142L29.2064 30.1685L29.3243 30.234Z" fill="#D3D3D3"/>
<path d="M32.5742 28.6286L33.012 28.3993V28.1699L32.5742 28.4156V28.6286Z" fill="white"/>
<path d="M32.5739 28.6286L32.4561 28.563V28.3501L32.5739 28.4156V28.6286Z" fill="#C1C1C1"/>
<path d="M33.0118 28.17L32.5739 28.4157L32.4561 28.3502L32.8939 28.1045L33.0118 28.17Z" fill="#D3D3D3"/>
<path d="M36.2783 26.5319L36.7161 26.3026V26.0732L36.2783 26.319V26.5319Z" fill="white"/>
<path d="M36.278 26.5319L36.1602 26.4664V26.2534L36.278 26.3189V26.5319Z" fill="#C1C1C1"/>
<path d="M36.7159 26.0733L36.278 26.319L36.1602 26.2535L36.5811 26.0078L36.7159 26.0733Z" fill="#D3D3D3"/>
</g>
<defs>
<clipPath id="clip0_3278_11179">
<rect width="26" height="21" fill="white" transform="translate(14 15)"/>
</clipPath>
</defs>
</svg>
