<svg width="31" height="32" viewBox="0 0 31 32" fill="none" xmlns="http://www.w3.org/2000/svg">
<path d="M22.3938 10.072C22.0639 10.2555 22.1583 10.251 22.0639 10.2555C21.89 10.2633 21.2572 10.3289 21.3674 10.2555C21.4771 10.1818 21.5577 10.0791 21.5781 9.99862C21.5852 9.97198 21.5964 9.90936 21.5781 9.88877C21.4883 9.78584 21.17 9.84829 21.0377 9.8156C20.9332 9.78948 20.7398 9.68741 20.6338 9.66855C20.5435 9.65264 20.3573 9.65212 20.2672 9.66855C20.0062 9.71613 19.3872 9.99845 19.4974 10.402C19.6076 10.8056 19.7055 10.9642 19.8778 11.0255C19.9696 11.0582 20.1769 10.9884 20.2674 11.0255C20.3632 11.0651 20.4829 11.2497 20.5606 11.3189C20.6045 11.3578 20.6884 11.446 20.7441 11.4656C20.7784 11.4778 20.865 11.44 20.8906 11.4656C20.9168 11.4919 20.865 11.5865 20.8906 11.6126C20.9687 11.6901 21.2205 11.6126 21.3307 11.6126H21.6245H21.9182H22.3583H22.5408C22.6327 11.6126 22.843 11.6771 22.9079 11.6126C22.9598 11.5607 22.9079 11.3922 22.9079 11.3192V11.136C22.9079 11.0464 22.8207 10.7985 22.9079 10.7779C22.9453 10.7691 22.9716 10.8027 23.0909 10.6409C23.3478 10.2927 23.3698 10.3989 23.3478 10.2927C23.334 10.224 23.5538 10.2307 23.6047 10.1825C23.671 10.12 23.7512 9.88961 23.6047 9.81626C23.4577 9.74257 23.3848 9.70606 23.311 9.66922C23.1188 9.57338 22.5043 9.26598 22.5043 9.376C22.5043 9.48568 22.468 9.66922 22.468 9.77924C22.4676 9.88857 22.7243 9.8884 22.3938 10.0719L22.3938 10.072Z" fill="#9FA19C"/>
<path d="M15.5002 23.6337C21.384 23.6337 26.1713 18.8468 26.1713 12.9626C26.1713 7.0779 21.384 2.2915 15.5002 2.2915C9.61639 2.2915 4.8291 7.07835 4.8291 12.9626C4.8291 18.8468 9.61639 23.6337 15.5002 23.6337ZM25.7311 12.9626C25.7311 13.1953 25.7203 13.425 25.705 13.6534C25.5756 13.6688 25.4337 13.7236 25.3643 13.7374C25.1808 13.7743 25.3643 13.7374 25.2541 13.7374C25.1445 13.7374 25.0931 13.8544 25.0343 13.8845C24.9765 13.9128 24.8395 13.9013 24.7779 13.8845C24.7085 13.8651 24.5938 13.7743 24.5938 13.6641C24.5938 13.5542 24.3006 13.5174 24.0437 13.2975C23.7873 13.0775 23.9067 13.0221 23.934 12.9308C23.9474 12.8861 23.9136 12.7922 23.8972 12.7486C23.8512 12.6208 23.7742 12.2902 23.6403 12.2708C23.5894 12.2632 23.527 12.3779 23.4938 12.4179C23.423 12.5024 23.2374 12.7844 23.2 12.7488C23.1632 12.7125 23.1507 13.1697 23.2 13.298C23.2637 13.4622 23.4815 13.7715 23.6401 13.8481C23.7166 13.885 23.6401 13.8481 23.8605 14.1045C24.0804 14.3614 24.0288 14.4024 24.1174 14.4711C24.2112 14.5444 24.5127 14.4202 24.5937 14.5079C24.6686 14.5889 24.6274 14.8434 24.5937 14.948C24.5556 15.067 24.4106 15.2049 24.3004 15.3513C24.1902 15.4983 24.1297 15.4829 24.08 15.5348C23.9373 15.6876 23.897 16.2316 23.8602 16.3415C23.8228 16.4517 23.6038 17.3685 23.567 17.4784C23.5301 17.5882 23.4583 17.6723 23.4199 17.7349C23.2583 17.9968 23.0198 18.5668 22.8698 18.835C22.7011 19.1367 22.2097 19.8985 22.1365 20.0084C22.0633 20.1182 21.9611 20.2059 21.8796 20.2284C21.7206 20.2724 21.3677 20.3007 21.2195 20.2284C21.0729 20.1571 20.8778 19.8663 20.8167 19.715C20.682 19.3821 20.7264 18.64 20.6697 18.2848C20.6354 18.0721 20.5147 17.6567 20.4867 17.4432C20.4519 17.1786 20.4493 16.5997 20.4133 16.3797C20.3765 16.1596 20.3893 16.2094 20.4133 16.1596C20.4796 16.0192 20.0829 15.756 19.9727 15.7195C19.863 15.683 19.863 15.5725 19.7163 15.4261C19.5698 15.2791 19.4399 15.3727 19.3498 15.3893C19.2498 15.4082 19.0481 15.3575 18.9465 15.3525C18.7905 15.3454 18.4635 15.4191 18.3229 15.3525C18.0757 15.236 17.7809 14.7351 17.6264 14.5093C17.557 14.4074 17.4429 14.1794 17.406 14.0692C17.3697 13.959 17.2963 13.6568 17.259 13.5191C17.2162 13.3625 17.0611 13.057 17.076 12.8955C17.0933 12.7031 17.2958 12.4554 17.4792 12.2355C17.6617 12.0155 17.7479 12.0068 17.8458 11.9421C18.0028 11.839 17.9928 11.7954 18.3959 11.4289C18.7991 11.0626 18.3959 11.4288 18.3959 11.2457C18.3959 11.0621 18.2781 10.9876 18.3225 10.9154C18.3611 10.8524 18.3225 10.9154 18.1755 10.6589C18.029 10.4025 18.0504 10.503 17.9925 10.4757C17.8212 10.3951 18.2488 9.88906 18.2857 9.77888C18.3231 9.66903 18.4687 9.77888 18.6889 9.66903C18.9093 9.55918 18.8541 9.66245 18.9093 9.66903C19.0216 9.68287 19.0057 9.34173 19.019 9.22894C19.0237 9.19244 19.0302 9.11702 19.019 9.0819C18.995 9.00665 18.9062 8.86133 18.836 8.82535C18.7621 8.78747 18.6161 8.82535 18.5061 8.7885C18.3959 8.75218 18.2492 8.71516 18.139 8.64181C18.0288 8.56846 17.9484 8.39062 17.9925 8.31157C18.0765 8.16141 18.5059 8.09152 18.6161 8.01835C18.7258 7.94517 18.6161 7.7983 18.6161 7.68846C18.6161 7.57826 19.0296 7.54626 19.1657 7.57826C19.2657 7.60179 19.4786 7.67427 19.5328 7.76128C19.5762 7.83169 19.5139 8.01108 19.5328 8.09152C19.5516 8.17144 19.6061 8.34737 19.6788 8.38491C19.7281 8.41052 19.8435 8.35326 19.8992 8.34807C19.9383 8.34495 19.8992 8.34807 20.0094 8.23822C20.1196 8.12837 20.1099 8.0391 20.1566 7.98167C20.1946 7.93358 20.3166 7.88583 20.3765 7.87147C20.4835 7.84622 20.7063 7.86628 20.8165 7.87147C20.9181 7.87614 21.1182 7.91368 21.2193 7.90832C21.2978 7.90417 21.4028 7.87147 21.513 7.79847C21.6232 7.7253 21.9898 7.54192 22.0998 7.43173C22.2095 7.32153 22.2095 7.02849 22.1731 6.91828C22.1363 6.80843 22.1773 6.80809 22.1731 6.77159C22.1629 6.68578 21.965 6.60188 21.8794 6.58839C21.8045 6.57663 21.6505 6.62108 21.5862 6.66173C21.476 6.7311 21.3303 6.95772 21.2563 7.06481C21.2141 7.1257 21.1691 7.2781 21.1092 7.32135C21.0714 7.34869 20.9733 7.35353 20.9262 7.3582C20.7802 7.37308 20.4853 7.36858 20.3389 7.3582C20.21 7.34903 19.9111 7.38328 19.826 7.28537C19.8087 7.26479 19.826 7.22828 19.826 7.17725V7.13868V7.09975C19.826 7.04855 19.8147 7.01654 19.826 6.99198C19.8865 6.86224 20.1881 6.74529 20.2661 6.62524C20.3384 6.51349 20.3303 6.21716 20.4131 6.11197C20.6143 5.85283 21.2921 5.6556 21.5497 5.45185C21.6568 5.36725 21.8764 5.22055 22.005 5.0723C24.2796 6.95028 25.731 9.79006 25.731 12.9627L25.7311 12.9626ZM17.8876 3.01558C17.8881 3.03599 17.8876 3.05467 17.8835 3.06834C17.8359 3.23078 17.6271 3.47158 17.4434 3.58161C17.2598 3.6918 17.4337 3.88469 17.4434 3.9852C17.4598 4.16148 17.2879 4.50002 17.187 4.64514C17.0564 4.83128 16.5997 5.15859 16.5269 5.26877C16.4541 5.37863 16.2863 5.52376 16.197 5.59867C16.0718 5.70367 15.7931 5.92891 15.6835 6.00191C15.5734 6.07526 15.3531 6.25846 15.0829 6.77208C14.8127 7.28536 14.7295 7.19297 14.62 7.10232C14.463 6.97223 13.8969 6.81931 13.9599 6.62537C13.9883 6.53628 13.9599 6.62537 13.6667 6.39304C13.3735 6.16088 13.3532 5.77202 13.4098 5.5618C13.4312 5.48239 13.5286 5.34573 13.5568 5.26858C13.6226 5.09109 13.5916 4.65119 13.7404 4.53476C13.8244 4.46851 13.7404 4.53476 13.5933 4.13152C13.4463 3.72827 13.0901 3.86996 12.9697 3.72827C12.9334 3.68606 12.9835 3.55909 13.0071 3.5084C13.0361 3.44318 13.1403 3.33974 13.1901 3.28801C13.2809 3.1946 13.4762 3.02904 13.5658 2.91677C14.1924 2.79637 14.839 2.73115 15.5002 2.73115C16.3224 2.73185 17.1215 2.83149 17.8877 3.01555L17.8876 3.01558ZM9.16556 4.937H9.48594C10.0361 4.937 9.81635 4.937 10.109 4.90015C10.4023 4.86313 10.413 4.82006 10.513 4.78996C10.6365 4.75259 10.513 4.78996 11.0264 4.75311C11.5399 4.71626 11.0264 4.75311 11.2309 4.71626C11.4354 4.67976 11.4663 4.64292 11.5765 4.71626C11.6862 4.78961 11.9104 4.68564 12.0166 4.71626C12.1727 4.76176 12.3832 5.08283 12.4567 5.19304C12.5304 5.30324 12.8228 5.63313 12.9335 5.85299C13.0437 6.07303 12.9335 5.85299 12.6766 6.03618C12.4202 6.21973 12.5296 6.18323 12.4197 6.18323C12.31 6.18323 12.1078 6.19205 12.017 6.14638C11.9374 6.10676 11.8478 5.93516 11.7713 5.88983C11.6489 5.81666 11.5231 5.67186 11.2314 5.70664C11.1693 5.71373 11.0764 5.81424 11.027 5.85333C10.9505 5.91371 10.8081 6.04812 10.7332 6.10988C10.644 6.18323 10.4436 6.30674 10.3667 6.39289C10.2871 6.48215 10.1831 6.69684 10.0734 6.76984C9.96325 6.84301 10.1103 7.14869 10.1831 7.2468C10.2371 7.31911 10.3549 7.47203 10.44 7.50317C10.5701 7.55126 10.8796 7.46667 10.9896 7.42982C11.0998 7.39298 11.1366 7.39298 11.3567 7.28278C11.5771 7.17293 11.3567 7.28278 11.5037 7.17293C11.6503 7.06308 11.6935 7.01153 11.7714 6.98973C11.9191 6.94908 12.2421 6.93144 12.3837 6.98973C12.4796 7.02918 12.6105 7.20372 12.677 7.28295C12.8235 7.45681 12.9338 7.65004 13.3001 7.94308C13.6666 8.2363 13.704 8.49319 13.7773 8.64005C13.8507 8.78674 13.7405 9.08014 13.6671 9.18963C13.5938 9.29983 13.4372 9.43528 13.3372 9.48337C12.9762 9.65567 12.4199 9.73992 11.7715 9.81326C11.1237 9.88661 11.7603 10.0698 11.7715 10.1435C11.7833 10.2167 11.1735 10.6573 10.8434 10.9133C10.5135 11.1699 10.8434 10.9133 10.7332 10.9503C10.623 10.9872 10.5134 11.1702 10.4033 11.2802C10.2931 11.3904 10.2931 11.7937 10.1829 11.867C10.0733 11.9404 9.66949 12.0502 9.5593 12.0502H9.2666H8.97286C8.86267 12.0502 8.77548 12.0255 8.71597 12.0502C8.63242 12.0852 8.49402 12.2234 8.45908 12.3068C8.44178 12.349 8.4397 12.4488 8.45908 12.49C8.50994 12.5957 8.74002 12.7038 8.82617 12.7832C9.03687 12.9766 9.52313 13.517 9.59652 13.6267C9.66986 13.7369 9.87192 14.1327 10.0366 14.2135C10.2013 14.2941 10.5862 14.2135 10.7699 14.2135C10.885 14.2135 11.1166 14.1996 11.2315 14.2135C11.447 14.2391 11.8337 14.36 12.088 14.36C12.3419 14.36 12.4551 14.482 12.53 14.5804C12.6253 14.7062 12.677 14.8004 13.0439 14.947C13.4099 15.094 13.4547 15.1876 13.5859 15.2772C13.7704 15.4033 14.2899 15.5706 14.4001 15.6438C14.5103 15.7169 14.657 16.3037 14.8402 16.5975C15.0233 16.8908 15.1701 17.1476 15.0238 17.4775C14.8767 17.8073 15.1335 17.9175 15.0238 18.0276C14.9136 18.1372 14.9136 18.2476 14.6205 18.6875C14.3268 19.1276 14.2534 19.4577 14.1437 19.4942C14.0336 19.5307 13.2572 20.0479 13.3734 20.301C13.4386 20.4427 13.3734 20.301 12.8972 20.7043C12.4204 21.1075 12.4932 21.0708 12.2735 21.181C12.0531 21.2909 12.0772 21.698 12.09 21.878C12.1017 22.0493 12.0626 22.3631 12.0874 22.6056C11.9467 22.5558 11.8075 22.5022 11.6691 22.4461C11.6722 22.2519 11.6364 22.0159 11.613 21.878C11.5767 21.6576 11.173 20.0077 11.173 19.8243C11.173 19.6407 10.9038 19.5077 10.8431 19.3838C10.7666 19.2275 10.8431 18.8614 10.8431 18.6874C10.8431 18.5955 10.8827 18.4031 10.8431 18.3206C10.8175 18.2677 10.7019 18.2144 10.6595 18.1736C10.4815 18.0049 10.1395 17.6473 10.0084 17.4403C9.95493 17.3562 9.91359 17.1526 9.85287 17.0735C9.78973 16.9908 9.56432 16.9132 9.52297 16.817C9.46468 16.6817 9.5593 16.4504 9.5593 16.2304C9.5593 16.0103 9.6695 15.9738 9.90044 15.6802C10.1316 15.387 9.92656 15.4971 9.88971 15.387C9.85235 15.2768 9.92656 15.2035 9.88971 15.0936C9.85235 14.9834 9.62262 14.7295 9.52315 14.6169C9.45845 14.544 9.34116 14.3856 9.26677 14.3235C9.08635 14.1737 8.65386 13.9777 8.45909 13.847C8.29648 13.7372 7.98736 13.4959 7.83599 13.3703C7.61716 13.1871 7.18486 12.8113 6.99284 12.5999C6.93125 12.5321 6.83732 12.3717 6.77297 12.3067C6.66692 12.1996 6.37439 12.0687 6.2957 11.9399C6.15713 11.7088 6.13568 11.1452 6.11268 10.8767C6.09071 10.6209 6.13672 10.1055 6.11268 9.84971C6.09538 9.66253 6.13724 9.23679 6.07358 8.98512C6.74947 7.38822 7.82287 5.99893 9.16561 4.93696L9.16556 4.937Z" fill="#9FA19C"/>
</svg>
